<svg width="30" height="30" viewBox="0 0 30 30" fill="none" xmlns="http://www.w3.org/2000/svg">
<circle cx="15.2291" cy="15.2008" r="12.797" stroke="white" stroke-width="3"/>
<path d="M13.8965 12.5548H16.5485V21.7008H13.8965V12.5548ZM15.2225 11.2798C14.7352 11.2798 14.3385 11.1381 14.0325 10.8548C13.7265 10.5715 13.5735 10.2201 13.5735 9.8008C13.5735 9.38147 13.7265 9.03014 14.0325 8.74681C14.3385 8.46347 14.7352 8.3218 15.2225 8.3218C15.7098 8.3218 16.1065 8.4578 16.4125 8.72981C16.7185 9.00181 16.8715 9.34181 16.8715 9.74981C16.8715 10.1918 16.7185 10.5601 16.4125 10.8548C16.1065 11.1381 15.7098 11.2798 15.2225 11.2798Z" fill="white"/>
</svg>
