<svg width="349" height="295" viewBox="0 0 349 295" fill="none" xmlns="http://www.w3.org/2000/svg">
<g filter="url(#filter0_d_348_1041)">
<g filter="url(#filter1_i_348_1041)">
<path d="M54.4968 275.177L26.4958 275.177C19.8684 275.177 14.4958 269.804 14.4958 263.177L14.4958 234.895L54.4968 234.895L54.4968 275.177Z" fill="#F4F4F4"/>
<rect x="54.4968" y="235.064" width="40.001" height="40.2816" transform="rotate(-180 54.4968 235.064)" fill="#F4F4F4"/>
<rect x="54.4968" y="194.894" width="40.001" height="40.2816" transform="rotate(-180 54.4968 194.894)" fill="#F4F4F4"/>
<rect x="54.4968" y="154.612" width="40.001" height="40.2816" transform="rotate(-180 54.4968 154.612)" fill="#F4F4F4"/>
<rect x="134.499" y="114.331" width="40.001" height="40.2816" transform="rotate(-180 134.499 114.331)" fill="#F4F4F4"/>
<rect x="174.5" y="114.331" width="40.001" height="40.2816" transform="rotate(-180 174.5 114.331)" fill="#F4F4F4"/>
<rect x="214.501" y="114.331" width="40.001" height="40.2816" transform="rotate(-180 214.501 114.331)" fill="#F4F4F4"/>
<path d="M214.501 74.1054L174.5 74.1054L174.5 33.8237L206.501 33.8237C210.919 33.8237 214.501 37.4055 214.501 41.8237L214.501 74.1054Z" fill="#F4F4F4"/>
<path d="M174.5 74.1054L134.499 74.1054L134.499 41.8237C134.499 37.4055 138.08 33.8237 142.499 33.8237L174.5 33.8237L174.5 74.1054Z" fill="#F4F4F4"/>
<path d="M54.4968 114.331L14.4958 114.331L14.4958 86.0492C14.4958 79.4218 19.8684 74.0492 26.4958 74.0492L54.4968 74.0492L54.4968 114.331Z" fill="#F4F4F4"/>
<rect x="94.4978" y="114.331" width="40.001" height="40.2816" transform="rotate(-180 94.4978 114.331)" fill="#F4F4F4"/>
<path d="M94.4978 74.1054L54.4968 74.1054L54.4968 42.8538C54.4968 38.4355 58.0785 34.8538 62.4968 34.8538L86.4978 34.8538C90.9161 34.8538 94.4978 38.4355 94.4978 42.8538L94.4978 74.1054Z" fill="#F4F4F4"/>
<rect x="174.5" y="154.612" width="40.001" height="40.2816" transform="rotate(-180 174.5 154.612)" fill="#F4F4F4"/>
<rect x="214.501" y="154.612" width="40.001" height="40.2816" transform="rotate(-180 214.501 154.612)" fill="#F4F4F4"/>
<rect x="174.5" y="194.894" width="40.001" height="40.2816" transform="rotate(-180 174.5 194.894)" fill="#F4F4F4"/>
<rect x="214.501" y="194.894" width="40.001" height="40.2816" transform="rotate(-180 214.501 194.894)" fill="#F4F4F4"/>
<rect x="134.499" y="235.064" width="40.001" height="40.2816" transform="rotate(-180 134.499 235.064)" fill="#F4F4F4"/>
<rect x="174.5" y="235.064" width="40.001" height="40.2816" transform="rotate(-180 174.5 235.064)" fill="#F4F4F4"/>
<rect x="254.502" y="114.331" width="40.001" height="40.2816" transform="rotate(-180 254.502 114.331)" fill="#F4F4F4"/>
<rect x="294.503" y="114.331" width="40.001" height="40.2816" transform="rotate(-180 294.503 114.331)" fill="#F4F4F4"/>
<path d="M294.503 74.0492L254.502 74.0492L254.502 41.7675C254.502 37.3492 258.084 33.7675 262.502 33.7675L286.503 33.7675C290.921 33.7675 294.503 37.3492 294.503 41.7675L294.503 74.0492Z" fill="#F4F4F4"/>
<path d="M334.504 114.331L294.503 114.331L294.503 74.0492L322.504 74.0492C329.131 74.0492 334.504 79.4218 334.504 86.0492L334.504 114.331Z" fill="#F4F4F4"/>
<rect x="134.499" y="154.612" width="40.001" height="40.2816" transform="rotate(-180 134.499 154.612)" fill="#F4F4F4"/>
<rect x="134.499" y="194.894" width="40.001" height="40.2816" transform="rotate(-180 134.499 194.894)" fill="#F4F4F4"/>
<rect x="94.4978" y="235.064" width="40.001" height="40.2816" transform="rotate(-180 94.4978 235.064)" fill="#F4F4F4"/>
<rect x="134.499" y="275.177" width="40.001" height="40.2816" transform="rotate(-180 134.499 275.177)" fill="#F4F4F4"/>
<rect x="174.5" y="275.177" width="40.001" height="40.2816" transform="rotate(-180 174.5 275.177)" fill="#F4F4F4"/>
<rect x="214.501" y="275.177" width="40.001" height="40.2816" transform="rotate(-180 214.501 275.177)" fill="#F4F4F4"/>
<rect x="94.4978" y="154.612" width="40.001" height="40.2816" transform="rotate(-180 94.4978 154.612)" fill="#F4F4F4"/>
<rect x="94.4978" y="194.894" width="40.001" height="40.2816" transform="rotate(-180 94.4978 194.894)" fill="#F4F4F4"/>
<rect x="334.301" y="234.895" width="40.001" height="40.2816" transform="rotate(-180 334.301 234.895)" fill="#F4F4F4"/>
<rect x="94.4978" y="275.177" width="40.001" height="40.2816" transform="rotate(-180 94.4978 275.177)" fill="#F4F4F4"/>
<rect x="254.502" y="275.289" width="40.001" height="40.2816" transform="rotate(-180 254.502 275.289)" fill="#F4F4F4"/>
<rect x="214.501" y="235.064" width="40.001" height="40.2816" transform="rotate(-180 214.501 235.064)" fill="#F4F4F4"/>
<rect x="254.502" y="194.894" width="40.001" height="40.2816" transform="rotate(-180 254.502 194.894)" fill="#F4F4F4"/>
<rect x="254.502" y="154.612" width="40.001" height="40.2816" transform="rotate(-180 254.502 154.612)" fill="#F4F4F4"/>
<rect x="334.504" y="154.612" width="40.001" height="40.2816" transform="rotate(-180 334.504 154.612)" fill="#F4F4F4"/>
<rect x="334.504" y="194.894" width="40.001" height="40.2816" transform="rotate(-180 334.504 194.894)" fill="#F4F4F4"/>
<rect x="294.503" y="235.064" width="40.001" height="40.2816" transform="rotate(-180 294.503 235.064)" fill="#F4F4F4"/>
<path d="M334.504 263.289C334.504 269.916 329.131 275.289 322.504 275.289L294.503 275.289L294.503 235.007L334.504 235.007L334.504 263.289Z" fill="#F4F4F4"/>
<rect x="294.503" y="154.612" width="40.001" height="40.2816" transform="rotate(-180 294.503 154.612)" fill="#F4F4F4"/>
<rect x="294.503" y="194.894" width="40.001" height="40.2816" transform="rotate(-180 294.503 194.894)" fill="#F4F4F4"/>
<rect x="254.502" y="235.064" width="40.001" height="40.2816" transform="rotate(-180 254.502 235.064)" fill="#F4F4F4"/>
<rect x="294.503" y="275.289" width="40.001" height="40.2816" transform="rotate(-180 294.503 275.289)" fill="#F4F4F4"/>
</g>
<g filter="url(#filter2_i_348_1041)">
<path fill-rule="evenodd" clip-rule="evenodd" d="M163.573 0.7099C161.363 0.7099 159.573 2.50076 159.573 4.7099V21.5845C159.573 22.4061 159.009 23.2966 158.187 23.2966H152.414C151.592 23.2966 151.028 22.4061 151.028 21.5845V12.8694C151.028 10.6603 149.238 8.86945 147.028 8.86945H133.729C131.52 8.86945 129.729 10.6603 129.729 12.8694V21.5845C129.729 22.8998 129.314 24.5277 128.213 25.2479C124.939 27.3907 122.775 31.091 122.775 35.2966V58.3739C122.775 60.583 120.984 62.3739 118.775 62.3739H108.271C106.062 62.3739 104.271 60.583 104.271 58.3739V35.2966C104.271 28.6692 98.8986 23.2966 92.2712 23.2966H58.3366C51.7092 23.2966 46.3366 28.6692 46.3366 35.2966V58.3739C46.3366 60.583 44.5458 62.3739 42.3366 62.3739H28C14.7452 62.3739 4 73.119 4 86.3739V262.297C4 275.551 14.7452 286.297 28 286.297H321C334.255 286.297 345 275.551 345 262.297V86.3739C345 73.1191 334.255 62.3739 321 62.3739H308.364C306.155 62.3739 304.364 60.583 304.364 58.3739V35.2966C304.364 28.6692 298.992 23.2966 292.364 23.2966H258.143C251.516 23.2966 246.143 28.6692 246.143 35.2966V58.3739C246.143 60.583 244.352 62.3739 242.143 62.3739H229.941C227.732 62.3739 225.941 60.583 225.941 58.3739V35.2966C225.941 31.2123 223.901 27.6045 220.784 25.4372C219.664 24.6586 219.27 22.9484 219.27 21.5845V12.8694C219.27 10.6603 217.479 8.86945 215.27 8.86945H201.971C199.762 8.86945 197.971 10.6603 197.971 12.8694V21.5845C197.971 22.4061 197.408 23.2966 196.586 23.2966H190.813C189.991 23.2966 189.427 22.4061 189.427 21.5845V4.7099C189.427 2.50076 187.637 0.7099 185.427 0.7099H163.573ZM174.5 74.7108L214.501 74.7108L214.501 42.7109C214.501 38.2926 210.92 34.7109 206.501 34.7109L174.5 34.7109V74.7108ZM54.4969 274.488H26.4959C19.8684 274.488 14.4959 269.116 14.4959 262.488L14.4958 234.711L14.4959 234.488L14.4958 194.711V154.711L14.4959 114.711L14.4959 85.6124C14.4959 78.985 19.8684 73.6124 26.4959 73.6124L54.0115 73.6124L54.0115 42.9343C54.0115 38.5161 57.5932 34.9344 62.0115 34.9344L86.4978 34.9344C90.9161 34.9344 94.4978 38.5161 94.4978 42.9344L94.4978 74.7113L134.499 74.7113H174.5L174.5 114.711V154.711L174.5 194.488L174.5 194.711V234.488L174.5 234.488V194.711V194.488V154.711V114.711V74.7113L214.501 74.7113V74.8228L254.502 74.8229L254.502 114.823L254.502 154.823V194.823V234.6L254.502 234.823V274.6L214.501 274.6L214.501 274.488H174.5H134.499L94.4978 274.488L54.4969 274.488ZM174.5 74.7108L134.499 74.7108L134.499 42.7109C134.499 38.2926 138.081 34.7109 142.499 34.7109L174.5 34.7109L174.5 74.7108ZM254.502 74.8228V114.823V154.823V194.823V234.6V234.823V274.6L294.503 274.6L322.504 274.6C329.132 274.6 334.504 269.227 334.504 262.6V234.823V234.6V194.823V154.823V114.823V86.8229C334.504 80.1954 329.132 74.8229 322.504 74.8229H294.503L254.502 74.8228ZM294.3 74.0492L254.299 74.0492V42.8229C254.299 38.4046 257.881 34.8229 262.299 34.8229L286.3 34.8229C290.718 34.8229 294.3 38.4046 294.3 42.8229V74.0492Z" fill="white"/>
</g>
</g>
<defs>
<filter id="filter0_d_348_1041" x="0" y="0.7099" width="349" height="293.587" filterUnits="userSpaceOnUse" color-interpolation-filters="sRGB">
<feFlood flood-opacity="0" result="BackgroundImageFix"/>
<feColorMatrix in="SourceAlpha" type="matrix" values="0 0 0 0 0 0 0 0 0 0 0 0 0 0 0 0 0 0 127 0" result="hardAlpha"/>
<feOffset dy="4"/>
<feGaussianBlur stdDeviation="2"/>
<feComposite in2="hardAlpha" operator="out"/>
<feColorMatrix type="matrix" values="0 0 0 0 0 0 0 0 0 0 0 0 0 0 0 0 0 0 0.25 0"/>
<feBlend mode="normal" in2="BackgroundImageFix" result="effect1_dropShadow_348_1041"/>
<feBlend mode="normal" in="SourceGraphic" in2="effect1_dropShadow_348_1041" result="shape"/>
</filter>
<filter id="filter1_i_348_1041" x="14.4958" y="33.7675" width="321.008" height="243.521" filterUnits="userSpaceOnUse" color-interpolation-filters="sRGB">
<feFlood flood-opacity="0" result="BackgroundImageFix"/>
<feBlend mode="normal" in="SourceGraphic" in2="BackgroundImageFix" result="shape"/>
<feColorMatrix in="SourceAlpha" type="matrix" values="0 0 0 0 0 0 0 0 0 0 0 0 0 0 0 0 0 0 127 0" result="hardAlpha"/>
<feOffset dx="1" dy="4"/>
<feGaussianBlur stdDeviation="1"/>
<feComposite in2="hardAlpha" operator="arithmetic" k2="-1" k3="1"/>
<feColorMatrix type="matrix" values="0 0 0 0 0 0 0 0 0 0 0 0 0 0 0 0 0 0 0.05 0"/>
<feBlend mode="normal" in2="shape" result="effect1_innerShadow_348_1041"/>
</filter>
<filter id="filter2_i_348_1041" x="4" y="-1.2901" width="341" height="287.587" filterUnits="userSpaceOnUse" color-interpolation-filters="sRGB">
<feFlood flood-opacity="0" result="BackgroundImageFix"/>
<feBlend mode="normal" in="SourceGraphic" in2="BackgroundImageFix" result="shape"/>
<feColorMatrix in="SourceAlpha" type="matrix" values="0 0 0 0 0 0 0 0 0 0 0 0 0 0 0 0 0 0 127 0" result="hardAlpha"/>
<feOffset dy="-2"/>
<feGaussianBlur stdDeviation="1.5"/>
<feComposite in2="hardAlpha" operator="arithmetic" k2="-1" k3="1"/>
<feColorMatrix type="matrix" values="0 0 0 0 0 0 0 0 0 0 0 0 0 0 0 0 0 0 0.15 0"/>
<feBlend mode="normal" in2="shape" result="effect1_innerShadow_348_1041"/>
</filter>
</defs>
</svg>
