<svg width="345" height="299" viewBox="0 0 345 299" fill="none" xmlns="http://www.w3.org/2000/svg">
<g clip-path="url(#clip0_2025_19)">
<path d="M-2.00342 290.541L164.026 291.497L164.712 172.354L94.3356 174.831L54.0978 217.838L28.2989 214.807L37.1366 174.502L-1.31698 171.398L-2.00342 290.541Z" fill="#342D39"/>
<path d="M204 0H344V296.3H204L249 174.677L319.5 171.674L335.5 153.155L319.5 125.127H249L204 0Z" fill="#342D39"/>
<path d="M-0.00219727 0.448013H163.998V124.448L94.4978 121.448L54.9978 76.448L29.4978 79.448L37.9978 121.448L-0.00219727 124.448V0.448013Z" fill="#342D39"/>
<rect x="-58" y="-25" width="502" height="33" fill="#342D39"/>
<rect x="-66" y="291" width="502" height="23" fill="#342D39"/>
<g filter="url(#filter0_i_2025_19)">
<path fill-rule="evenodd" clip-rule="evenodd" d="M203.438 296H163.481C161.273 296 159.483 294.211 159.481 292.002L159.47 272.685H149.733C146.419 272.685 143.733 269.999 143.733 266.685V257.909C143.733 254.595 146.419 251.909 149.733 251.909H159.459L159.455 245.059H149.733C146.419 245.059 143.733 242.372 143.733 239.059V230.283C143.733 226.969 146.419 224.283 149.733 224.283H159.443L159.419 182.245C159.418 180.037 157.627 178.247 155.419 178.247H97.4803C95.2589 178.247 93.1376 179.171 91.6242 180.797L56.3983 218.645C55.6416 219.458 54.5809 219.92 53.4703 219.92H26.4813C23.69 219.92 21.7569 217.133 22.7347 214.519L35.2895 180.948C35.7784 179.641 34.8119 178.247 33.4162 178.247H8C3.58172 178.247 0 174.666 0 170.247V128.145C0 123.727 3.58172 120.145 8 120.145H33.4778C34.8562 120.145 35.8214 118.783 35.3649 117.483L22.584 81.0732C21.6708 78.4718 23.6012 75.7483 26.3582 75.7483H54.3945C55.5491 75.7483 56.6473 76.2471 57.4069 77.1166L92.6061 117.408C94.1253 119.147 96.3217 120.145 98.6309 120.145H155.481C157.691 120.145 159.483 118.353 159.481 116.143L159.459 76.8917H149.733C146.419 76.8917 143.733 74.2054 143.733 70.8917V62.1154C143.733 58.8017 146.419 56.1154 149.733 56.1154L159.447 56.1154L159.443 49.7286H149.733C146.419 49.7286 143.733 47.0423 143.733 43.7286V34.9524C143.733 31.6387 146.419 28.9524 149.733 28.9524L159.431 28.9524L159.417 4.32816C159.417 1.93779 161.343 0 163.719 0L201.468 7.69447e-06C203.051 8.01725e-06 204.485 0.934132 205.126 2.38236L231.924 62.987H247.321C253.948 62.987 259.321 68.3596 259.321 74.987V91.178C259.321 97.0232 255.13 101.89 249.59 102.937L256.145 117.763C256.786 119.211 258.22 120.145 259.804 120.145H308.33C323.846 120.145 337.767 129.681 343.371 144.15C344.168 146.209 344.206 148.509 343.494 150.599C337.906 166.998 322.425 178.247 305.1 178.247H259.823C258.229 178.247 256.788 179.193 256.154 180.654L250.007 194.807C255.339 196.015 259.321 200.782 259.321 206.48V222.671C259.321 229.298 253.948 234.671 247.321 234.671H232.695L207.107 293.593C206.472 295.055 205.031 296 203.438 296ZM196.335 287.845H173.69C171.497 287.845 169.713 286.079 169.69 283.886L168.489 168.669H88.14L50.6714 212.235C49.9115 213.119 48.8041 213.627 47.6387 213.627H37.9409C35.1862 213.627 33.256 210.908 34.1649 208.307L48.2997 167.868H16.754C12.2564 167.868 8.64268 164.161 8.75652 159.665L9.35111 136.182C9.46094 131.844 13.0091 128.384 17.3485 128.384H48.2997L34.2407 89.4555C33.2991 86.8482 35.2308 84.0968 38.0029 84.0968H47.6488C48.8083 84.0968 49.9108 84.6 50.6706 85.476L88.14 128.678H168.489L169.669 13.4355C169.669 11.2253 171.578 8.94598 173.776 8.94598L193.563 8.94599C195.164 8.94599 196.612 9.90174 197.241 11.375L247.275 128.529H306.608C316.939 128.529 325.314 136.904 325.314 147.235C325.314 159.068 315.722 168.661 303.888 168.661H247.275L200.043 285.345C199.432 286.856 197.965 287.845 196.335 287.845Z" fill="white"/>
</g>
</g>
<defs>
<filter id="filter0_i_2025_19" x="0" y="-2" width="344" height="298" filterUnits="userSpaceOnUse" color-interpolation-filters="sRGB">
<feFlood flood-opacity="0" result="BackgroundImageFix"/>
<feBlend mode="normal" in="SourceGraphic" in2="BackgroundImageFix" result="shape"/>
<feColorMatrix in="SourceAlpha" type="matrix" values="0 0 0 0 0 0 0 0 0 0 0 0 0 0 0 0 0 0 127 0" result="hardAlpha"/>
<feOffset dy="-2"/>
<feGaussianBlur stdDeviation="1.5"/>
<feComposite in2="hardAlpha" operator="arithmetic" k2="-1" k3="1"/>
<feColorMatrix type="matrix" values="0 0 0 0 0 0 0 0 0 0 0 0 0 0 0 0 0 0 0.1 0"/>
<feBlend mode="normal" in2="shape" result="effect1_innerShadow_2025_19"/>
</filter>
<clipPath id="clip0_2025_19">
<rect width="344.309" height="298.015" fill="white"/>
</clipPath>
</defs>
</svg>
