<svg width="345" height="297" viewBox="0 0 345 297" fill="none" xmlns="http://www.w3.org/2000/svg">
<g filter="url(#filter0_i_351_2)">
<path fill-rule="evenodd" clip-rule="evenodd" d="M203.978 296.655H164.021C161.813 296.655 160.023 294.866 160.021 292.658L160.01 273.341H154.661C148.923 273.341 144.272 268.69 144.272 262.952C144.272 257.215 148.923 252.564 154.661 252.564H159.998L159.994 245.714H154.661C148.923 245.714 144.272 241.063 144.272 235.326C144.272 229.589 148.923 224.938 154.661 224.938H159.983L159.959 182.9C159.957 180.692 158.167 178.903 155.959 178.903H98.0201C95.7987 178.903 93.6774 179.826 92.164 181.452L56.9381 219.3C56.1814 220.113 55.1207 220.575 54.0101 220.575H27.0211C24.2298 220.575 22.2967 217.788 23.2745 215.174L35.8293 181.603C36.3182 180.296 35.3517 178.903 33.956 178.903H8.5398C4.12152 178.903 0.539795 175.321 0.539795 170.903V128.8C0.539795 124.382 4.12152 120.8 8.5398 120.8H34.0176C35.396 120.8 36.3612 119.438 35.9047 118.138L23.1238 81.7284C22.2106 79.1271 24.141 76.4035 26.898 76.4035H54.9343C56.0889 76.4035 57.1871 76.9024 57.9467 77.7719L93.1459 118.064C94.6651 119.803 96.8615 120.8 99.1706 120.8H156.021C158.231 120.8 160.023 119.008 160.021 116.798L159.998 77.5469H154.661C148.923 77.5469 144.272 72.896 144.272 67.1588C144.272 61.4216 148.923 56.7707 154.661 56.7707H159.986L159.983 50.3839H154.661C148.923 50.3839 144.272 45.733 144.272 39.9958C144.272 34.2586 148.923 29.6077 154.661 29.6077H159.971L159.956 4.98343C159.956 2.59306 161.883 0.655273 164.259 0.655273L202.007 0.655281C203.591 0.655281 205.025 1.58941 205.666 3.03763L232.464 63.6423H247.86C254.488 63.6423 259.861 69.0148 259.861 75.6423V91.8333C259.861 97.6785 255.67 102.545 250.129 103.592L256.685 118.418C257.325 119.866 258.76 120.8 260.343 120.8H308.87C324.386 120.8 338.306 130.337 343.91 144.805C344.708 146.864 344.746 149.165 344.033 151.255C338.446 167.654 322.965 178.903 305.64 178.903H260.362C258.769 178.903 257.328 179.848 256.693 181.309L250.547 195.463C255.879 196.67 259.861 201.437 259.861 207.135V223.326C259.861 229.953 254.488 235.326 247.86 235.326H233.235L207.647 294.249C207.012 295.71 205.571 296.655 203.978 296.655ZM196.875 288.5H174.23C172.037 288.5 170.253 286.734 170.23 284.542L169.029 169.324H88.6798L51.2112 212.891C50.4513 213.774 49.3439 214.282 48.1785 214.282H38.4807C35.726 214.282 33.7958 211.563 34.7047 208.963L48.8395 168.523H17.2938C12.7962 168.523 9.18247 164.817 9.29632 160.32L9.8909 136.837C10.0007 132.499 13.5489 129.04 17.8883 129.04H48.8395L34.7805 90.1107C33.8389 87.5034 35.7706 84.7521 38.5427 84.7521H48.1886C49.3481 84.7521 50.4506 85.2552 51.2104 86.1312L88.6798 129.333H169.029L170.209 14.0908C170.209 11.8806 172.118 9.60126 174.316 9.60126L194.102 9.60126C195.704 9.60126 197.152 10.557 197.781 12.0302L247.815 129.184H307.148C317.479 129.184 325.854 137.559 325.854 147.891C325.854 159.724 316.261 169.316 304.428 169.316H247.815L200.583 286.001C199.972 287.511 198.505 288.5 196.875 288.5Z" fill="white"/>
</g>
<defs>
<filter id="filter0_i_351_2" x="0.539795" y="-1.34473" width="344" height="298" filterUnits="userSpaceOnUse" color-interpolation-filters="sRGB">
<feFlood flood-opacity="0" result="BackgroundImageFix"/>
<feBlend mode="normal" in="SourceGraphic" in2="BackgroundImageFix" result="shape"/>
<feColorMatrix in="SourceAlpha" type="matrix" values="0 0 0 0 0 0 0 0 0 0 0 0 0 0 0 0 0 0 127 0" result="hardAlpha"/>
<feOffset dy="-2"/>
<feGaussianBlur stdDeviation="1.5"/>
<feComposite in2="hardAlpha" operator="arithmetic" k2="-1" k3="1"/>
<feColorMatrix type="matrix" values="0 0 0 0 0 0 0 0 0 0 0 0 0 0 0 0 0 0 0.1 0"/>
<feBlend mode="normal" in2="shape" result="effect1_innerShadow_351_2"/>
</filter>
</defs>
</svg>
