<svg width="344" height="302" viewBox="0 0 344 302" fill="none" xmlns="http://www.w3.org/2000/svg">
<path d="M199 300H343.35V148L321.798 172.581L257.141 177.096L199 300Z" fill="#342D39"/>
<path d="M199 0H343.35V152L321.798 127.419L257.141 122.904L199 0Z" fill="#342D39"/>
<path d="M0 0H164V126.738L95 125.341L53 85.2688L24 83.405L39 123.943L0 130V0Z" fill="#342D39"/>
<path d="M1.05928 301.332L165.054 299.996L164.021 173.262L95.0348 175.222L53.3627 215.634L24.3789 217.734L39.0481 177.076L1.87412e-05 171.336L1.05928 301.332Z" fill="#342D39"/>
<g filter="url(#filter0_i_2001_19)">
<path fill-rule="evenodd" clip-rule="evenodd" d="M163.204 300H202.352C203.957 300 205.407 299.04 206.034 297.562L232.211 235.846H249.17C255.798 235.846 261.17 230.473 261.17 223.846V207.687C261.17 201.085 255.838 195.728 249.245 195.688L255.713 180.438C256.34 178.96 257.79 178 259.395 178H307.147C322.992 178 337.175 168.175 342.745 153.342C343.554 151.187 343.554 148.813 342.745 146.658C337.175 131.825 322.992 122 307.147 122H259.395C257.79 122 256.34 121.04 255.713 119.562L249.248 104.321C255.84 104.279 261.17 98.9221 261.17 92.3208V76.1622C261.17 69.5348 255.798 64.1622 249.17 64.1622H232.215L206.034 2.43808C205.407 0.959999 203.957 1.02095e-05 202.352 9.19163e-06L163.2 0C160.991 7.59778e-06 159.2 1.79087 159.2 4C159.2 12.7413 159.199 21.4825 159.197 30.2238H154.254C148.517 30.2238 143.866 34.8747 143.866 40.6119C143.866 46.3491 148.517 51 154.254 51H159.194L159.193 59.6119H154.254C148.517 59.6119 143.866 64.2628 143.866 70C143.866 75.7372 148.517 80.3881 154.254 80.3881H159.192C159.193 92.9246 159.195 105.461 159.202 117.998C159.203 120.208 157.411 122 155.201 122H98.3857C96.122 122 93.9644 121.041 92.4475 119.361L55.1913 78.0915C54.4329 77.2514 53.354 76.7719 52.2222 76.7719H25.6858C22.9169 76.7719 20.9855 79.5173 21.921 82.1234L35.2752 119.324C35.743 120.627 34.7773 122 33.3928 122H8C3.58172 122 0 125.582 0 130V170C0 174.418 3.58173 178 8 178H33.3856C34.7721 178 35.7379 179.376 35.2664 180.68L21.9387 217.531C20.9956 220.139 22.9273 222.892 25.7002 222.892H52.2311C53.3577 222.892 54.4321 222.416 55.1902 221.583L92.4496 180.617C93.9657 178.95 96.1145 178 98.3678 178H155.2C157.409 178 159.2 179.791 159.2 182L159.201 219.612H154.254C148.517 219.612 143.866 224.263 143.866 230C143.866 235.737 148.517 240.388 154.254 240.388H159.202L159.202 249.224H154.254C148.517 249.224 143.866 253.875 143.866 259.612C143.866 265.349 148.517 270 154.254 270H159.203L159.204 296C159.204 298.209 160.995 300 163.204 300ZM197.317 290H172.053C169.843 290 168.053 288.209 168.053 286L168.06 169.998H88.0302L49.6572 213.603C48.8975 214.478 47.7962 214.98 46.638 214.98H36.8283C34.037 214.98 32.104 212.193 33.0816 209.579L48.0875 169.998H16C11.5817 169.998 7.99998 166.416 7.99998 161.998L7.99998 137.998C7.99998 133.58 11.5817 129.998 16 129.998H48.0875L33.152 90.3731C32.1446 87.7532 34.0786 84.9376 36.8855 84.9376H46.6713C47.8102 84.9376 48.8951 85.4231 49.6539 86.2724L88.0302 129.998H168.06L168.053 18C168.053 13.5818 171.634 10 176.053 10L194.513 10C196.117 10 197.566 10.9638 198.194 12.44L248.004 129.998L308.893 130C319.445 130 328 139.447 328 150C328 161.193 320.085 169.868 308.893 169.998H248.004L201.03 287.49C200.422 289.008 198.952 290 197.317 290Z" fill="white"/>
</g>
<defs>
<filter id="filter0_i_2001_19" x="0" y="-2" width="343.352" height="302" filterUnits="userSpaceOnUse" color-interpolation-filters="sRGB">
<feFlood flood-opacity="0" result="BackgroundImageFix"/>
<feBlend mode="normal" in="SourceGraphic" in2="BackgroundImageFix" result="shape"/>
<feColorMatrix in="SourceAlpha" type="matrix" values="0 0 0 0 0 0 0 0 0 0 0 0 0 0 0 0 0 0 127 0" result="hardAlpha"/>
<feOffset dy="-2"/>
<feGaussianBlur stdDeviation="1.5"/>
<feComposite in2="hardAlpha" operator="arithmetic" k2="-1" k3="1"/>
<feColorMatrix type="matrix" values="0 0 0 0 0 0 0 0 0 0 0 0 0 0 0 0 0 0 0.1 0"/>
<feBlend mode="normal" in2="shape" result="effect1_innerShadow_2001_19"/>
</filter>
</defs>
</svg>
