<svg width="180" height="65" viewBox="0 0 180 65" fill="none" xmlns="http://www.w3.org/2000/svg">
<g filter="url(#filter0_d_327_4457)">
<path d="M0 0.42627H30.0009V30.4268H0V0.42627Z" fill="#C1FF05"/>
<path d="M29.9999 0.42627H60.0007V30.4268H29.9999V0.42627Z" fill="#C1FF05"/>
<path d="M59.9998 0.42627H90.0006V30.4268H59.9998V0.42627Z" fill="#C1FF05"/>
<path d="M89.9995 0.42627H120V30.4268H89.9995V0.42627Z" fill="#C1FF05"/>
<path d="M119.999 0.42627H150V30.4268H119.999V0.42627Z" fill="#C1FF05"/>
<path d="M149.999 0.42627H164C172.837 0.42627 180 7.58971 180 16.4263V30.4268H149.999V0.42627Z" fill="#C1FF05"/>
<path d="M0 30.4258H30.0009V60.4263H0V30.4258Z" fill="#C1FF05"/>
<path d="M29.9999 30.4258H60.0007V60.4263H29.9999V30.4258Z" fill="#C1FF05"/>
<path d="M59.9998 30.4258H90.0006V60.4263H59.9998V30.4258Z" fill="#C1FF05"/>
<path d="M89.9995 30.4258H120V60.4263H89.9995V30.4258Z" fill="#C1FF05"/>
<path d="M119.999 30.4258H150V60.4263H119.999V30.4258Z" fill="#C1FF05"/>
<path d="M149.999 30.4258H180V60.4263H149.999V30.4258Z" fill="#C1FF05"/>
<g filter="url(#filter1_d_327_4457)">
<ellipse cx="15.0005" cy="15.4265" rx="7.5" ry="7.49991" fill="#D6FF5A"/>
<path d="M22.0005 15.4265C22.0005 19.2925 18.8665 22.4264 15.0005 22.4264C11.1345 22.4264 8.00049 19.2925 8.00049 15.4265C8.00049 11.5606 11.1345 8.42662 15.0005 8.42662C18.8665 8.42662 22.0005 11.5606 22.0005 15.4265Z" stroke="url(#paint0_linear_327_4457)"/>
</g>
<g filter="url(#filter2_d_327_4457)">
<ellipse cx="15.0005" cy="45.426" rx="7.5" ry="7.49991" fill="#D6FF5A"/>
<path d="M22.0005 45.426C22.0005 49.2919 18.8665 52.4259 15.0005 52.4259C11.1345 52.4259 8.00049 49.2919 8.00049 45.426C8.00049 41.5601 11.1345 38.4261 15.0005 38.4261C18.8665 38.4261 22.0005 41.5601 22.0005 45.426Z" stroke="url(#paint1_linear_327_4457)"/>
</g>
<g filter="url(#filter3_d_327_4457)">
<ellipse cx="45.0004" cy="15.4265" rx="7.5" ry="7.49991" fill="#D6FF5A"/>
<path d="M52.0004 15.4265C52.0004 19.2925 48.8664 22.4264 45.0004 22.4264C41.1344 22.4264 38.0004 19.2925 38.0004 15.4265C38.0004 11.5606 41.1344 8.42661 45.0004 8.42661C48.8664 8.42661 52.0004 11.5606 52.0004 15.4265Z" stroke="url(#paint2_linear_327_4457)"/>
</g>
<g filter="url(#filter4_d_327_4457)">
<ellipse cx="45.0004" cy="45.426" rx="7.5" ry="7.49991" fill="#D6FF5A"/>
<path d="M52.0004 45.426C52.0004 49.2919 48.8664 52.4259 45.0004 52.4259C41.1344 52.4259 38.0004 49.2919 38.0004 45.426C38.0004 41.5601 41.1344 38.4261 45.0004 38.4261C48.8664 38.4261 52.0004 41.5601 52.0004 45.426Z" stroke="url(#paint3_linear_327_4457)"/>
</g>
<g filter="url(#filter5_d_327_4457)">
<ellipse cx="75.0002" cy="15.4265" rx="7.5" ry="7.49991" fill="#D6FF5A"/>
<path d="M82.0002 15.4265C82.0002 19.2925 78.8662 22.4264 75.0002 22.4264C71.1342 22.4264 68.0002 19.2925 68.0002 15.4265C68.0002 11.5606 71.1342 8.42661 75.0002 8.42661C78.8662 8.42661 82.0002 11.5606 82.0002 15.4265Z" stroke="url(#paint4_linear_327_4457)"/>
</g>
<g filter="url(#filter6_d_327_4457)">
<ellipse cx="75.0002" cy="45.426" rx="7.5" ry="7.49991" fill="#D6FF5A"/>
<path d="M82.0002 45.426C82.0002 49.2919 78.8662 52.4259 75.0002 52.4259C71.1342 52.4259 68.0002 49.2919 68.0002 45.426C68.0002 41.5601 71.1342 38.4261 75.0002 38.4261C78.8662 38.4261 82.0002 41.5601 82.0002 45.426Z" stroke="url(#paint5_linear_327_4457)"/>
</g>
<g filter="url(#filter7_d_327_4457)">
<ellipse cx="105" cy="15.4265" rx="7.5" ry="7.49991" fill="#D6FF5A"/>
<path d="M112 15.4265C112 19.2925 108.866 22.4264 105 22.4264C101.134 22.4264 98 19.2925 98 15.4265C98 11.5606 101.134 8.42661 105 8.42661C108.866 8.42661 112 11.5606 112 15.4265Z" stroke="url(#paint6_linear_327_4457)"/>
</g>
<g filter="url(#filter8_d_327_4457)">
<ellipse cx="105" cy="45.426" rx="7.5" ry="7.49991" fill="#D6FF5A"/>
<path d="M112 45.426C112 49.2919 108.866 52.4259 105 52.4259C101.134 52.4259 98 49.2919 98 45.426C98 41.5601 101.134 38.4261 105 38.4261C108.866 38.4261 112 41.5601 112 45.426Z" stroke="url(#paint7_linear_327_4457)"/>
</g>
<g filter="url(#filter9_d_327_4457)">
<ellipse cx="135" cy="15.4265" rx="7.5" ry="7.49991" fill="#D6FF5A"/>
<path d="M142 15.4265C142 19.2925 138.866 22.4264 135 22.4264C131.134 22.4264 128 19.2925 128 15.4265C128 11.5606 131.134 8.42661 135 8.42661C138.866 8.42661 142 11.5606 142 15.4265Z" stroke="url(#paint8_linear_327_4457)"/>
</g>
<g filter="url(#filter10_d_327_4457)">
<ellipse cx="135" cy="45.426" rx="7.5" ry="7.49991" fill="#D6FF5A"/>
<path d="M142 45.426C142 49.2919 138.866 52.4259 135 52.4259C131.134 52.4259 128 49.2919 128 45.426C128 41.5601 131.134 38.4261 135 38.4261C138.866 38.4261 142 41.5601 142 45.426Z" stroke="url(#paint9_linear_327_4457)"/>
</g>
<g filter="url(#filter11_d_327_4457)">
<ellipse cx="165" cy="15.4265" rx="7.5" ry="7.49991" fill="#D6FF5A"/>
<path d="M172 15.4265C172 19.2925 168.866 22.4264 165 22.4264C161.134 22.4264 158 19.2925 158 15.4265C158 11.5606 161.134 8.42661 165 8.42661C168.866 8.42661 172 11.5606 172 15.4265Z" stroke="url(#paint10_linear_327_4457)"/>
</g>
<g filter="url(#filter12_d_327_4457)">
<ellipse cx="165" cy="45.426" rx="7.5" ry="7.49991" fill="#D6FF5A"/>
<path d="M172 45.426C172 49.2919 168.866 52.4259 165 52.4259C161.134 52.4259 158 49.2919 158 45.426C158 41.5601 161.134 38.4261 165 38.4261C168.866 38.4261 172 41.5601 172 45.426Z" stroke="url(#paint11_linear_327_4457)"/>
</g>
</g>
<defs>
<filter id="filter0_d_327_4457" x="0" y="0.42627" width="180" height="64" filterUnits="userSpaceOnUse" color-interpolation-filters="sRGB">
<feFlood flood-opacity="0" result="BackgroundImageFix"/>
<feColorMatrix in="SourceAlpha" type="matrix" values="0 0 0 0 0 0 0 0 0 0 0 0 0 0 0 0 0 0 127 0" result="hardAlpha"/>
<feOffset dy="4"/>
<feComposite in2="hardAlpha" operator="out"/>
<feColorMatrix type="matrix" values="0 0 0 0 0.591155 0 0 0 0 0.737402 0 0 0 0 0.147697 0 0 0 1 0"/>
<feBlend mode="normal" in2="BackgroundImageFix" result="effect1_dropShadow_327_4457"/>
<feBlend mode="normal" in="SourceGraphic" in2="effect1_dropShadow_327_4457" result="shape"/>
</filter>
<filter id="filter1_d_327_4457" x="7.50049" y="7.92662" width="16" height="16.9998" filterUnits="userSpaceOnUse" color-interpolation-filters="sRGB">
<feFlood flood-opacity="0" result="BackgroundImageFix"/>
<feColorMatrix in="SourceAlpha" type="matrix" values="0 0 0 0 0 0 0 0 0 0 0 0 0 0 0 0 0 0 127 0" result="hardAlpha"/>
<feOffset dx="1" dy="2"/>
<feComposite in2="hardAlpha" operator="out"/>
<feColorMatrix type="matrix" values="0 0 0 0 0 0 0 0 0 0 0 0 0 0 0 0 0 0 0.25 0"/>
<feBlend mode="normal" in2="BackgroundImageFix" result="effect1_dropShadow_327_4457"/>
<feBlend mode="normal" in="SourceGraphic" in2="effect1_dropShadow_327_4457" result="shape"/>
</filter>
<filter id="filter2_d_327_4457" x="7.50049" y="37.9261" width="16" height="16.9998" filterUnits="userSpaceOnUse" color-interpolation-filters="sRGB">
<feFlood flood-opacity="0" result="BackgroundImageFix"/>
<feColorMatrix in="SourceAlpha" type="matrix" values="0 0 0 0 0 0 0 0 0 0 0 0 0 0 0 0 0 0 127 0" result="hardAlpha"/>
<feOffset dx="1" dy="2"/>
<feComposite in2="hardAlpha" operator="out"/>
<feColorMatrix type="matrix" values="0 0 0 0 0 0 0 0 0 0 0 0 0 0 0 0 0 0 0.25 0"/>
<feBlend mode="normal" in2="BackgroundImageFix" result="effect1_dropShadow_327_4457"/>
<feBlend mode="normal" in="SourceGraphic" in2="effect1_dropShadow_327_4457" result="shape"/>
</filter>
<filter id="filter3_d_327_4457" x="37.5004" y="7.92661" width="16" height="16.9998" filterUnits="userSpaceOnUse" color-interpolation-filters="sRGB">
<feFlood flood-opacity="0" result="BackgroundImageFix"/>
<feColorMatrix in="SourceAlpha" type="matrix" values="0 0 0 0 0 0 0 0 0 0 0 0 0 0 0 0 0 0 127 0" result="hardAlpha"/>
<feOffset dx="1" dy="2"/>
<feComposite in2="hardAlpha" operator="out"/>
<feColorMatrix type="matrix" values="0 0 0 0 0 0 0 0 0 0 0 0 0 0 0 0 0 0 0.25 0"/>
<feBlend mode="normal" in2="BackgroundImageFix" result="effect1_dropShadow_327_4457"/>
<feBlend mode="normal" in="SourceGraphic" in2="effect1_dropShadow_327_4457" result="shape"/>
</filter>
<filter id="filter4_d_327_4457" x="37.5004" y="37.9261" width="16" height="16.9998" filterUnits="userSpaceOnUse" color-interpolation-filters="sRGB">
<feFlood flood-opacity="0" result="BackgroundImageFix"/>
<feColorMatrix in="SourceAlpha" type="matrix" values="0 0 0 0 0 0 0 0 0 0 0 0 0 0 0 0 0 0 127 0" result="hardAlpha"/>
<feOffset dx="1" dy="2"/>
<feComposite in2="hardAlpha" operator="out"/>
<feColorMatrix type="matrix" values="0 0 0 0 0 0 0 0 0 0 0 0 0 0 0 0 0 0 0.25 0"/>
<feBlend mode="normal" in2="BackgroundImageFix" result="effect1_dropShadow_327_4457"/>
<feBlend mode="normal" in="SourceGraphic" in2="effect1_dropShadow_327_4457" result="shape"/>
</filter>
<filter id="filter5_d_327_4457" x="67.5002" y="7.92661" width="16" height="16.9998" filterUnits="userSpaceOnUse" color-interpolation-filters="sRGB">
<feFlood flood-opacity="0" result="BackgroundImageFix"/>
<feColorMatrix in="SourceAlpha" type="matrix" values="0 0 0 0 0 0 0 0 0 0 0 0 0 0 0 0 0 0 127 0" result="hardAlpha"/>
<feOffset dx="1" dy="2"/>
<feComposite in2="hardAlpha" operator="out"/>
<feColorMatrix type="matrix" values="0 0 0 0 0 0 0 0 0 0 0 0 0 0 0 0 0 0 0.25 0"/>
<feBlend mode="normal" in2="BackgroundImageFix" result="effect1_dropShadow_327_4457"/>
<feBlend mode="normal" in="SourceGraphic" in2="effect1_dropShadow_327_4457" result="shape"/>
</filter>
<filter id="filter6_d_327_4457" x="67.5002" y="37.9261" width="16" height="16.9998" filterUnits="userSpaceOnUse" color-interpolation-filters="sRGB">
<feFlood flood-opacity="0" result="BackgroundImageFix"/>
<feColorMatrix in="SourceAlpha" type="matrix" values="0 0 0 0 0 0 0 0 0 0 0 0 0 0 0 0 0 0 127 0" result="hardAlpha"/>
<feOffset dx="1" dy="2"/>
<feComposite in2="hardAlpha" operator="out"/>
<feColorMatrix type="matrix" values="0 0 0 0 0 0 0 0 0 0 0 0 0 0 0 0 0 0 0.25 0"/>
<feBlend mode="normal" in2="BackgroundImageFix" result="effect1_dropShadow_327_4457"/>
<feBlend mode="normal" in="SourceGraphic" in2="effect1_dropShadow_327_4457" result="shape"/>
</filter>
<filter id="filter7_d_327_4457" x="97.5" y="7.92661" width="16" height="16.9998" filterUnits="userSpaceOnUse" color-interpolation-filters="sRGB">
<feFlood flood-opacity="0" result="BackgroundImageFix"/>
<feColorMatrix in="SourceAlpha" type="matrix" values="0 0 0 0 0 0 0 0 0 0 0 0 0 0 0 0 0 0 127 0" result="hardAlpha"/>
<feOffset dx="1" dy="2"/>
<feComposite in2="hardAlpha" operator="out"/>
<feColorMatrix type="matrix" values="0 0 0 0 0 0 0 0 0 0 0 0 0 0 0 0 0 0 0.25 0"/>
<feBlend mode="normal" in2="BackgroundImageFix" result="effect1_dropShadow_327_4457"/>
<feBlend mode="normal" in="SourceGraphic" in2="effect1_dropShadow_327_4457" result="shape"/>
</filter>
<filter id="filter8_d_327_4457" x="97.5" y="37.9261" width="16" height="16.9998" filterUnits="userSpaceOnUse" color-interpolation-filters="sRGB">
<feFlood flood-opacity="0" result="BackgroundImageFix"/>
<feColorMatrix in="SourceAlpha" type="matrix" values="0 0 0 0 0 0 0 0 0 0 0 0 0 0 0 0 0 0 127 0" result="hardAlpha"/>
<feOffset dx="1" dy="2"/>
<feComposite in2="hardAlpha" operator="out"/>
<feColorMatrix type="matrix" values="0 0 0 0 0 0 0 0 0 0 0 0 0 0 0 0 0 0 0.25 0"/>
<feBlend mode="normal" in2="BackgroundImageFix" result="effect1_dropShadow_327_4457"/>
<feBlend mode="normal" in="SourceGraphic" in2="effect1_dropShadow_327_4457" result="shape"/>
</filter>
<filter id="filter9_d_327_4457" x="127.5" y="7.92661" width="16" height="16.9998" filterUnits="userSpaceOnUse" color-interpolation-filters="sRGB">
<feFlood flood-opacity="0" result="BackgroundImageFix"/>
<feColorMatrix in="SourceAlpha" type="matrix" values="0 0 0 0 0 0 0 0 0 0 0 0 0 0 0 0 0 0 127 0" result="hardAlpha"/>
<feOffset dx="1" dy="2"/>
<feComposite in2="hardAlpha" operator="out"/>
<feColorMatrix type="matrix" values="0 0 0 0 0 0 0 0 0 0 0 0 0 0 0 0 0 0 0.25 0"/>
<feBlend mode="normal" in2="BackgroundImageFix" result="effect1_dropShadow_327_4457"/>
<feBlend mode="normal" in="SourceGraphic" in2="effect1_dropShadow_327_4457" result="shape"/>
</filter>
<filter id="filter10_d_327_4457" x="127.5" y="37.9261" width="16" height="16.9998" filterUnits="userSpaceOnUse" color-interpolation-filters="sRGB">
<feFlood flood-opacity="0" result="BackgroundImageFix"/>
<feColorMatrix in="SourceAlpha" type="matrix" values="0 0 0 0 0 0 0 0 0 0 0 0 0 0 0 0 0 0 127 0" result="hardAlpha"/>
<feOffset dx="1" dy="2"/>
<feComposite in2="hardAlpha" operator="out"/>
<feColorMatrix type="matrix" values="0 0 0 0 0 0 0 0 0 0 0 0 0 0 0 0 0 0 0.25 0"/>
<feBlend mode="normal" in2="BackgroundImageFix" result="effect1_dropShadow_327_4457"/>
<feBlend mode="normal" in="SourceGraphic" in2="effect1_dropShadow_327_4457" result="shape"/>
</filter>
<filter id="filter11_d_327_4457" x="157.5" y="7.92661" width="16" height="16.9998" filterUnits="userSpaceOnUse" color-interpolation-filters="sRGB">
<feFlood flood-opacity="0" result="BackgroundImageFix"/>
<feColorMatrix in="SourceAlpha" type="matrix" values="0 0 0 0 0 0 0 0 0 0 0 0 0 0 0 0 0 0 127 0" result="hardAlpha"/>
<feOffset dx="1" dy="2"/>
<feComposite in2="hardAlpha" operator="out"/>
<feColorMatrix type="matrix" values="0 0 0 0 0 0 0 0 0 0 0 0 0 0 0 0 0 0 0.25 0"/>
<feBlend mode="normal" in2="BackgroundImageFix" result="effect1_dropShadow_327_4457"/>
<feBlend mode="normal" in="SourceGraphic" in2="effect1_dropShadow_327_4457" result="shape"/>
</filter>
<filter id="filter12_d_327_4457" x="157.5" y="37.9261" width="16" height="16.9998" filterUnits="userSpaceOnUse" color-interpolation-filters="sRGB">
<feFlood flood-opacity="0" result="BackgroundImageFix"/>
<feColorMatrix in="SourceAlpha" type="matrix" values="0 0 0 0 0 0 0 0 0 0 0 0 0 0 0 0 0 0 127 0" result="hardAlpha"/>
<feOffset dx="1" dy="2"/>
<feComposite in2="hardAlpha" operator="out"/>
<feColorMatrix type="matrix" values="0 0 0 0 0 0 0 0 0 0 0 0 0 0 0 0 0 0 0.25 0"/>
<feBlend mode="normal" in2="BackgroundImageFix" result="effect1_dropShadow_327_4457"/>
<feBlend mode="normal" in="SourceGraphic" in2="effect1_dropShadow_327_4457" result="shape"/>
</filter>
<linearGradient id="paint0_linear_327_4457" x1="15.0005" y1="7.92662" x2="15.0005" y2="22.9264" gradientUnits="userSpaceOnUse">
<stop offset="0.07" stop-color="white" stop-opacity="0.46"/>
<stop offset="0.385" stop-color="#C1FF05"/>
<stop offset="1" stop-color="#B7E52E"/>
</linearGradient>
<linearGradient id="paint1_linear_327_4457" x1="15.0005" y1="37.9261" x2="15.0005" y2="52.9259" gradientUnits="userSpaceOnUse">
<stop offset="0.07" stop-color="white" stop-opacity="0.46"/>
<stop offset="0.385" stop-color="#C1FF05"/>
<stop offset="1" stop-color="#B7E52E"/>
</linearGradient>
<linearGradient id="paint2_linear_327_4457" x1="45.0004" y1="7.92661" x2="45.0004" y2="22.9264" gradientUnits="userSpaceOnUse">
<stop offset="0.07" stop-color="white" stop-opacity="0.46"/>
<stop offset="0.385" stop-color="#C1FF05"/>
<stop offset="1" stop-color="#B7E52E"/>
</linearGradient>
<linearGradient id="paint3_linear_327_4457" x1="45.0004" y1="37.9261" x2="45.0004" y2="52.9259" gradientUnits="userSpaceOnUse">
<stop offset="0.07" stop-color="white" stop-opacity="0.46"/>
<stop offset="0.385" stop-color="#C1FF05"/>
<stop offset="1" stop-color="#B7E52E"/>
</linearGradient>
<linearGradient id="paint4_linear_327_4457" x1="75.0002" y1="7.92661" x2="75.0002" y2="22.9264" gradientUnits="userSpaceOnUse">
<stop offset="0.07" stop-color="white" stop-opacity="0.46"/>
<stop offset="0.385" stop-color="#C1FF05"/>
<stop offset="1" stop-color="#B7E52E"/>
</linearGradient>
<linearGradient id="paint5_linear_327_4457" x1="75.0002" y1="37.9261" x2="75.0002" y2="52.9259" gradientUnits="userSpaceOnUse">
<stop offset="0.07" stop-color="white" stop-opacity="0.46"/>
<stop offset="0.385" stop-color="#C1FF05"/>
<stop offset="1" stop-color="#B7E52E"/>
</linearGradient>
<linearGradient id="paint6_linear_327_4457" x1="105" y1="7.92661" x2="105" y2="22.9264" gradientUnits="userSpaceOnUse">
<stop offset="0.07" stop-color="white" stop-opacity="0.46"/>
<stop offset="0.385" stop-color="#C1FF05"/>
<stop offset="1" stop-color="#B7E52E"/>
</linearGradient>
<linearGradient id="paint7_linear_327_4457" x1="105" y1="37.9261" x2="105" y2="52.9259" gradientUnits="userSpaceOnUse">
<stop offset="0.07" stop-color="white" stop-opacity="0.46"/>
<stop offset="0.385" stop-color="#C1FF05"/>
<stop offset="1" stop-color="#B7E52E"/>
</linearGradient>
<linearGradient id="paint8_linear_327_4457" x1="135" y1="7.92661" x2="135" y2="22.9264" gradientUnits="userSpaceOnUse">
<stop offset="0.07" stop-color="white" stop-opacity="0.46"/>
<stop offset="0.385" stop-color="#C1FF05"/>
<stop offset="1" stop-color="#B7E52E"/>
</linearGradient>
<linearGradient id="paint9_linear_327_4457" x1="135" y1="37.9261" x2="135" y2="52.9259" gradientUnits="userSpaceOnUse">
<stop offset="0.07" stop-color="white" stop-opacity="0.46"/>
<stop offset="0.385" stop-color="#C1FF05"/>
<stop offset="1" stop-color="#B7E52E"/>
</linearGradient>
<linearGradient id="paint10_linear_327_4457" x1="165" y1="7.92661" x2="165" y2="22.9264" gradientUnits="userSpaceOnUse">
<stop offset="0.07" stop-color="white" stop-opacity="0.46"/>
<stop offset="0.385" stop-color="#C1FF05"/>
<stop offset="1" stop-color="#B7E52E"/>
</linearGradient>
<linearGradient id="paint11_linear_327_4457" x1="165" y1="37.9261" x2="165" y2="52.9259" gradientUnits="userSpaceOnUse">
<stop offset="0.07" stop-color="white" stop-opacity="0.46"/>
<stop offset="0.385" stop-color="#C1FF05"/>
<stop offset="1" stop-color="#B7E52E"/>
</linearGradient>
</defs>
</svg>
