<svg width="121" height="65" viewBox="0 0 121 65" fill="none" xmlns="http://www.w3.org/2000/svg">
<g filter="url(#filter0_d_327_4506)">
<rect x="120.413" y="60.4262" width="30.0007" height="30.0005" transform="rotate(-180 120.413 60.4262)" fill="#FF7D32"/>
<rect x="120.413" y="30.4268" width="30.0007" height="30.0005" transform="rotate(-180 120.413 30.4268)" fill="#FF7D32"/>
<rect x="60.4138" y="60.4263" width="30.0007" height="30.0005" transform="rotate(-180 60.4138 60.4263)" fill="#FF7D32"/>
<rect x="60.4138" y="30.4268" width="30.0007" height="30.0005" transform="rotate(-180 60.4138 30.4268)" fill="#FF7D32"/>
<rect x="30.4139" y="60.4263" width="30.0007" height="30.0005" transform="rotate(-180 30.4139 60.4263)" fill="#FF7D32"/>
<rect x="30.4139" y="30.4268" width="30.0007" height="30.0005" transform="rotate(-180 30.4139 30.4268)" fill="#FF7D32"/>
<rect x="90.4135" y="60.4262" width="30.0007" height="30.0005" transform="rotate(-180 90.4135 60.4262)" fill="#FF7D32"/>
<rect x="90.4135" y="30.4268" width="30.0007" height="30.0005" transform="rotate(-180 90.4135 30.4268)" fill="#FF7D32"/>
<g filter="url(#filter1_d_327_4506)">
<ellipse cx="75.4131" cy="45.426" rx="7.5" ry="7.49994" transform="rotate(-180 75.4131 45.426)" fill="#FE8742"/>
<path d="M68.4131 45.426C68.4131 41.56 71.5471 38.4261 75.4131 38.4261C79.2791 38.4261 82.4131 41.56 82.4131 45.426C82.4131 49.2919 79.2791 52.4259 75.4131 52.4259C71.5471 52.4259 68.4131 49.2919 68.4131 45.426Z" stroke="url(#paint0_linear_327_4506)"/>
</g>
<g filter="url(#filter2_d_327_4506)">
<ellipse cx="105.413" cy="45.426" rx="7.5" ry="7.49994" transform="rotate(-180 105.413 45.426)" fill="#FE8742"/>
<path d="M98.4128 45.426C98.4128 41.56 101.547 38.4261 105.413 38.4261C109.279 38.4261 112.413 41.56 112.413 45.426C112.413 49.2919 109.279 52.4259 105.413 52.4259C101.547 52.4259 98.4128 49.2919 98.4128 45.426Z" stroke="url(#paint1_linear_327_4506)"/>
</g>
<g filter="url(#filter3_d_327_4506)">
<ellipse cx="45.4135" cy="45.426" rx="7.5" ry="7.49994" transform="rotate(-180 45.4135 45.426)" fill="#FE8742"/>
<path d="M38.4135 45.426C38.4135 41.5601 41.5475 38.4261 45.4135 38.4261C49.2795 38.4261 52.4135 41.5601 52.4135 45.426C52.4135 49.292 49.2794 52.426 45.4135 52.426C41.5475 52.426 38.4135 49.292 38.4135 45.426Z" stroke="url(#paint2_linear_327_4506)"/>
</g>
<g filter="url(#filter4_d_327_4506)">
<ellipse cx="15.4136" cy="45.426" rx="7.5" ry="7.49994" transform="rotate(-180 15.4136 45.426)" fill="#FE8742"/>
<path d="M8.41357 45.426C8.41358 41.5601 11.5476 38.4261 15.4136 38.4261C19.2796 38.4261 22.4136 41.5601 22.4136 45.426C22.4136 49.292 19.2796 52.426 15.4136 52.426C11.5476 52.426 8.41357 49.292 8.41357 45.426Z" stroke="url(#paint3_linear_327_4506)"/>
</g>
<g filter="url(#filter5_d_327_4506)">
<ellipse cx="75.4131" cy="15.4265" rx="7.5" ry="7.49994" transform="rotate(-180 75.4131 15.4265)" fill="#FE8742"/>
<path d="M68.4131 15.4265C68.4131 11.5606 71.5471 8.42658 75.4131 8.42658C79.2791 8.42658 82.4131 11.5606 82.4131 15.4265C82.4131 19.2925 79.2791 22.4265 75.4131 22.4265C71.5471 22.4265 68.4131 19.2925 68.4131 15.4265Z" stroke="url(#paint4_linear_327_4506)"/>
</g>
<g filter="url(#filter6_d_327_4506)">
<ellipse cx="105.413" cy="15.4265" rx="7.5" ry="7.49994" transform="rotate(-180 105.413 15.4265)" fill="#FE8742"/>
<path d="M98.4128 15.4265C98.4128 11.5606 101.547 8.42658 105.413 8.42658C109.279 8.42658 112.413 11.5606 112.413 15.4265C112.413 19.2925 109.279 22.4265 105.413 22.4265C101.547 22.4265 98.4128 19.2925 98.4128 15.4265Z" stroke="url(#paint5_linear_327_4506)"/>
</g>
<g filter="url(#filter7_d_327_4506)">
<ellipse cx="45.4135" cy="15.4265" rx="7.5" ry="7.49994" transform="rotate(-180 45.4135 15.4265)" fill="#FE8742"/>
<path d="M38.4135 15.4265C38.4135 11.5606 41.5475 8.42658 45.4135 8.42658C49.2795 8.42658 52.4135 11.5606 52.4135 15.4265C52.4135 19.2925 49.2794 22.4265 45.4135 22.4265C41.5475 22.4265 38.4135 19.2925 38.4135 15.4265Z" stroke="url(#paint6_linear_327_4506)"/>
</g>
<g filter="url(#filter8_d_327_4506)">
<ellipse cx="15.4136" cy="15.4265" rx="7.5" ry="7.49994" transform="rotate(-180 15.4136 15.4265)" fill="#FE8742"/>
<path d="M8.41357 15.4265C8.41358 11.5606 11.5476 8.42659 15.4136 8.42659C19.2796 8.42659 22.4136 11.5606 22.4136 15.4265C22.4136 19.2925 19.2796 22.4265 15.4136 22.4265C11.5476 22.4265 8.41357 19.2925 8.41357 15.4265Z" stroke="url(#paint7_linear_327_4506)"/>
</g>
</g>
<defs>
<filter id="filter0_d_327_4506" x="0.413208" y="0.426277" width="120" height="64" filterUnits="userSpaceOnUse" color-interpolation-filters="sRGB">
<feFlood flood-opacity="0" result="BackgroundImageFix"/>
<feColorMatrix in="SourceAlpha" type="matrix" values="0 0 0 0 0 0 0 0 0 0 0 0 0 0 0 0 0 0 127 0" result="hardAlpha"/>
<feOffset dy="4"/>
<feComposite in2="hardAlpha" operator="out"/>
<feColorMatrix type="matrix" values="0 0 0 0 0.808057 0 0 0 0 0.397724 0 0 0 0 0.160993 0 0 0 1 0"/>
<feBlend mode="normal" in2="BackgroundImageFix" result="effect1_dropShadow_327_4506"/>
<feBlend mode="normal" in="SourceGraphic" in2="effect1_dropShadow_327_4506" result="shape"/>
</filter>
<filter id="filter1_d_327_4506" x="67.9131" y="37.9261" width="16" height="16.9999" filterUnits="userSpaceOnUse" color-interpolation-filters="sRGB">
<feFlood flood-opacity="0" result="BackgroundImageFix"/>
<feColorMatrix in="SourceAlpha" type="matrix" values="0 0 0 0 0 0 0 0 0 0 0 0 0 0 0 0 0 0 127 0" result="hardAlpha"/>
<feOffset dx="1" dy="2"/>
<feComposite in2="hardAlpha" operator="out"/>
<feColorMatrix type="matrix" values="0 0 0 0 0 0 0 0 0 0 0 0 0 0 0 0 0 0 0.25 0"/>
<feBlend mode="normal" in2="BackgroundImageFix" result="effect1_dropShadow_327_4506"/>
<feBlend mode="normal" in="SourceGraphic" in2="effect1_dropShadow_327_4506" result="shape"/>
</filter>
<filter id="filter2_d_327_4506" x="97.9128" y="37.9261" width="16" height="16.9999" filterUnits="userSpaceOnUse" color-interpolation-filters="sRGB">
<feFlood flood-opacity="0" result="BackgroundImageFix"/>
<feColorMatrix in="SourceAlpha" type="matrix" values="0 0 0 0 0 0 0 0 0 0 0 0 0 0 0 0 0 0 127 0" result="hardAlpha"/>
<feOffset dx="1" dy="2"/>
<feComposite in2="hardAlpha" operator="out"/>
<feColorMatrix type="matrix" values="0 0 0 0 0 0 0 0 0 0 0 0 0 0 0 0 0 0 0.25 0"/>
<feBlend mode="normal" in2="BackgroundImageFix" result="effect1_dropShadow_327_4506"/>
<feBlend mode="normal" in="SourceGraphic" in2="effect1_dropShadow_327_4506" result="shape"/>
</filter>
<filter id="filter3_d_327_4506" x="37.9135" y="37.9261" width="16" height="16.9999" filterUnits="userSpaceOnUse" color-interpolation-filters="sRGB">
<feFlood flood-opacity="0" result="BackgroundImageFix"/>
<feColorMatrix in="SourceAlpha" type="matrix" values="0 0 0 0 0 0 0 0 0 0 0 0 0 0 0 0 0 0 127 0" result="hardAlpha"/>
<feOffset dx="1" dy="2"/>
<feComposite in2="hardAlpha" operator="out"/>
<feColorMatrix type="matrix" values="0 0 0 0 0 0 0 0 0 0 0 0 0 0 0 0 0 0 0.25 0"/>
<feBlend mode="normal" in2="BackgroundImageFix" result="effect1_dropShadow_327_4506"/>
<feBlend mode="normal" in="SourceGraphic" in2="effect1_dropShadow_327_4506" result="shape"/>
</filter>
<filter id="filter4_d_327_4506" x="7.91357" y="37.9261" width="16" height="16.9999" filterUnits="userSpaceOnUse" color-interpolation-filters="sRGB">
<feFlood flood-opacity="0" result="BackgroundImageFix"/>
<feColorMatrix in="SourceAlpha" type="matrix" values="0 0 0 0 0 0 0 0 0 0 0 0 0 0 0 0 0 0 127 0" result="hardAlpha"/>
<feOffset dx="1" dy="2"/>
<feComposite in2="hardAlpha" operator="out"/>
<feColorMatrix type="matrix" values="0 0 0 0 0 0 0 0 0 0 0 0 0 0 0 0 0 0 0.25 0"/>
<feBlend mode="normal" in2="BackgroundImageFix" result="effect1_dropShadow_327_4506"/>
<feBlend mode="normal" in="SourceGraphic" in2="effect1_dropShadow_327_4506" result="shape"/>
</filter>
<filter id="filter5_d_327_4506" x="67.9131" y="7.92658" width="16" height="16.9999" filterUnits="userSpaceOnUse" color-interpolation-filters="sRGB">
<feFlood flood-opacity="0" result="BackgroundImageFix"/>
<feColorMatrix in="SourceAlpha" type="matrix" values="0 0 0 0 0 0 0 0 0 0 0 0 0 0 0 0 0 0 127 0" result="hardAlpha"/>
<feOffset dx="1" dy="2"/>
<feComposite in2="hardAlpha" operator="out"/>
<feColorMatrix type="matrix" values="0 0 0 0 0 0 0 0 0 0 0 0 0 0 0 0 0 0 0.25 0"/>
<feBlend mode="normal" in2="BackgroundImageFix" result="effect1_dropShadow_327_4506"/>
<feBlend mode="normal" in="SourceGraphic" in2="effect1_dropShadow_327_4506" result="shape"/>
</filter>
<filter id="filter6_d_327_4506" x="97.9128" y="7.92658" width="16" height="16.9999" filterUnits="userSpaceOnUse" color-interpolation-filters="sRGB">
<feFlood flood-opacity="0" result="BackgroundImageFix"/>
<feColorMatrix in="SourceAlpha" type="matrix" values="0 0 0 0 0 0 0 0 0 0 0 0 0 0 0 0 0 0 127 0" result="hardAlpha"/>
<feOffset dx="1" dy="2"/>
<feComposite in2="hardAlpha" operator="out"/>
<feColorMatrix type="matrix" values="0 0 0 0 0 0 0 0 0 0 0 0 0 0 0 0 0 0 0.25 0"/>
<feBlend mode="normal" in2="BackgroundImageFix" result="effect1_dropShadow_327_4506"/>
<feBlend mode="normal" in="SourceGraphic" in2="effect1_dropShadow_327_4506" result="shape"/>
</filter>
<filter id="filter7_d_327_4506" x="37.9135" y="7.92658" width="16" height="16.9999" filterUnits="userSpaceOnUse" color-interpolation-filters="sRGB">
<feFlood flood-opacity="0" result="BackgroundImageFix"/>
<feColorMatrix in="SourceAlpha" type="matrix" values="0 0 0 0 0 0 0 0 0 0 0 0 0 0 0 0 0 0 127 0" result="hardAlpha"/>
<feOffset dx="1" dy="2"/>
<feComposite in2="hardAlpha" operator="out"/>
<feColorMatrix type="matrix" values="0 0 0 0 0 0 0 0 0 0 0 0 0 0 0 0 0 0 0.25 0"/>
<feBlend mode="normal" in2="BackgroundImageFix" result="effect1_dropShadow_327_4506"/>
<feBlend mode="normal" in="SourceGraphic" in2="effect1_dropShadow_327_4506" result="shape"/>
</filter>
<filter id="filter8_d_327_4506" x="7.91357" y="7.92659" width="16" height="16.9999" filterUnits="userSpaceOnUse" color-interpolation-filters="sRGB">
<feFlood flood-opacity="0" result="BackgroundImageFix"/>
<feColorMatrix in="SourceAlpha" type="matrix" values="0 0 0 0 0 0 0 0 0 0 0 0 0 0 0 0 0 0 127 0" result="hardAlpha"/>
<feOffset dx="1" dy="2"/>
<feComposite in2="hardAlpha" operator="out"/>
<feColorMatrix type="matrix" values="0 0 0 0 0 0 0 0 0 0 0 0 0 0 0 0 0 0 0.25 0"/>
<feBlend mode="normal" in2="BackgroundImageFix" result="effect1_dropShadow_327_4506"/>
<feBlend mode="normal" in="SourceGraphic" in2="effect1_dropShadow_327_4506" result="shape"/>
</filter>
<linearGradient id="paint0_linear_327_4506" x1="75.4131" y1="52.9259" x2="75.4131" y2="37.9261" gradientUnits="userSpaceOnUse">
<stop offset="0.15" stop-color="white" stop-opacity="0.14"/>
<stop offset="0.39" stop-color="#CE6529" stop-opacity="0"/>
<stop offset="1" stop-color="#FF7D32"/>
</linearGradient>
<linearGradient id="paint1_linear_327_4506" x1="105.413" y1="52.9259" x2="105.413" y2="37.9261" gradientUnits="userSpaceOnUse">
<stop offset="0.15" stop-color="white" stop-opacity="0.14"/>
<stop offset="0.39" stop-color="#CE6529" stop-opacity="0"/>
<stop offset="1" stop-color="#FF7D32"/>
</linearGradient>
<linearGradient id="paint2_linear_327_4506" x1="45.4135" y1="52.926" x2="45.4135" y2="37.9261" gradientUnits="userSpaceOnUse">
<stop offset="0.15" stop-color="white" stop-opacity="0.14"/>
<stop offset="0.39" stop-color="#CE6529" stop-opacity="0"/>
<stop offset="1" stop-color="#FF7D32"/>
</linearGradient>
<linearGradient id="paint3_linear_327_4506" x1="15.4136" y1="52.926" x2="15.4136" y2="37.9261" gradientUnits="userSpaceOnUse">
<stop offset="0.15" stop-color="white" stop-opacity="0.14"/>
<stop offset="0.39" stop-color="#CE6529" stop-opacity="0"/>
<stop offset="1" stop-color="#FF7D32"/>
</linearGradient>
<linearGradient id="paint4_linear_327_4506" x1="75.4131" y1="22.9265" x2="75.4131" y2="7.92658" gradientUnits="userSpaceOnUse">
<stop offset="0.15" stop-color="white" stop-opacity="0.14"/>
<stop offset="0.39" stop-color="#CE6529" stop-opacity="0"/>
<stop offset="1" stop-color="#FF7D32"/>
</linearGradient>
<linearGradient id="paint5_linear_327_4506" x1="105.413" y1="22.9265" x2="105.413" y2="7.92658" gradientUnits="userSpaceOnUse">
<stop offset="0.15" stop-color="white" stop-opacity="0.14"/>
<stop offset="0.39" stop-color="#CE6529" stop-opacity="0"/>
<stop offset="1" stop-color="#FF7D32"/>
</linearGradient>
<linearGradient id="paint6_linear_327_4506" x1="45.4135" y1="22.9265" x2="45.4135" y2="7.92658" gradientUnits="userSpaceOnUse">
<stop offset="0.15" stop-color="white" stop-opacity="0.14"/>
<stop offset="0.39" stop-color="#CE6529" stop-opacity="0"/>
<stop offset="1" stop-color="#FF7D32"/>
</linearGradient>
<linearGradient id="paint7_linear_327_4506" x1="15.4136" y1="22.9265" x2="15.4136" y2="7.92659" gradientUnits="userSpaceOnUse">
<stop offset="0.15" stop-color="white" stop-opacity="0.14"/>
<stop offset="0.39" stop-color="#CE6529" stop-opacity="0"/>
<stop offset="1" stop-color="#FF7D32"/>
</linearGradient>
</defs>
</svg>
