<svg width="151" height="29" viewBox="0 0 151 29" fill="none" xmlns="http://www.w3.org/2000/svg">
<path fill-rule="evenodd" clip-rule="evenodd" d="M0.175537 14.5289C0.175537 6.71393 6.60222 0.401855 14.508 0.401855V5.51163C9.45853 5.51163 5.32709 9.56939 5.32709 14.5289C5.32709 19.4884 9.45853 23.5462 14.508 23.5462C19.5576 23.5462 23.689 19.5385 23.689 14.4788H28.8916C28.8916 22.2937 22.4649 28.6058 14.508 28.6058C6.60222 28.6559 0.175537 22.2937 0.175537 14.5289Z" fill="white"/>
<path d="M8.18347 14.5289C8.18347 11.0723 11.0398 8.26697 14.5591 8.26697C18.0785 8.26697 20.9348 11.0723 20.9348 14.5289C20.9348 17.9855 18.0785 20.7909 14.5591 20.7909C11.0398 20.7909 8.18347 17.9855 8.18347 14.5289Z" fill="white"/>
<path d="M18.9968 6.56356C18.9968 4.55973 20.629 2.95667 22.6692 2.95667C24.7094 2.95667 26.3416 4.55973 26.3416 6.56356C26.3416 8.5674 24.7094 10.1704 22.6692 10.1704C20.629 10.1704 18.9968 8.5674 18.9968 6.56356Z" fill="white"/>
<path d="M135.34 9.92009L134.881 12.1243C133.81 16.8834 133.402 18.4364 132.484 23.1955L132.279 23.3458L129.321 23.446L129.169 23.2457L130.341 18.3363L130.698 16.7332C129.423 16.6831 128.148 16.6831 126.873 16.6831C125.903 16.6831 125.139 16.6831 124.374 16.7332C123.966 18.6368 123.558 20.34 123.047 23.1955L122.844 23.3458L119.885 23.446L119.732 23.2457L120.905 18.3363L121.364 16.1821C122.129 12.8257 122.282 12.0743 122.742 8.96831L122.946 8.76793C124.322 8.61764 124.628 8.51745 126.006 8.26697L126.159 8.46736L125.853 9.87002L125.394 12.0743L124.935 14.1783C126.006 14.1783 127.077 14.2283 128.148 14.2283C129.27 14.2283 130.036 14.2283 131.26 14.1783C131.668 12.3748 131.82 11.3729 132.177 9.0184L132.382 8.81802C133.759 8.66774 134.065 8.56754 135.442 8.31706L135.595 8.51745L135.34 9.92009Z" fill="white"/>
<path d="M98.6165 16.2822C98.82 15.4306 98.9727 14.6291 98.9727 13.8276C98.9727 10.9219 97.0861 10.4711 96.0147 10.4711C91.4243 10.4711 90.8632 17.4344 90.8632 18.4865C90.8632 20.7908 92.2403 21.7928 93.8216 21.7928C96.9325 21.7928 98.1057 18.6367 98.6165 16.2822ZM101.625 17.1839C100.962 19.6387 99.2281 23.8968 93.7195 23.8968C89.8432 23.8968 87.7009 21.9431 87.7009 18.0356C87.7009 17.5347 87.7518 16.9836 87.8029 16.3824C87.8029 16.2321 87.8539 16.0819 87.8539 15.9316C88.976 9.5193 91.8323 3.4076 98.1057 3.3575C98.9218 3.3575 100.606 3.25732 101.778 3.00684L101.37 5.56172C100.197 5.8623 98.3611 6.01259 97.3406 6.01259C96.0147 6.01259 95.0969 6.51355 94.4844 7.1147C94.1786 7.41527 93.9235 7.71584 93.7195 8.01642C93.5155 8.31699 93.4135 8.56747 93.3115 8.76785C94.1276 8.51738 95.046 8.36709 96.0656 8.36709C99.8915 8.36709 102.135 10.4711 102.135 14.1281C102.084 15.13 101.932 16.1821 101.625 17.1839Z" fill="white"/>
<path fill-rule="evenodd" clip-rule="evenodd" d="M113.764 19.6888C113.458 19.9393 113.153 20.2399 112.796 20.4403C112.031 20.8911 111.061 21.0915 110.296 21.0915C107.644 21.0915 106.93 18.8872 106.93 17.5347C106.93 17.3844 106.981 13.7274 110.041 11.6735C111.775 10.5212 113.612 10.4712 114.581 10.4712C115.039 10.4712 115.447 10.5212 115.906 10.5212L113.764 19.6888ZM119.324 8.56754L119.172 8.31706L115.193 8.26697C112.54 8.26697 108.766 8.41725 106.114 11.5232C104.89 12.9259 103.818 15.3806 103.818 17.6349C103.818 21.1917 106.216 23.2457 109.174 23.2457C111.623 23.2457 112.898 22.1937 113.407 21.7929L113.204 22.9451L113.356 23.1454L116.06 23.0954L116.264 22.8949C116.825 19.4884 117.029 18.4364 118.049 14.028L119.324 8.56754Z" fill="white"/>
<path fill-rule="evenodd" clip-rule="evenodd" d="M47.1515 15.631C46.5905 18.1358 45.9784 18.8872 45.6724 19.2879C45.1623 19.8891 44.4482 20.3901 43.5812 20.3901C42.612 20.3901 41.8469 19.9392 41.5409 19.0375C41.4389 18.8371 41.3879 18.4864 41.3879 17.7851C41.3879 16.4825 41.9999 13.2764 43.0711 11.8738C43.3771 11.5231 44.0912 10.7216 45.4173 10.7216C47.1005 10.7216 47.4575 12.1744 47.4575 13.2264C47.4575 14.1281 47.3045 14.9296 47.1515 15.631ZM51.895 16.733C52.15 15.7813 52.2521 14.8294 52.2521 13.8776C52.2521 12.1744 51.895 10.5713 50.4159 9.26878C49.0387 8.06647 47.2025 7.66571 45.4173 7.66571C37.9195 7.66571 36.4914 14.4787 36.4914 17.0837C36.4914 19.1878 37.1034 20.7407 38.3786 21.8428C39.7557 23.0451 41.7959 23.2956 43.2751 23.2956C45.4684 23.2956 47.3556 22.8447 48.9877 21.4922C50.5178 20.3901 51.4359 18.5866 51.895 16.733Z" fill="white"/>
<path d="M63.6262 11.6233H63.3202C63.0651 12.7755 62.7591 14.078 62.2491 16.1319L61.79 18.236C61.28 20.6406 61.1779 21.2417 60.8719 23.2455L60.6679 23.3958L55.6694 23.496L55.5163 23.2957C56.3835 19.9392 56.5365 19.288 57.4035 15.6811L57.7096 14.2783C57.9646 13.1262 58.1176 12.3748 58.2706 11.6734H58.1176H56.5365L53.1701 11.7736L53.0171 11.5231L53.9862 8.16668L54.2412 8.01639H64.0853L69.0838 7.9162L69.2368 8.06649L68.3187 11.4229L68.0637 11.6233L65.2074 11.5231H63.6262V11.6233Z" fill="white"/>
<path d="M80.7641 11.5732L75.2554 11.6233C75.2554 11.6233 74.5924 13.7774 73.9803 16.182C73.3682 18.5866 72.7052 21.2417 72.2971 23.1954L72.0931 23.3457L67.4006 23.4459L67.2476 23.2455C68.2677 19.8891 68.4717 19.2378 69.4408 15.6309L69.7979 14.2283C70.1039 13.026 70.308 12.2745 70.461 11.5231L71.277 8.16668L71.4811 8.01639H80.9681L85.9666 7.9162L86.1706 8.06649C86.1706 8.06649 85.2015 12.7254 84.5895 15.8314C83.9774 18.9874 83.3143 23.0952 83.3143 23.0952L83.1103 23.2455L78.2138 23.3457L78.0607 23.1454C78.8258 19.839 79.3869 17.3843 79.7949 15.5308C80.305 13.7274 80.56 12.3748 80.7641 11.5732Z" fill="white"/>
<path d="M141.206 14.5288C141.919 13.9277 142.276 13.5769 143.246 12.6752C144.266 11.7234 146.714 9.21862 147.174 8.71766L147.479 8.56738H150.795L150.897 8.81785C150.591 9.06833 150.438 9.16852 149.316 10.1705C148.857 10.5211 148.55 10.8217 147.99 11.3226L144.215 14.7292L148.703 23.1452L148.55 23.3957L145.337 23.496L145.082 23.3457C144.317 21.5923 144.113 21.1915 143.092 19.0875L141.052 15.0297C140.441 17.8351 140.033 19.5885 139.318 23.2454L139.114 23.3957L136.156 23.496L136.003 23.2955L137.177 18.3862L137.635 16.232C138.401 12.8756 138.553 12.1242 139.012 9.01824L139.217 8.81785C140.593 8.66756 140.9 8.56738 142.276 8.31689L142.43 8.51727L142.124 9.91997L141.665 12.1242L141.206 14.5288Z" fill="white"/>
</svg>
