<svg width="341" height="286" viewBox="0 0 341 286" fill="none" xmlns="http://www.w3.org/2000/svg">
<path d="M0 0H341V77L321 68.5H296L292 32H246V68.5H217V32L141 28L124 32V68.5H95V32H46.5L43 68.5H12L0 77V0Z" fill="#342D39"/>
<g filter="url(#filter0_i_2002_121)">
<path fill-rule="evenodd" clip-rule="evenodd" d="M159.573 0C157.363 0 155.573 1.79086 155.573 4V20.8746C155.573 21.6962 155.009 22.5867 154.187 22.5867H148.414C147.592 22.5867 147.028 21.6962 147.028 20.8746V12.1595C147.028 9.95041 145.238 8.15955 143.028 8.15955H129.729C127.52 8.15955 125.729 9.95041 125.729 12.1595V20.8746C125.729 22.1899 125.314 23.8178 124.213 24.538C120.939 26.6808 118.775 30.3811 118.775 34.5867V57.664C118.775 59.8731 116.984 61.664 114.775 61.664H104.271C102.062 61.664 100.271 59.8731 100.271 57.664V34.5867C100.271 27.9593 94.8986 22.5867 88.2712 22.5867H54.3366C47.7092 22.5867 42.3366 27.9593 42.3366 34.5867V57.664C42.3366 59.8731 40.5458 61.664 38.3366 61.664H24C10.7452 61.664 0 72.4091 0 85.664V261.587C0 274.841 10.7452 285.587 24 285.587H317C330.255 285.587 341 274.841 341 261.587V85.664C341 72.4092 330.255 61.664 317 61.664H304.364C302.155 61.664 300.364 59.8731 300.364 57.664V34.5867C300.364 27.9593 294.992 22.5867 288.364 22.5867H254.143C247.516 22.5867 242.143 27.9593 242.143 34.5867V57.664C242.143 59.8731 240.352 61.664 238.143 61.664H225.941C223.732 61.664 221.941 59.8731 221.941 57.664V34.5867C221.941 30.5024 219.901 26.8946 216.784 24.7273C215.664 23.9487 215.27 22.2385 215.27 20.8746V12.1595C215.27 9.95041 213.479 8.15955 211.27 8.15955H197.971C195.762 8.15955 193.971 9.95041 193.971 12.1595V20.8746C193.971 21.6962 193.408 22.5867 192.586 22.5867H186.813C185.991 22.5867 185.427 21.6962 185.427 20.8746V4C185.427 1.79086 183.637 0 181.427 0H159.573ZM50.496 273.48H22.496C15.8686 273.48 10.496 268.108 10.496 261.48L10.496 233.48V193.48V153.48V113.48L10.496 85.4801C10.496 78.8527 15.8686 73.4801 22.496 73.4801H50.496V113.48V153.48V193.48V233.48L50.496 273.48ZM130.496 73.4801L130.496 113.48V153.48L130.496 193.48L130.496 233.48V273.48H90.4962V233.48L90.4962 193.48L90.4962 153.48V113.48L90.4962 73.4801L130.496 73.4801ZM130.496 41.4801V73.4801L130.496 113.48V153.48V193.48V233.48V273.48H170.496V233.48V193.48V153.48V113.48L170.496 73.4801V33.4801L138.496 33.4801C134.078 33.4801 130.496 37.0618 130.496 41.4801ZM170.496 73.4801V33.4801L202.496 33.4801C206.915 33.4801 210.496 37.0618 210.496 41.4801V73.4801L210.496 113.48V153.48V193.48L210.496 233.48L210.496 273.48H170.496L170.496 233.48L170.496 193.48V153.48V113.48L170.496 73.4801ZM90.4961 73.4801L90.4961 113.48V153.48L90.4961 193.48L90.4961 233.48V273.48H50.4961V233.48L50.4961 193.48L50.4961 153.48V113.48L50.4961 73.4801L50.4961 41.4801C50.4961 37.0618 54.0778 33.4801 58.4961 33.4801L82.4961 33.4801C86.9144 33.4801 90.4961 37.0618 90.4961 41.4801V73.4801ZM210.497 73.4801L250.497 73.4801L250.497 113.48L250.497 153.48L250.497 193.48L250.497 233.48L250.497 273.48H210.497L210.497 233.48L210.497 193.48L210.497 153.48L210.497 113.48L210.497 73.4801ZM250.497 41.4801V73.4801L250.497 113.48V153.48L250.497 193.48L250.497 233.48V273.48H290.497V233.48V193.48V153.48V113.48V73.4801V41.4801C290.497 37.0618 286.915 33.4801 282.497 33.4801L258.497 33.4801C254.078 33.4801 250.497 37.0618 250.497 41.4801ZM318.497 73.4801L290.497 73.4801V113.48V153.48V193.48V233.48V273.48H318.497C325.124 273.48 330.497 268.108 330.497 261.48V233.48V193.48V153.48V113.48V85.4801C330.497 78.8527 325.124 73.4801 318.497 73.4801Z" fill="white"/>
</g>
<defs>
<filter id="filter0_i_2002_121" x="0" y="-2" width="341" height="287.587" filterUnits="userSpaceOnUse" color-interpolation-filters="sRGB">
<feFlood flood-opacity="0" result="BackgroundImageFix"/>
<feBlend mode="normal" in="SourceGraphic" in2="BackgroundImageFix" result="shape"/>
<feColorMatrix in="SourceAlpha" type="matrix" values="0 0 0 0 0 0 0 0 0 0 0 0 0 0 0 0 0 0 127 0" result="hardAlpha"/>
<feOffset dy="-2"/>
<feGaussianBlur stdDeviation="1.5"/>
<feComposite in2="hardAlpha" operator="arithmetic" k2="-1" k3="1"/>
<feColorMatrix type="matrix" values="0 0 0 0 0 0 0 0 0 0 0 0 0 0 0 0 0 0 0.15 0"/>
<feBlend mode="normal" in2="shape" result="effect1_innerShadow_2002_121"/>
</filter>
</defs>
</svg>
