<svg width="341" height="287" viewBox="0 0 341 287" fill="none" xmlns="http://www.w3.org/2000/svg">
<path d="M0 1H341V94L328 71H295V30.5H245V65H217L213.5 30.5H121.5V65H96L89.5 30.5H48.5L45.5 67.5L10.5 71L0 88V1Z" fill="#342D39"/>
<g filter="url(#filter0_i_2002_11)">
<path fill-rule="evenodd" clip-rule="evenodd" d="M159.573 0.980423C157.363 0.980423 155.573 2.77128 155.573 4.98042V21.855C155.573 22.6766 155.009 23.5671 154.187 23.5671H148.414C147.592 23.5671 147.028 22.6766 147.028 21.855V13.14C147.028 10.9308 145.238 9.13997 143.028 9.13997H129.729C127.52 9.13997 125.729 10.9308 125.729 13.14V21.855C125.729 23.1703 125.314 24.7983 124.213 25.5184C120.939 27.6612 118.775 31.3615 118.775 35.5671V58.6444C118.775 60.8536 116.984 62.6444 114.775 62.6444H104.271C102.062 62.6444 100.271 60.8536 100.271 58.6444V35.5671C100.271 28.9397 94.8986 23.5671 88.2712 23.5671H54.3366C47.7092 23.5671 42.3366 28.9397 42.3366 35.5671V58.6444C42.3366 60.8536 40.5458 62.6444 38.3366 62.6444H24C10.7452 62.6444 0 73.3896 0 86.6444V262.567C0 275.822 10.7452 286.567 24 286.567H317C330.255 286.567 341 275.822 341 262.567V86.6444C341 73.3896 330.255 62.6444 317 62.6444H304.364C302.155 62.6444 300.364 60.8536 300.364 58.6444V35.5671C300.364 28.9397 294.992 23.5671 288.364 23.5671H254.143C247.516 23.5671 242.143 28.9397 242.143 35.5671V58.6444C242.143 60.8536 240.352 62.6444 238.143 62.6444H225.941C223.732 62.6444 221.941 60.8536 221.941 58.6444V35.5671C221.941 31.4828 219.901 27.8751 216.784 25.7077C215.664 24.9291 215.27 23.2189 215.27 21.855V13.14C215.27 10.9308 213.479 9.13997 211.27 9.13997H197.971C195.762 9.13997 193.971 10.9308 193.971 13.14V21.855C193.971 22.6766 193.408 23.5671 192.586 23.5671H186.813C185.991 23.5671 185.427 22.6766 185.427 21.855V4.98042C185.427 2.77128 183.637 0.980423 181.427 0.980423H159.573ZM170.5 74.9814L210.501 74.9814L210.501 42.9814C210.501 38.5631 206.92 34.9814 202.501 34.9814L170.5 34.9814V74.9814ZM50.4969 274.759H22.4959C15.8684 274.759 10.4959 269.386 10.4959 262.759L10.4958 234.982L10.4959 234.759L10.4958 194.982V154.982L10.4959 114.982L10.4959 85.8829C10.4959 79.2555 15.8684 73.8829 22.4959 73.8829L50.0115 73.8829L50.0115 43.2049C50.0115 38.7866 53.5932 35.2049 58.0115 35.2049L82.4978 35.2049C86.9161 35.2049 90.4978 38.7866 90.4978 43.2049L90.4978 74.9819L130.499 74.9819H170.5L170.5 114.982V154.982L170.5 194.759L170.5 194.982V234.759L170.5 234.759V194.982V194.759V154.982V114.982V74.9819L210.501 74.9819V75.0934L250.299 75.0934V43.0934C250.299 38.6751 253.881 35.0934 258.299 35.0934L282.3 35.0934C286.718 35.0934 290.3 38.6752 290.3 43.0934V75.0934H290.503H318.504C325.132 75.0934 330.504 80.466 330.504 87.0934V115.093V155.093V195.093V234.87V235.093V262.87C330.504 269.498 325.132 274.87 318.504 274.87L290.503 274.87L250.502 274.87V235.093V234.87V195.093V155.093V115.093V75.2959H250.502L250.502 115.093L250.502 155.093V195.093V234.87L250.502 235.093V274.87L210.501 274.87L210.501 274.759H170.5H130.499L90.4978 274.759L50.4969 274.759ZM170.5 74.9814L130.499 74.9814L130.499 42.9814C130.499 38.5631 134.081 34.9814 138.499 34.9814L170.5 34.9814L170.5 74.9814Z" fill="white"/>
</g>
<defs>
<filter id="filter0_i_2002_11" x="0" y="-1.01958" width="341" height="287.587" filterUnits="userSpaceOnUse" color-interpolation-filters="sRGB">
<feFlood flood-opacity="0" result="BackgroundImageFix"/>
<feBlend mode="normal" in="SourceGraphic" in2="BackgroundImageFix" result="shape"/>
<feColorMatrix in="SourceAlpha" type="matrix" values="0 0 0 0 0 0 0 0 0 0 0 0 0 0 0 0 0 0 127 0" result="hardAlpha"/>
<feOffset dy="-2"/>
<feGaussianBlur stdDeviation="1.5"/>
<feComposite in2="hardAlpha" operator="arithmetic" k2="-1" k3="1"/>
<feColorMatrix type="matrix" values="0 0 0 0 0 0 0 0 0 0 0 0 0 0 0 0 0 0 0.15 0"/>
<feBlend mode="normal" in2="shape" result="effect1_innerShadow_2002_11"/>
</filter>
</defs>
</svg>
