<svg width="120" height="35" viewBox="0 0 120 35" fill="none" xmlns="http://www.w3.org/2000/svg">
<g filter="url(#filter0_d_327_4528)">
<path d="M30.0007 30.2237L16 30.2237C7.16343 30.2237 -2.29168e-05 23.0602 -2.05992e-05 14.2237L-1.69274e-05 0.22372L30.0007 0.223728L30.0007 30.2237Z" fill="#9E6FC3"/>
<path d="M60.0005 30.2237L29.9997 30.2237L29.9997 0.223736L60.0005 0.223743L60.0005 30.2237Z" fill="#9E6FC3"/>
<path d="M90.0002 30.2237L59.9995 30.2237L59.9995 0.223736L90.0003 0.223743L90.0002 30.2237Z" fill="#9E6FC3"/>
<path d="M120 30.2238L89.9992 30.2237L89.9993 0.223781L120 0.223789L120 30.2238Z" fill="#9E6FC3"/>
<g filter="url(#filter1_d_327_4528)">
<ellipse cx="44.8027" cy="15.0264" rx="7.5" ry="7.4998" fill="#AD79D6"/>
<path d="M51.8027 15.0264C51.8027 18.8923 48.6687 22.0262 44.8027 22.0262C40.9367 22.0262 37.8027 18.8923 37.8027 15.0264C37.8027 11.1605 40.9367 8.02661 44.8027 8.02661C48.6687 8.02661 51.8027 11.1605 51.8027 15.0264Z" stroke="url(#paint0_linear_327_4528)"/>
</g>
<g filter="url(#filter2_d_327_4528)">
<ellipse cx="14.8031" cy="15.0264" rx="7.5" ry="7.4998" fill="#AD79D6"/>
<path d="M21.8031 15.0264C21.8031 18.8923 18.6691 22.0262 14.8031 22.0262C10.9371 22.0262 7.8031 18.8923 7.8031 15.0264C7.8031 11.1605 10.9371 8.02658 14.8031 8.02658C18.6691 8.02658 21.8031 11.1605 21.8031 15.0264Z" stroke="url(#paint1_linear_327_4528)"/>
</g>
<g filter="url(#filter3_d_327_4528)">
<ellipse cx="74.8025" cy="15.0264" rx="7.5" ry="7.4998" fill="#AD79D6"/>
<path d="M81.8025 15.0264C81.8025 18.8923 78.6685 22.0262 74.8025 22.0262C70.9365 22.0262 67.8025 18.8923 67.8025 15.0264C67.8025 11.1605 70.9365 8.0266 74.8025 8.0266C78.6685 8.0266 81.8025 11.1605 81.8025 15.0264Z" stroke="url(#paint2_linear_327_4528)"/>
</g>
<g filter="url(#filter4_d_327_4528)">
<ellipse cx="104.802" cy="15.0264" rx="7.5" ry="7.4998" fill="#AD79D6"/>
<path d="M111.802 15.0264C111.802 18.8923 108.668 22.0262 104.802 22.0262C100.936 22.0262 97.8022 18.8923 97.8022 15.0264C97.8022 11.1606 100.936 8.02664 104.802 8.02664C108.668 8.02664 111.802 11.1606 111.802 15.0264Z" stroke="url(#paint3_linear_327_4528)"/>
</g>
</g>
<defs>
<filter id="filter0_d_327_4528" x="0" y="0.223724" width="120" height="34" filterUnits="userSpaceOnUse" color-interpolation-filters="sRGB">
<feFlood flood-opacity="0" result="BackgroundImageFix"/>
<feColorMatrix in="SourceAlpha" type="matrix" values="0 0 0 0 0 0 0 0 0 0 0 0 0 0 0 0 0 0 127 0" result="hardAlpha"/>
<feOffset dy="4"/>
<feComposite in2="hardAlpha" operator="out"/>
<feColorMatrix type="matrix" values="0 0 0 0 0.48499 0 0 0 0 0.312805 0 0 0 0 0.62054 0 0 0 1 0"/>
<feBlend mode="normal" in2="BackgroundImageFix" result="effect1_dropShadow_327_4528"/>
<feBlend mode="normal" in="SourceGraphic" in2="effect1_dropShadow_327_4528" result="shape"/>
</filter>
<filter id="filter1_d_327_4528" x="37.3027" y="7.52661" width="16" height="16.9996" filterUnits="userSpaceOnUse" color-interpolation-filters="sRGB">
<feFlood flood-opacity="0" result="BackgroundImageFix"/>
<feColorMatrix in="SourceAlpha" type="matrix" values="0 0 0 0 0 0 0 0 0 0 0 0 0 0 0 0 0 0 127 0" result="hardAlpha"/>
<feOffset dx="1" dy="2"/>
<feComposite in2="hardAlpha" operator="out"/>
<feColorMatrix type="matrix" values="0 0 0 0 0 0 0 0 0 0 0 0 0 0 0 0 0 0 0.25 0"/>
<feBlend mode="normal" in2="BackgroundImageFix" result="effect1_dropShadow_327_4528"/>
<feBlend mode="normal" in="SourceGraphic" in2="effect1_dropShadow_327_4528" result="shape"/>
</filter>
<filter id="filter2_d_327_4528" x="7.3031" y="7.52658" width="16" height="16.9996" filterUnits="userSpaceOnUse" color-interpolation-filters="sRGB">
<feFlood flood-opacity="0" result="BackgroundImageFix"/>
<feColorMatrix in="SourceAlpha" type="matrix" values="0 0 0 0 0 0 0 0 0 0 0 0 0 0 0 0 0 0 127 0" result="hardAlpha"/>
<feOffset dx="1" dy="2"/>
<feComposite in2="hardAlpha" operator="out"/>
<feColorMatrix type="matrix" values="0 0 0 0 0 0 0 0 0 0 0 0 0 0 0 0 0 0 0.25 0"/>
<feBlend mode="normal" in2="BackgroundImageFix" result="effect1_dropShadow_327_4528"/>
<feBlend mode="normal" in="SourceGraphic" in2="effect1_dropShadow_327_4528" result="shape"/>
</filter>
<filter id="filter3_d_327_4528" x="67.3025" y="7.5266" width="16" height="16.9996" filterUnits="userSpaceOnUse" color-interpolation-filters="sRGB">
<feFlood flood-opacity="0" result="BackgroundImageFix"/>
<feColorMatrix in="SourceAlpha" type="matrix" values="0 0 0 0 0 0 0 0 0 0 0 0 0 0 0 0 0 0 127 0" result="hardAlpha"/>
<feOffset dx="1" dy="2"/>
<feComposite in2="hardAlpha" operator="out"/>
<feColorMatrix type="matrix" values="0 0 0 0 0 0 0 0 0 0 0 0 0 0 0 0 0 0 0.25 0"/>
<feBlend mode="normal" in2="BackgroundImageFix" result="effect1_dropShadow_327_4528"/>
<feBlend mode="normal" in="SourceGraphic" in2="effect1_dropShadow_327_4528" result="shape"/>
</filter>
<filter id="filter4_d_327_4528" x="97.3022" y="7.52664" width="16" height="16.9996" filterUnits="userSpaceOnUse" color-interpolation-filters="sRGB">
<feFlood flood-opacity="0" result="BackgroundImageFix"/>
<feColorMatrix in="SourceAlpha" type="matrix" values="0 0 0 0 0 0 0 0 0 0 0 0 0 0 0 0 0 0 127 0" result="hardAlpha"/>
<feOffset dx="1" dy="2"/>
<feComposite in2="hardAlpha" operator="out"/>
<feColorMatrix type="matrix" values="0 0 0 0 0 0 0 0 0 0 0 0 0 0 0 0 0 0 0.25 0"/>
<feBlend mode="normal" in2="BackgroundImageFix" result="effect1_dropShadow_327_4528"/>
<feBlend mode="normal" in="SourceGraphic" in2="effect1_dropShadow_327_4528" result="shape"/>
</filter>
<linearGradient id="paint0_linear_327_4528" x1="44.8027" y1="7.52661" x2="44.8027" y2="22.5262" gradientUnits="userSpaceOnUse">
<stop stop-color="white" stop-opacity="0"/>
<stop offset="0.555" stop-color="#A478C7" stop-opacity="0.935"/>
<stop offset="1" stop-color="#9E6FC3"/>
</linearGradient>
<linearGradient id="paint1_linear_327_4528" x1="14.8031" y1="7.52658" x2="14.8031" y2="22.5262" gradientUnits="userSpaceOnUse">
<stop stop-color="white" stop-opacity="0"/>
<stop offset="0.555" stop-color="#A478C7" stop-opacity="0.935"/>
<stop offset="1" stop-color="#9E6FC3"/>
</linearGradient>
<linearGradient id="paint2_linear_327_4528" x1="74.8025" y1="7.5266" x2="74.8025" y2="22.5262" gradientUnits="userSpaceOnUse">
<stop stop-color="white" stop-opacity="0"/>
<stop offset="0.555" stop-color="#A478C7" stop-opacity="0.935"/>
<stop offset="1" stop-color="#9E6FC3"/>
</linearGradient>
<linearGradient id="paint3_linear_327_4528" x1="104.802" y1="7.52664" x2="104.802" y2="22.5262" gradientUnits="userSpaceOnUse">
<stop stop-color="white" stop-opacity="0"/>
<stop offset="0.555" stop-color="#A478C7" stop-opacity="0.935"/>
<stop offset="1" stop-color="#9E6FC3"/>
</linearGradient>
</defs>
</svg>
