<svg width="61" height="65" viewBox="0 0 61 65" fill="none" xmlns="http://www.w3.org/2000/svg">
<g filter="url(#filter0_d_327_4497)">
<rect x="0.884644" y="0.0815735" width="30.0005" height="30.0005" fill="#C8E1FC"/>
<rect x="30.8842" y="0.0815735" width="30.0005" height="30.0005" fill="#C8E1FC"/>
<rect x="0.884644" y="30.0811" width="30.0005" height="30.0005" fill="#C8E1FC"/>
<rect x="30.8842" y="30.0811" width="30.0005" height="30.0005" fill="#C8E1FC"/>
<g filter="url(#filter1_d_327_4497)">
<ellipse cx="15.8849" cy="15.0818" rx="7.5" ry="7.5" fill="#D6E9FF"/>
<path d="M22.8849 15.0818C22.8849 18.9478 19.7509 22.0818 15.8849 22.0818C12.0189 22.0818 8.88489 18.9478 8.88489 15.0818C8.88489 11.2158 12.0189 8.08183 15.8849 8.08183C19.7509 8.08183 22.8849 11.2158 22.8849 15.0818Z" stroke="url(#paint0_linear_327_4497)"/>
</g>
<g filter="url(#filter2_d_327_4497)">
<ellipse cx="45.8844" cy="15.0818" rx="7.5" ry="7.5" fill="#D6E9FF"/>
<path d="M52.8844 15.0818C52.8844 18.9478 49.7504 22.0818 45.8844 22.0818C42.0184 22.0818 38.8844 18.9478 38.8844 15.0818C38.8844 11.2158 42.0184 8.08183 45.8844 8.08183C49.7504 8.08183 52.8844 11.2158 52.8844 15.0818Z" stroke="url(#paint1_linear_327_4497)"/>
</g>
<g filter="url(#filter3_d_327_4497)">
<ellipse cx="15.8849" cy="45.0813" rx="7.5" ry="7.5" fill="#D6E9FF"/>
<path d="M22.8849 45.0813C22.8849 48.9473 19.7509 52.0813 15.8849 52.0813C12.0189 52.0813 8.88489 48.9473 8.88489 45.0813C8.88489 41.2153 12.0189 38.0813 15.8849 38.0813C19.7509 38.0813 22.8849 41.2153 22.8849 45.0813Z" stroke="url(#paint2_linear_327_4497)"/>
</g>
<g filter="url(#filter4_d_327_4497)">
<ellipse cx="45.8844" cy="45.0813" rx="7.5" ry="7.5" fill="#D6E9FF"/>
<path d="M52.8844 45.0813C52.8844 48.9473 49.7504 52.0813 45.8844 52.0813C42.0184 52.0813 38.8844 48.9473 38.8844 45.0813C38.8844 41.2153 42.0184 38.0813 45.8844 38.0813C49.7504 38.0813 52.8844 41.2153 52.8844 45.0813Z" stroke="url(#paint3_linear_327_4497)"/>
</g>
</g>
<defs>
<filter id="filter0_d_327_4497" x="0.884644" y="0.0815735" width="60" height="64" filterUnits="userSpaceOnUse" color-interpolation-filters="sRGB">
<feFlood flood-opacity="0" result="BackgroundImageFix"/>
<feColorMatrix in="SourceAlpha" type="matrix" values="0 0 0 0 0 0 0 0 0 0 0 0 0 0 0 0 0 0 127 0" result="hardAlpha"/>
<feOffset dy="4"/>
<feComposite in2="hardAlpha" operator="out"/>
<feColorMatrix type="matrix" values="0 0 0 0 0.635471 0 0 0 0 0.76142 0 0 0 0 0.897445 0 0 0 1 0"/>
<feBlend mode="normal" in2="BackgroundImageFix" result="effect1_dropShadow_327_4497"/>
<feBlend mode="normal" in="SourceGraphic" in2="effect1_dropShadow_327_4497" result="shape"/>
</filter>
<filter id="filter1_d_327_4497" x="8.38489" y="7.58183" width="16" height="17" filterUnits="userSpaceOnUse" color-interpolation-filters="sRGB">
<feFlood flood-opacity="0" result="BackgroundImageFix"/>
<feColorMatrix in="SourceAlpha" type="matrix" values="0 0 0 0 0 0 0 0 0 0 0 0 0 0 0 0 0 0 127 0" result="hardAlpha"/>
<feOffset dx="1" dy="2"/>
<feComposite in2="hardAlpha" operator="out"/>
<feColorMatrix type="matrix" values="0 0 0 0 0 0 0 0 0 0 0 0 0 0 0 0 0 0 0.25 0"/>
<feBlend mode="normal" in2="BackgroundImageFix" result="effect1_dropShadow_327_4497"/>
<feBlend mode="normal" in="SourceGraphic" in2="effect1_dropShadow_327_4497" result="shape"/>
</filter>
<filter id="filter2_d_327_4497" x="38.3844" y="7.58183" width="16" height="17" filterUnits="userSpaceOnUse" color-interpolation-filters="sRGB">
<feFlood flood-opacity="0" result="BackgroundImageFix"/>
<feColorMatrix in="SourceAlpha" type="matrix" values="0 0 0 0 0 0 0 0 0 0 0 0 0 0 0 0 0 0 127 0" result="hardAlpha"/>
<feOffset dx="1" dy="2"/>
<feComposite in2="hardAlpha" operator="out"/>
<feColorMatrix type="matrix" values="0 0 0 0 0 0 0 0 0 0 0 0 0 0 0 0 0 0 0.25 0"/>
<feBlend mode="normal" in2="BackgroundImageFix" result="effect1_dropShadow_327_4497"/>
<feBlend mode="normal" in="SourceGraphic" in2="effect1_dropShadow_327_4497" result="shape"/>
</filter>
<filter id="filter3_d_327_4497" x="8.38489" y="37.5813" width="16" height="17" filterUnits="userSpaceOnUse" color-interpolation-filters="sRGB">
<feFlood flood-opacity="0" result="BackgroundImageFix"/>
<feColorMatrix in="SourceAlpha" type="matrix" values="0 0 0 0 0 0 0 0 0 0 0 0 0 0 0 0 0 0 127 0" result="hardAlpha"/>
<feOffset dx="1" dy="2"/>
<feComposite in2="hardAlpha" operator="out"/>
<feColorMatrix type="matrix" values="0 0 0 0 0 0 0 0 0 0 0 0 0 0 0 0 0 0 0.25 0"/>
<feBlend mode="normal" in2="BackgroundImageFix" result="effect1_dropShadow_327_4497"/>
<feBlend mode="normal" in="SourceGraphic" in2="effect1_dropShadow_327_4497" result="shape"/>
</filter>
<filter id="filter4_d_327_4497" x="38.3844" y="37.5813" width="16" height="17" filterUnits="userSpaceOnUse" color-interpolation-filters="sRGB">
<feFlood flood-opacity="0" result="BackgroundImageFix"/>
<feColorMatrix in="SourceAlpha" type="matrix" values="0 0 0 0 0 0 0 0 0 0 0 0 0 0 0 0 0 0 127 0" result="hardAlpha"/>
<feOffset dx="1" dy="2"/>
<feComposite in2="hardAlpha" operator="out"/>
<feColorMatrix type="matrix" values="0 0 0 0 0 0 0 0 0 0 0 0 0 0 0 0 0 0 0.25 0"/>
<feBlend mode="normal" in2="BackgroundImageFix" result="effect1_dropShadow_327_4497"/>
<feBlend mode="normal" in="SourceGraphic" in2="effect1_dropShadow_327_4497" result="shape"/>
</filter>
<linearGradient id="paint0_linear_327_4497" x1="15.8849" y1="7.58183" x2="15.8849" y2="22.5818" gradientUnits="userSpaceOnUse">
<stop stop-color="white" stop-opacity="0.08"/>
<stop offset="1" stop-color="#BADBFF"/>
</linearGradient>
<linearGradient id="paint1_linear_327_4497" x1="45.8844" y1="7.58183" x2="45.8844" y2="22.5818" gradientUnits="userSpaceOnUse">
<stop stop-color="white" stop-opacity="0.08"/>
<stop offset="1" stop-color="#BADBFF"/>
</linearGradient>
<linearGradient id="paint2_linear_327_4497" x1="15.8849" y1="37.5813" x2="15.8849" y2="52.5813" gradientUnits="userSpaceOnUse">
<stop stop-color="white" stop-opacity="0.08"/>
<stop offset="1" stop-color="#BADBFF"/>
</linearGradient>
<linearGradient id="paint3_linear_327_4497" x1="45.8844" y1="37.5813" x2="45.8844" y2="52.5813" gradientUnits="userSpaceOnUse">
<stop stop-color="white" stop-opacity="0.08"/>
<stop offset="1" stop-color="#BADBFF"/>
</linearGradient>
</defs>
</svg>
