<svg width="48" height="35" viewBox="0 0 48 35" fill="none" xmlns="http://www.w3.org/2000/svg">
<g filter="url(#filter0_d_350_1690)">
<path fill-rule="evenodd" clip-rule="evenodd" d="M0.400865 30.1764H28.7453L28.7453 30.1764H47.6939L34.7147 0.176392H28.7453L28.7453 0.176399H0.384766L0.400865 30.1764Z" fill="#C8E1FC"/>
</g>
<g filter="url(#filter1_d_350_1690)">
<ellipse cx="15.1155" cy="15.1764" rx="7.5" ry="7.5" fill="#D6E9FF"/>
<path d="M22.1155 15.1764C22.1155 19.0424 18.9815 22.1764 15.1155 22.1764C11.2495 22.1764 8.11548 19.0424 8.11548 15.1764C8.11548 11.3104 11.2495 8.17639 15.1155 8.17639C18.9815 8.17639 22.1155 11.3104 22.1155 15.1764Z" stroke="url(#paint0_linear_350_1690)"/>
</g>
<path d="M47.6782 34.1697V30.173H44.5252L44.4067 33.4296L47.6782 34.1697Z" fill="#A2C2E5"/>
<defs>
<filter id="filter0_d_350_1690" x="0.384766" y="0.176392" width="47.3091" height="34" filterUnits="userSpaceOnUse" color-interpolation-filters="sRGB">
<feFlood flood-opacity="0" result="BackgroundImageFix"/>
<feColorMatrix in="SourceAlpha" type="matrix" values="0 0 0 0 0 0 0 0 0 0 0 0 0 0 0 0 0 0 127 0" result="hardAlpha"/>
<feOffset dy="4"/>
<feComposite in2="hardAlpha" operator="out"/>
<feColorMatrix type="matrix" values="0 0 0 0 0.635471 0 0 0 0 0.76142 0 0 0 0 0.897445 0 0 0 1 0"/>
<feBlend mode="normal" in2="BackgroundImageFix" result="effect1_dropShadow_350_1690"/>
<feBlend mode="normal" in="SourceGraphic" in2="effect1_dropShadow_350_1690" result="shape"/>
</filter>
<filter id="filter1_d_350_1690" x="7.61548" y="7.67639" width="16" height="17" filterUnits="userSpaceOnUse" color-interpolation-filters="sRGB">
<feFlood flood-opacity="0" result="BackgroundImageFix"/>
<feColorMatrix in="SourceAlpha" type="matrix" values="0 0 0 0 0 0 0 0 0 0 0 0 0 0 0 0 0 0 127 0" result="hardAlpha"/>
<feOffset dx="1" dy="2"/>
<feComposite in2="hardAlpha" operator="out"/>
<feColorMatrix type="matrix" values="0 0 0 0 0 0 0 0 0 0 0 0 0 0 0 0 0 0 0.25 0"/>
<feBlend mode="normal" in2="BackgroundImageFix" result="effect1_dropShadow_350_1690"/>
<feBlend mode="normal" in="SourceGraphic" in2="effect1_dropShadow_350_1690" result="shape"/>
</filter>
<linearGradient id="paint0_linear_350_1690" x1="15.1155" y1="7.67639" x2="15.1155" y2="22.6764" gradientUnits="userSpaceOnUse">
<stop stop-color="white" stop-opacity="0.08"/>
<stop offset="1" stop-color="#BADBFF"/>
</linearGradient>
</defs>
</svg>
