<svg width="31" height="35" viewBox="0 0 31 35" fill="none" xmlns="http://www.w3.org/2000/svg">
<g filter="url(#filter0_d_350_2919)">
<path d="M30.9873 30.3664L0.986521 30.3664L0.986527 8.36639C0.986528 3.94811 4.56825 0.366397 8.98653 0.366398L22.9873 0.366401C27.4056 0.366403 30.9873 3.94813 30.9873 8.3664L30.9873 30.3664Z" fill="#C8E1FC"/>
<g filter="url(#filter1_d_350_2919)">
<ellipse cx="15.9244" cy="16.284" rx="7.62505" ry="7.62505" fill="#D6E9FF"/>
<path d="M23.0494 16.284C23.0494 20.2191 19.8594 23.4091 15.9244 23.4091C11.9893 23.4091 8.79932 20.2191 8.79932 16.284C8.79932 12.3489 11.9893 9.15895 15.9244 9.15895C19.8594 9.15895 23.0494 12.3489 23.0494 16.284Z" stroke="url(#paint0_linear_350_2919)"/>
</g>
</g>
<defs>
<filter id="filter0_d_350_2919" x="0.986328" y="0.366394" width="30.001" height="34" filterUnits="userSpaceOnUse" color-interpolation-filters="sRGB">
<feFlood flood-opacity="0" result="BackgroundImageFix"/>
<feColorMatrix in="SourceAlpha" type="matrix" values="0 0 0 0 0 0 0 0 0 0 0 0 0 0 0 0 0 0 127 0" result="hardAlpha"/>
<feOffset dy="4"/>
<feComposite in2="hardAlpha" operator="out"/>
<feColorMatrix type="matrix" values="0 0 0 0 0.635471 0 0 0 0 0.76142 0 0 0 0 0.897445 0 0 0 1 0"/>
<feBlend mode="normal" in2="BackgroundImageFix" result="effect1_dropShadow_350_2919"/>
<feBlend mode="normal" in="SourceGraphic" in2="effect1_dropShadow_350_2919" result="shape"/>
</filter>
<filter id="filter1_d_350_2919" x="8.29932" y="8.65895" width="16.25" height="17.2501" filterUnits="userSpaceOnUse" color-interpolation-filters="sRGB">
<feFlood flood-opacity="0" result="BackgroundImageFix"/>
<feColorMatrix in="SourceAlpha" type="matrix" values="0 0 0 0 0 0 0 0 0 0 0 0 0 0 0 0 0 0 127 0" result="hardAlpha"/>
<feOffset dx="1" dy="2"/>
<feComposite in2="hardAlpha" operator="out"/>
<feColorMatrix type="matrix" values="0 0 0 0 0 0 0 0 0 0 0 0 0 0 0 0 0 0 0.25 0"/>
<feBlend mode="normal" in2="BackgroundImageFix" result="effect1_dropShadow_350_2919"/>
<feBlend mode="normal" in="SourceGraphic" in2="effect1_dropShadow_350_2919" result="shape"/>
</filter>
<linearGradient id="paint0_linear_350_2919" x1="15.9244" y1="8.65895" x2="15.9244" y2="23.9091" gradientUnits="userSpaceOnUse">
<stop stop-color="white" stop-opacity="0.08"/>
<stop offset="1" stop-color="#BADBFF"/>
</linearGradient>
</defs>
</svg>
