<svg width="31" height="65" viewBox="0 0 31 65" fill="none" xmlns="http://www.w3.org/2000/svg">
<g filter="url(#filter0_d_350_2836)">
<rect x="30.9846" y="30.6873" width="30.0008" height="30.0419" transform="rotate(-180 30.9846 30.6873)" fill="#FF7D32"/>
<rect x="30.9846" y="60.6454" width="30.0008" height="30.0419" transform="rotate(-180 30.9846 60.6454)" fill="#FF7D32"/>
<g filter="url(#filter1_d_350_2836)">
<ellipse cx="15.957" cy="45.6565" rx="7.5" ry="7.51041" transform="rotate(-180 15.957 45.6565)" fill="#FE8742"/>
<path d="M8.95703 45.6565C8.95703 41.7841 12.0917 38.6461 15.957 38.6461C19.8224 38.6461 22.957 41.7841 22.957 45.6565C22.957 49.5289 19.8224 52.6669 15.957 52.6669C12.0917 52.6669 8.95703 49.5289 8.95703 45.6565Z" stroke="url(#paint0_linear_350_2836)"/>
</g>
<g filter="url(#filter2_d_350_2836)">
<ellipse cx="15.8594" cy="16.5333" rx="7.5" ry="7.51041" transform="rotate(-180 15.8594 16.5333)" fill="#FE8742"/>
<path d="M8.85938 16.5333C8.85938 12.6609 11.994 9.52294 15.8594 9.52294C19.7247 9.52294 22.8594 12.661 22.8594 16.5333C22.8594 20.4057 19.7247 23.5438 15.8594 23.5438C11.994 23.5438 8.85938 20.4057 8.85938 16.5333Z" stroke="url(#paint1_linear_350_2836)"/>
</g>
</g>
<defs>
<filter id="filter0_d_350_2836" x="0.983887" y="0.645386" width="30.0007" height="64" filterUnits="userSpaceOnUse" color-interpolation-filters="sRGB">
<feFlood flood-opacity="0" result="BackgroundImageFix"/>
<feColorMatrix in="SourceAlpha" type="matrix" values="0 0 0 0 0 0 0 0 0 0 0 0 0 0 0 0 0 0 127 0" result="hardAlpha"/>
<feOffset dy="4"/>
<feComposite in2="hardAlpha" operator="out"/>
<feColorMatrix type="matrix" values="0 0 0 0 0.808057 0 0 0 0 0.397724 0 0 0 0 0.160993 0 0 0 1 0"/>
<feBlend mode="normal" in2="BackgroundImageFix" result="effect1_dropShadow_350_2836"/>
<feBlend mode="normal" in="SourceGraphic" in2="effect1_dropShadow_350_2836" result="shape"/>
</filter>
<filter id="filter1_d_350_2836" x="8.45703" y="38.1461" width="16" height="17.0208" filterUnits="userSpaceOnUse" color-interpolation-filters="sRGB">
<feFlood flood-opacity="0" result="BackgroundImageFix"/>
<feColorMatrix in="SourceAlpha" type="matrix" values="0 0 0 0 0 0 0 0 0 0 0 0 0 0 0 0 0 0 127 0" result="hardAlpha"/>
<feOffset dx="1" dy="2"/>
<feComposite in2="hardAlpha" operator="out"/>
<feColorMatrix type="matrix" values="0 0 0 0 0 0 0 0 0 0 0 0 0 0 0 0 0 0 0.25 0"/>
<feBlend mode="normal" in2="BackgroundImageFix" result="effect1_dropShadow_350_2836"/>
<feBlend mode="normal" in="SourceGraphic" in2="effect1_dropShadow_350_2836" result="shape"/>
</filter>
<filter id="filter2_d_350_2836" x="8.35938" y="9.02293" width="16" height="17.0208" filterUnits="userSpaceOnUse" color-interpolation-filters="sRGB">
<feFlood flood-opacity="0" result="BackgroundImageFix"/>
<feColorMatrix in="SourceAlpha" type="matrix" values="0 0 0 0 0 0 0 0 0 0 0 0 0 0 0 0 0 0 127 0" result="hardAlpha"/>
<feOffset dx="1" dy="2"/>
<feComposite in2="hardAlpha" operator="out"/>
<feColorMatrix type="matrix" values="0 0 0 0 0 0 0 0 0 0 0 0 0 0 0 0 0 0 0.25 0"/>
<feBlend mode="normal" in2="BackgroundImageFix" result="effect1_dropShadow_350_2836"/>
<feBlend mode="normal" in="SourceGraphic" in2="effect1_dropShadow_350_2836" result="shape"/>
</filter>
<linearGradient id="paint0_linear_350_2836" x1="15.957" y1="53.1669" x2="15.957" y2="38.1461" gradientUnits="userSpaceOnUse">
<stop offset="0.15" stop-color="white" stop-opacity="0.14"/>
<stop offset="0.39" stop-color="#CE6529" stop-opacity="0"/>
<stop offset="1" stop-color="#FF7D32"/>
</linearGradient>
<linearGradient id="paint1_linear_350_2836" x1="15.8594" y1="24.0438" x2="15.8594" y2="9.02294" gradientUnits="userSpaceOnUse">
<stop offset="0.15" stop-color="white" stop-opacity="0.14"/>
<stop offset="0.39" stop-color="#CE6529" stop-opacity="0"/>
<stop offset="1" stop-color="#FF7D32"/>
</linearGradient>
</defs>
</svg>
