<svg width="31" height="65" viewBox="0 0 31 65" fill="none" xmlns="http://www.w3.org/2000/svg">
<g filter="url(#filter0_d_327_4492)">
<rect x="30.7693" y="60.0815" width="30" height="30.0005" transform="rotate(-180 30.7693 60.0815)" fill="#FF7D32"/>
<rect x="30.7693" y="30.082" width="30" height="30.0005" transform="rotate(-180 30.7693 30.082)" fill="#FF7D32"/>
<g filter="url(#filter1_d_327_4492)">
<ellipse cx="15.7693" cy="45.0813" rx="7.69711" ry="7.69725" transform="rotate(-180 15.7693 45.0813)" fill="#FE8742"/>
<path d="M8.5722 45.0813C8.5722 41.1063 11.7945 37.884 15.7693 37.884C19.7442 37.884 22.9664 41.1063 22.9664 45.0813C22.9664 49.0562 19.7442 52.2785 15.7693 52.2785C11.7945 52.2785 8.5722 49.0562 8.5722 45.0813Z" stroke="url(#paint0_linear_327_4492)"/>
</g>
<g filter="url(#filter2_d_327_4492)">
<ellipse cx="15.7693" cy="15.0818" rx="7.69711" ry="7.69725" transform="rotate(-180 15.7693 15.0818)" fill="#FE8742"/>
<path d="M8.5722 15.0818C8.5722 11.1068 11.7945 7.88453 15.7693 7.88453C19.7442 7.88453 22.9664 11.1068 22.9664 15.0818C22.9664 19.0567 19.7442 22.279 15.7693 22.279C11.7945 22.279 8.5722 19.0567 8.5722 15.0818Z" stroke="url(#paint1_linear_327_4492)"/>
</g>
</g>
<defs>
<filter id="filter0_d_327_4492" x="0.769287" y="0.0815277" width="30" height="64" filterUnits="userSpaceOnUse" color-interpolation-filters="sRGB">
<feFlood flood-opacity="0" result="BackgroundImageFix"/>
<feColorMatrix in="SourceAlpha" type="matrix" values="0 0 0 0 0 0 0 0 0 0 0 0 0 0 0 0 0 0 127 0" result="hardAlpha"/>
<feOffset dy="4"/>
<feComposite in2="hardAlpha" operator="out"/>
<feColorMatrix type="matrix" values="0 0 0 0 0.808057 0 0 0 0 0.397724 0 0 0 0 0.160993 0 0 0 1 0"/>
<feBlend mode="normal" in2="BackgroundImageFix" result="effect1_dropShadow_327_4492"/>
<feBlend mode="normal" in="SourceGraphic" in2="effect1_dropShadow_327_4492" result="shape"/>
</filter>
<filter id="filter1_d_327_4492" x="8.07214" y="37.384" width="16.3943" height="17.3945" filterUnits="userSpaceOnUse" color-interpolation-filters="sRGB">
<feFlood flood-opacity="0" result="BackgroundImageFix"/>
<feColorMatrix in="SourceAlpha" type="matrix" values="0 0 0 0 0 0 0 0 0 0 0 0 0 0 0 0 0 0 127 0" result="hardAlpha"/>
<feOffset dx="1" dy="2"/>
<feComposite in2="hardAlpha" operator="out"/>
<feColorMatrix type="matrix" values="0 0 0 0 0 0 0 0 0 0 0 0 0 0 0 0 0 0 0.25 0"/>
<feBlend mode="normal" in2="BackgroundImageFix" result="effect1_dropShadow_327_4492"/>
<feBlend mode="normal" in="SourceGraphic" in2="effect1_dropShadow_327_4492" result="shape"/>
</filter>
<filter id="filter2_d_327_4492" x="8.07214" y="7.38454" width="16.3943" height="17.3945" filterUnits="userSpaceOnUse" color-interpolation-filters="sRGB">
<feFlood flood-opacity="0" result="BackgroundImageFix"/>
<feColorMatrix in="SourceAlpha" type="matrix" values="0 0 0 0 0 0 0 0 0 0 0 0 0 0 0 0 0 0 127 0" result="hardAlpha"/>
<feOffset dx="1" dy="2"/>
<feComposite in2="hardAlpha" operator="out"/>
<feColorMatrix type="matrix" values="0 0 0 0 0 0 0 0 0 0 0 0 0 0 0 0 0 0 0.25 0"/>
<feBlend mode="normal" in2="BackgroundImageFix" result="effect1_dropShadow_327_4492"/>
<feBlend mode="normal" in="SourceGraphic" in2="effect1_dropShadow_327_4492" result="shape"/>
</filter>
<linearGradient id="paint0_linear_327_4492" x1="15.7693" y1="52.7785" x2="15.7693" y2="37.384" gradientUnits="userSpaceOnUse">
<stop stop-color="white" stop-opacity="0.38"/>
<stop offset="0.715" stop-color="#CE6529" stop-opacity="0"/>
<stop offset="1" stop-color="#FF7D32"/>
</linearGradient>
<linearGradient id="paint1_linear_327_4492" x1="15.7693" y1="22.779" x2="15.7693" y2="7.38453" gradientUnits="userSpaceOnUse">
<stop stop-color="white" stop-opacity="0.38"/>
<stop offset="0.715" stop-color="#CE6529" stop-opacity="0"/>
<stop offset="1" stop-color="#FF7D32"/>
</linearGradient>
</defs>
</svg>
