<svg width="121" height="35" viewBox="0 0 121 35" fill="none" xmlns="http://www.w3.org/2000/svg">
<g filter="url(#filter0_d_350_2910)">
<rect x="30.9834" y="30.3664" width="30.0008" height="30" transform="rotate(-180 30.9834 30.3664)" fill="#C8E1FC"/>
<rect x="60.9839" y="30.3664" width="30.0008" height="30" transform="rotate(-180 60.9839 30.3664)" fill="#C8E1FC"/>
<rect x="120.986" y="30.3664" width="30.0008" height="30" transform="rotate(-180 120.986 30.3664)" fill="#C8E1FC"/>
<rect x="90.9849" y="30.3664" width="30.0008" height="30" transform="rotate(-180 90.9849 30.3664)" fill="#C8E1FC"/>
<g filter="url(#filter1_d_350_2910)">
<ellipse cx="15.983" cy="15.3664" rx="7.62505" ry="7.62505" fill="#D6E9FF"/>
<path d="M23.108 15.3664C23.108 19.3014 19.918 22.4914 15.983 22.4914C12.0479 22.4914 8.85791 19.3014 8.85791 15.3664C8.85791 11.4313 12.0479 8.24133 15.983 8.24133C19.918 8.24133 23.108 11.4313 23.108 15.3664Z" stroke="url(#paint0_linear_350_2910)"/>
</g>
<g filter="url(#filter2_d_350_2910)">
<ellipse cx="45.9832" cy="15.3664" rx="7.62505" ry="7.62505" fill="#D6E9FF"/>
<path d="M53.1082 15.3664C53.1082 19.3015 49.9183 22.4915 45.9832 22.4915C42.0481 22.4915 38.8582 19.3015 38.8582 15.3664C38.8582 11.4314 42.0481 8.24136 45.9832 8.24136C49.9183 8.24136 53.1082 11.4314 53.1082 15.3664Z" stroke="url(#paint1_linear_350_2910)"/>
</g>
<g filter="url(#filter3_d_350_2910)">
<ellipse cx="75.8455" cy="15.3664" rx="7.62505" ry="7.62505" fill="#D6E9FF"/>
<path d="M82.9706 15.3664C82.9706 19.3014 79.7806 22.4914 75.8455 22.4914C71.9105 22.4914 68.7205 19.3014 68.7205 15.3664C68.7205 11.4313 71.9105 8.24133 75.8455 8.24133C79.7806 8.24133 82.9706 11.4313 82.9706 15.3664Z" stroke="url(#paint2_linear_350_2910)"/>
</g>
<g filter="url(#filter4_d_350_2910)">
<ellipse cx="105.985" cy="15.3664" rx="7.62505" ry="7.62505" fill="#D6E9FF"/>
<path d="M113.11 15.3664C113.11 19.3015 109.92 22.4915 105.985 22.4915C102.05 22.4915 98.8601 19.3015 98.8601 15.3664C98.8601 11.4314 102.05 8.24136 105.985 8.24136C109.92 8.24136 113.11 11.4314 113.11 15.3664Z" stroke="url(#paint3_linear_350_2910)"/>
</g>
</g>
<defs>
<filter id="filter0_d_350_2910" x="0.982666" y="0.366394" width="120.003" height="34" filterUnits="userSpaceOnUse" color-interpolation-filters="sRGB">
<feFlood flood-opacity="0" result="BackgroundImageFix"/>
<feColorMatrix in="SourceAlpha" type="matrix" values="0 0 0 0 0 0 0 0 0 0 0 0 0 0 0 0 0 0 127 0" result="hardAlpha"/>
<feOffset dy="4"/>
<feComposite in2="hardAlpha" operator="out"/>
<feColorMatrix type="matrix" values="0 0 0 0 0.635471 0 0 0 0 0.76142 0 0 0 0 0.897445 0 0 0 1 0"/>
<feBlend mode="normal" in2="BackgroundImageFix" result="effect1_dropShadow_350_2910"/>
<feBlend mode="normal" in="SourceGraphic" in2="effect1_dropShadow_350_2910" result="shape"/>
</filter>
<filter id="filter1_d_350_2910" x="8.35791" y="7.74133" width="16.25" height="17.2501" filterUnits="userSpaceOnUse" color-interpolation-filters="sRGB">
<feFlood flood-opacity="0" result="BackgroundImageFix"/>
<feColorMatrix in="SourceAlpha" type="matrix" values="0 0 0 0 0 0 0 0 0 0 0 0 0 0 0 0 0 0 127 0" result="hardAlpha"/>
<feOffset dx="1" dy="2"/>
<feComposite in2="hardAlpha" operator="out"/>
<feColorMatrix type="matrix" values="0 0 0 0 0 0 0 0 0 0 0 0 0 0 0 0 0 0 0.25 0"/>
<feBlend mode="normal" in2="BackgroundImageFix" result="effect1_dropShadow_350_2910"/>
<feBlend mode="normal" in="SourceGraphic" in2="effect1_dropShadow_350_2910" result="shape"/>
</filter>
<filter id="filter2_d_350_2910" x="38.3582" y="7.74136" width="16.25" height="17.2501" filterUnits="userSpaceOnUse" color-interpolation-filters="sRGB">
<feFlood flood-opacity="0" result="BackgroundImageFix"/>
<feColorMatrix in="SourceAlpha" type="matrix" values="0 0 0 0 0 0 0 0 0 0 0 0 0 0 0 0 0 0 127 0" result="hardAlpha"/>
<feOffset dx="1" dy="2"/>
<feComposite in2="hardAlpha" operator="out"/>
<feColorMatrix type="matrix" values="0 0 0 0 0 0 0 0 0 0 0 0 0 0 0 0 0 0 0.25 0"/>
<feBlend mode="normal" in2="BackgroundImageFix" result="effect1_dropShadow_350_2910"/>
<feBlend mode="normal" in="SourceGraphic" in2="effect1_dropShadow_350_2910" result="shape"/>
</filter>
<filter id="filter3_d_350_2910" x="68.2205" y="7.74133" width="16.25" height="17.2501" filterUnits="userSpaceOnUse" color-interpolation-filters="sRGB">
<feFlood flood-opacity="0" result="BackgroundImageFix"/>
<feColorMatrix in="SourceAlpha" type="matrix" values="0 0 0 0 0 0 0 0 0 0 0 0 0 0 0 0 0 0 127 0" result="hardAlpha"/>
<feOffset dx="1" dy="2"/>
<feComposite in2="hardAlpha" operator="out"/>
<feColorMatrix type="matrix" values="0 0 0 0 0 0 0 0 0 0 0 0 0 0 0 0 0 0 0.25 0"/>
<feBlend mode="normal" in2="BackgroundImageFix" result="effect1_dropShadow_350_2910"/>
<feBlend mode="normal" in="SourceGraphic" in2="effect1_dropShadow_350_2910" result="shape"/>
</filter>
<filter id="filter4_d_350_2910" x="98.3601" y="7.74136" width="16.25" height="17.2501" filterUnits="userSpaceOnUse" color-interpolation-filters="sRGB">
<feFlood flood-opacity="0" result="BackgroundImageFix"/>
<feColorMatrix in="SourceAlpha" type="matrix" values="0 0 0 0 0 0 0 0 0 0 0 0 0 0 0 0 0 0 127 0" result="hardAlpha"/>
<feOffset dx="1" dy="2"/>
<feComposite in2="hardAlpha" operator="out"/>
<feColorMatrix type="matrix" values="0 0 0 0 0 0 0 0 0 0 0 0 0 0 0 0 0 0 0.25 0"/>
<feBlend mode="normal" in2="BackgroundImageFix" result="effect1_dropShadow_350_2910"/>
<feBlend mode="normal" in="SourceGraphic" in2="effect1_dropShadow_350_2910" result="shape"/>
</filter>
<linearGradient id="paint0_linear_350_2910" x1="15.983" y1="7.74133" x2="15.983" y2="22.9914" gradientUnits="userSpaceOnUse">
<stop stop-color="white" stop-opacity="0.08"/>
<stop offset="1" stop-color="#BADBFF"/>
</linearGradient>
<linearGradient id="paint1_linear_350_2910" x1="45.9832" y1="7.74136" x2="45.9832" y2="22.9915" gradientUnits="userSpaceOnUse">
<stop stop-color="white" stop-opacity="0.08"/>
<stop offset="1" stop-color="#BADBFF"/>
</linearGradient>
<linearGradient id="paint2_linear_350_2910" x1="75.8455" y1="7.74133" x2="75.8455" y2="22.9914" gradientUnits="userSpaceOnUse">
<stop stop-color="white" stop-opacity="0.08"/>
<stop offset="1" stop-color="#BADBFF"/>
</linearGradient>
<linearGradient id="paint3_linear_350_2910" x1="105.985" y1="7.74136" x2="105.985" y2="22.9915" gradientUnits="userSpaceOnUse">
<stop stop-color="white" stop-opacity="0.08"/>
<stop offset="1" stop-color="#BADBFF"/>
</linearGradient>
</defs>
</svg>
