<svg width="30" height="65" viewBox="0 0 30 65" fill="none" xmlns="http://www.w3.org/2000/svg">
<g filter="url(#filter0_d_327_4523)">
<rect x="30" y="60.0815" width="30" height="30.0005" transform="rotate(-180 30 60.0815)" fill="#C1FF05"/>
<rect x="30" y="30.0821" width="30" height="30.0005" transform="rotate(-180 30 30.0821)" fill="#C1FF05"/>
<g filter="url(#filter1_d_327_4523)">
<ellipse cx="15" cy="45.0813" rx="7.69712" ry="7.69725" transform="rotate(-180 15 45.0813)" fill="#D6FF5A"/>
<path d="M7.80291 45.0813C7.80291 41.1063 11.0252 37.884 15 37.884C18.9749 37.884 22.1971 41.1063 22.1971 45.0813C22.1971 49.0562 18.9749 52.2785 15 52.2785C11.0252 52.2785 7.80291 49.0562 7.80291 45.0813Z" stroke="url(#paint0_linear_327_4523)"/>
</g>
<g filter="url(#filter2_d_327_4523)">
<ellipse cx="15" cy="15.0818" rx="7.69712" ry="7.69725" transform="rotate(-180 15 15.0818)" fill="#D6FF5A"/>
<path d="M7.80291 15.0818C7.80291 11.1069 11.0252 7.88455 15 7.88455C18.9749 7.88455 22.1971 11.1069 22.1971 15.0818C22.1971 19.0567 18.9749 22.2791 15 22.2791C11.0252 22.2791 7.80291 19.0567 7.80291 15.0818Z" stroke="url(#paint1_linear_327_4523)"/>
</g>
</g>
<defs>
<filter id="filter0_d_327_4523" x="0" y="0.081543" width="30" height="64" filterUnits="userSpaceOnUse" color-interpolation-filters="sRGB">
<feFlood flood-opacity="0" result="BackgroundImageFix"/>
<feColorMatrix in="SourceAlpha" type="matrix" values="0 0 0 0 0 0 0 0 0 0 0 0 0 0 0 0 0 0 127 0" result="hardAlpha"/>
<feOffset dy="4"/>
<feComposite in2="hardAlpha" operator="out"/>
<feColorMatrix type="matrix" values="0 0 0 0 0.591155 0 0 0 0 0.737402 0 0 0 0 0.147697 0 0 0 1 0"/>
<feBlend mode="normal" in2="BackgroundImageFix" result="effect1_dropShadow_327_4523"/>
<feBlend mode="normal" in="SourceGraphic" in2="effect1_dropShadow_327_4523" result="shape"/>
</filter>
<filter id="filter1_d_327_4523" x="7.30286" y="37.384" width="16.3943" height="17.3945" filterUnits="userSpaceOnUse" color-interpolation-filters="sRGB">
<feFlood flood-opacity="0" result="BackgroundImageFix"/>
<feColorMatrix in="SourceAlpha" type="matrix" values="0 0 0 0 0 0 0 0 0 0 0 0 0 0 0 0 0 0 127 0" result="hardAlpha"/>
<feOffset dx="1" dy="2"/>
<feComposite in2="hardAlpha" operator="out"/>
<feColorMatrix type="matrix" values="0 0 0 0 0 0 0 0 0 0 0 0 0 0 0 0 0 0 0.25 0"/>
<feBlend mode="normal" in2="BackgroundImageFix" result="effect1_dropShadow_327_4523"/>
<feBlend mode="normal" in="SourceGraphic" in2="effect1_dropShadow_327_4523" result="shape"/>
</filter>
<filter id="filter2_d_327_4523" x="7.30286" y="7.38455" width="16.3943" height="17.3945" filterUnits="userSpaceOnUse" color-interpolation-filters="sRGB">
<feFlood flood-opacity="0" result="BackgroundImageFix"/>
<feColorMatrix in="SourceAlpha" type="matrix" values="0 0 0 0 0 0 0 0 0 0 0 0 0 0 0 0 0 0 127 0" result="hardAlpha"/>
<feOffset dx="1" dy="2"/>
<feComposite in2="hardAlpha" operator="out"/>
<feColorMatrix type="matrix" values="0 0 0 0 0 0 0 0 0 0 0 0 0 0 0 0 0 0 0.25 0"/>
<feBlend mode="normal" in2="BackgroundImageFix" result="effect1_dropShadow_327_4523"/>
<feBlend mode="normal" in="SourceGraphic" in2="effect1_dropShadow_327_4523" result="shape"/>
</filter>
<linearGradient id="paint0_linear_327_4523" x1="15" y1="52.7785" x2="15" y2="37.384" gradientUnits="userSpaceOnUse">
<stop offset="0.07" stop-color="white" stop-opacity="0.46"/>
<stop offset="0.385" stop-color="#C1FF05"/>
<stop offset="1" stop-color="#B7E52E"/>
</linearGradient>
<linearGradient id="paint1_linear_327_4523" x1="15" y1="22.7791" x2="15" y2="7.38455" gradientUnits="userSpaceOnUse">
<stop offset="0.07" stop-color="white" stop-opacity="0.46"/>
<stop offset="0.385" stop-color="#C1FF05"/>
<stop offset="1" stop-color="#B7E52E"/>
</linearGradient>
</defs>
</svg>
