<svg width="61" height="65" viewBox="0 0 61 65" fill="none" xmlns="http://www.w3.org/2000/svg">
<g filter="url(#filter0_d_327_4483)">
<path d="M0.653809 16.0816C0.653809 7.24502 7.81725 0.0815735 16.6538 0.0815735H30.6543V30.0821H0.653809V16.0816Z" fill="#9E6FC3"/>
<rect x="30.6533" y="0.0815735" width="30.0005" height="30.0005" fill="#9E6FC3"/>
<rect x="0.653809" y="30.0811" width="30.0005" height="30.0005" fill="#9E6FC3"/>
<rect x="30.6533" y="30.081" width="30.0005" height="30.0005" fill="#9E6FC3"/>
<g filter="url(#filter1_d_327_4483)">
<ellipse cx="45.6536" cy="15.0818" rx="7.5" ry="7.5" fill="#AD79D6"/>
<path d="M52.6536 15.0818C52.6536 18.9478 49.5196 22.0818 45.6536 22.0818C41.7876 22.0818 38.6536 18.9478 38.6536 15.0818C38.6536 11.2158 41.7876 8.08182 45.6536 8.08182C49.5196 8.08182 52.6536 11.2158 52.6536 15.0818Z" stroke="url(#paint0_linear_327_4483)"/>
</g>
<g filter="url(#filter2_d_327_4483)">
<ellipse cx="15.6541" cy="15.0818" rx="7.5" ry="7.5" fill="#AD79D6"/>
<path d="M22.6541 15.0818C22.6541 18.9478 19.52 22.0818 15.6541 22.0818C11.7881 22.0818 8.65405 18.9478 8.65405 15.0818C8.65405 11.2158 11.7881 8.08182 15.6541 8.08182C19.52 8.08182 22.6541 11.2158 22.6541 15.0818Z" stroke="url(#paint1_linear_327_4483)"/>
</g>
<g filter="url(#filter3_d_327_4483)">
<ellipse cx="45.6536" cy="45.0813" rx="7.5" ry="7.5" fill="#AD79D6"/>
<path d="M52.6536 45.0813C52.6536 48.9473 49.5196 52.0813 45.6536 52.0813C41.7876 52.0813 38.6536 48.9473 38.6536 45.0813C38.6536 41.2153 41.7876 38.0813 45.6536 38.0813C49.5196 38.0813 52.6536 41.2153 52.6536 45.0813Z" stroke="url(#paint2_linear_327_4483)"/>
</g>
<g filter="url(#filter4_d_327_4483)">
<ellipse cx="15.6541" cy="45.0813" rx="7.5" ry="7.5" fill="#AD79D6"/>
<path d="M22.6541 45.0813C22.6541 48.9473 19.52 52.0813 15.6541 52.0813C11.7881 52.0813 8.65405 48.9473 8.65405 45.0813C8.65405 41.2153 11.7881 38.0813 15.6541 38.0813C19.52 38.0813 22.6541 41.2153 22.6541 45.0813Z" stroke="url(#paint3_linear_327_4483)"/>
</g>
</g>
<defs>
<filter id="filter0_d_327_4483" x="0.653809" y="0.0815735" width="60" height="64" filterUnits="userSpaceOnUse" color-interpolation-filters="sRGB">
<feFlood flood-opacity="0" result="BackgroundImageFix"/>
<feColorMatrix in="SourceAlpha" type="matrix" values="0 0 0 0 0 0 0 0 0 0 0 0 0 0 0 0 0 0 127 0" result="hardAlpha"/>
<feOffset dy="4"/>
<feComposite in2="hardAlpha" operator="out"/>
<feColorMatrix type="matrix" values="0 0 0 0 0.48499 0 0 0 0 0.312805 0 0 0 0 0.62054 0 0 0 1 0"/>
<feBlend mode="normal" in2="BackgroundImageFix" result="effect1_dropShadow_327_4483"/>
<feBlend mode="normal" in="SourceGraphic" in2="effect1_dropShadow_327_4483" result="shape"/>
</filter>
<filter id="filter1_d_327_4483" x="38.1536" y="7.58182" width="16" height="17" filterUnits="userSpaceOnUse" color-interpolation-filters="sRGB">
<feFlood flood-opacity="0" result="BackgroundImageFix"/>
<feColorMatrix in="SourceAlpha" type="matrix" values="0 0 0 0 0 0 0 0 0 0 0 0 0 0 0 0 0 0 127 0" result="hardAlpha"/>
<feOffset dx="1" dy="2"/>
<feComposite in2="hardAlpha" operator="out"/>
<feColorMatrix type="matrix" values="0 0 0 0 0 0 0 0 0 0 0 0 0 0 0 0 0 0 0.25 0"/>
<feBlend mode="normal" in2="BackgroundImageFix" result="effect1_dropShadow_327_4483"/>
<feBlend mode="normal" in="SourceGraphic" in2="effect1_dropShadow_327_4483" result="shape"/>
</filter>
<filter id="filter2_d_327_4483" x="8.15405" y="7.58182" width="16" height="17" filterUnits="userSpaceOnUse" color-interpolation-filters="sRGB">
<feFlood flood-opacity="0" result="BackgroundImageFix"/>
<feColorMatrix in="SourceAlpha" type="matrix" values="0 0 0 0 0 0 0 0 0 0 0 0 0 0 0 0 0 0 127 0" result="hardAlpha"/>
<feOffset dx="1" dy="2"/>
<feComposite in2="hardAlpha" operator="out"/>
<feColorMatrix type="matrix" values="0 0 0 0 0 0 0 0 0 0 0 0 0 0 0 0 0 0 0.25 0"/>
<feBlend mode="normal" in2="BackgroundImageFix" result="effect1_dropShadow_327_4483"/>
<feBlend mode="normal" in="SourceGraphic" in2="effect1_dropShadow_327_4483" result="shape"/>
</filter>
<filter id="filter3_d_327_4483" x="38.1536" y="37.5813" width="16" height="17" filterUnits="userSpaceOnUse" color-interpolation-filters="sRGB">
<feFlood flood-opacity="0" result="BackgroundImageFix"/>
<feColorMatrix in="SourceAlpha" type="matrix" values="0 0 0 0 0 0 0 0 0 0 0 0 0 0 0 0 0 0 127 0" result="hardAlpha"/>
<feOffset dx="1" dy="2"/>
<feComposite in2="hardAlpha" operator="out"/>
<feColorMatrix type="matrix" values="0 0 0 0 0 0 0 0 0 0 0 0 0 0 0 0 0 0 0.25 0"/>
<feBlend mode="normal" in2="BackgroundImageFix" result="effect1_dropShadow_327_4483"/>
<feBlend mode="normal" in="SourceGraphic" in2="effect1_dropShadow_327_4483" result="shape"/>
</filter>
<filter id="filter4_d_327_4483" x="8.15405" y="37.5813" width="16" height="17" filterUnits="userSpaceOnUse" color-interpolation-filters="sRGB">
<feFlood flood-opacity="0" result="BackgroundImageFix"/>
<feColorMatrix in="SourceAlpha" type="matrix" values="0 0 0 0 0 0 0 0 0 0 0 0 0 0 0 0 0 0 127 0" result="hardAlpha"/>
<feOffset dx="1" dy="2"/>
<feComposite in2="hardAlpha" operator="out"/>
<feColorMatrix type="matrix" values="0 0 0 0 0 0 0 0 0 0 0 0 0 0 0 0 0 0 0.25 0"/>
<feBlend mode="normal" in2="BackgroundImageFix" result="effect1_dropShadow_327_4483"/>
<feBlend mode="normal" in="SourceGraphic" in2="effect1_dropShadow_327_4483" result="shape"/>
</filter>
<linearGradient id="paint0_linear_327_4483" x1="45.6536" y1="7.58182" x2="45.6536" y2="22.5818" gradientUnits="userSpaceOnUse">
<stop stop-color="white" stop-opacity="0"/>
<stop offset="0.555" stop-color="#A478C7" stop-opacity="0.935"/>
<stop offset="1" stop-color="#9E6FC3"/>
</linearGradient>
<linearGradient id="paint1_linear_327_4483" x1="15.6541" y1="7.58182" x2="15.6541" y2="22.5818" gradientUnits="userSpaceOnUse">
<stop stop-color="white" stop-opacity="0"/>
<stop offset="0.555" stop-color="#A478C7" stop-opacity="0.935"/>
<stop offset="1" stop-color="#9E6FC3"/>
</linearGradient>
<linearGradient id="paint2_linear_327_4483" x1="45.6536" y1="37.5813" x2="45.6536" y2="52.5813" gradientUnits="userSpaceOnUse">
<stop stop-color="white" stop-opacity="0"/>
<stop offset="0.555" stop-color="#A478C7" stop-opacity="0.935"/>
<stop offset="1" stop-color="#9E6FC3"/>
</linearGradient>
<linearGradient id="paint3_linear_327_4483" x1="15.6541" y1="37.5813" x2="15.6541" y2="52.5813" gradientUnits="userSpaceOnUse">
<stop stop-color="white" stop-opacity="0"/>
<stop offset="0.555" stop-color="#A478C7" stop-opacity="0.935"/>
<stop offset="1" stop-color="#9E6FC3"/>
</linearGradient>
</defs>
</svg>
