<svg width="61" height="65" viewBox="0 0 61 65" fill="none" xmlns="http://www.w3.org/2000/svg">
<g filter="url(#filter0_d_351_54)">
<path fill-rule="evenodd" clip-rule="evenodd" d="M0.779297 31.0781L30.7879 31.0781L30.7879 0.940822L0.779297 0.940833V31.0781ZM60.603 30.9465H60.7791V31.0121L36.7697 31.0121L60.5737 31.0121L60.5737 60.9408L30.7879 60.9408L30.7879 31.0121L30.7879 0.940771L47.6476 0.940765L60.603 30.9465Z" fill="#9E6FC3"/>
<g filter="url(#filter1_d_351_54)">
<ellipse cx="45.6654" cy="45.8339" rx="7.24161" ry="7.48197" fill="#AD79D6"/>
<path d="M52.407 45.8339C52.407 49.7055 49.3735 52.8159 45.6654 52.8159C41.9574 52.8159 38.9238 49.7055 38.9238 45.8339C38.9238 41.9624 41.9574 38.852 45.6654 38.852C49.3735 38.852 52.407 41.9624 52.407 45.8339Z" stroke="url(#paint0_linear_351_54)"/>
</g>
<g filter="url(#filter2_d_351_54)">
<ellipse cx="39.047" cy="15.7987" rx="7.24161" ry="7.48197" fill="#AD79D6"/>
<path d="M45.7886 15.7987C45.7886 19.6702 42.7551 22.7806 39.047 22.7806C35.339 22.7806 32.3054 19.6702 32.3054 15.7987C32.3054 11.9271 35.339 8.81668 39.047 8.81668C42.7551 8.81668 45.7886 11.9271 45.7886 15.7987Z" stroke="url(#paint1_linear_351_54)"/>
</g>
<g filter="url(#filter3_d_351_54)">
<ellipse cx="15.1108" cy="15.9051" rx="7.24161" ry="7.48197" fill="#AD79D6"/>
<path d="M21.8524 15.9051C21.8524 19.7767 18.8188 22.8871 15.1107 22.8871C11.4027 22.8871 8.36914 19.7767 8.36914 15.9051C8.36914 12.0336 11.4027 8.92316 15.1108 8.92316C18.8188 8.92316 21.8524 12.0336 21.8524 15.9051Z" stroke="url(#paint2_linear_351_54)"/>
</g>
</g>
<defs>
<filter id="filter0_d_351_54" x="0.779297" y="0.940765" width="59.9998" height="64" filterUnits="userSpaceOnUse" color-interpolation-filters="sRGB">
<feFlood flood-opacity="0" result="BackgroundImageFix"/>
<feColorMatrix in="SourceAlpha" type="matrix" values="0 0 0 0 0 0 0 0 0 0 0 0 0 0 0 0 0 0 127 0" result="hardAlpha"/>
<feOffset dy="4"/>
<feComposite in2="hardAlpha" operator="out"/>
<feColorMatrix type="matrix" values="0 0 0 0 0.48499 0 0 0 0 0.312805 0 0 0 0 0.62054 0 0 0 1 0"/>
<feBlend mode="normal" in2="BackgroundImageFix" result="effect1_dropShadow_351_54"/>
<feBlend mode="normal" in="SourceGraphic" in2="effect1_dropShadow_351_54" result="shape"/>
</filter>
<filter id="filter1_d_351_54" x="38.4238" y="38.352" width="15.4832" height="16.9639" filterUnits="userSpaceOnUse" color-interpolation-filters="sRGB">
<feFlood flood-opacity="0" result="BackgroundImageFix"/>
<feColorMatrix in="SourceAlpha" type="matrix" values="0 0 0 0 0 0 0 0 0 0 0 0 0 0 0 0 0 0 127 0" result="hardAlpha"/>
<feOffset dx="1" dy="2"/>
<feComposite in2="hardAlpha" operator="out"/>
<feColorMatrix type="matrix" values="0 0 0 0 0 0 0 0 0 0 0 0 0 0 0 0 0 0 0.25 0"/>
<feBlend mode="normal" in2="BackgroundImageFix" result="effect1_dropShadow_351_54"/>
<feBlend mode="normal" in="SourceGraphic" in2="effect1_dropShadow_351_54" result="shape"/>
</filter>
<filter id="filter2_d_351_54" x="31.8054" y="8.31668" width="15.4832" height="16.9639" filterUnits="userSpaceOnUse" color-interpolation-filters="sRGB">
<feFlood flood-opacity="0" result="BackgroundImageFix"/>
<feColorMatrix in="SourceAlpha" type="matrix" values="0 0 0 0 0 0 0 0 0 0 0 0 0 0 0 0 0 0 127 0" result="hardAlpha"/>
<feOffset dx="1" dy="2"/>
<feComposite in2="hardAlpha" operator="out"/>
<feColorMatrix type="matrix" values="0 0 0 0 0 0 0 0 0 0 0 0 0 0 0 0 0 0 0.25 0"/>
<feBlend mode="normal" in2="BackgroundImageFix" result="effect1_dropShadow_351_54"/>
<feBlend mode="normal" in="SourceGraphic" in2="effect1_dropShadow_351_54" result="shape"/>
</filter>
<filter id="filter3_d_351_54" x="7.86914" y="8.42316" width="15.4832" height="16.9639" filterUnits="userSpaceOnUse" color-interpolation-filters="sRGB">
<feFlood flood-opacity="0" result="BackgroundImageFix"/>
<feColorMatrix in="SourceAlpha" type="matrix" values="0 0 0 0 0 0 0 0 0 0 0 0 0 0 0 0 0 0 127 0" result="hardAlpha"/>
<feOffset dx="1" dy="2"/>
<feComposite in2="hardAlpha" operator="out"/>
<feColorMatrix type="matrix" values="0 0 0 0 0 0 0 0 0 0 0 0 0 0 0 0 0 0 0.25 0"/>
<feBlend mode="normal" in2="BackgroundImageFix" result="effect1_dropShadow_351_54"/>
<feBlend mode="normal" in="SourceGraphic" in2="effect1_dropShadow_351_54" result="shape"/>
</filter>
<linearGradient id="paint0_linear_351_54" x1="45.6654" y1="38.352" x2="45.6654" y2="53.3159" gradientUnits="userSpaceOnUse">
<stop stop-color="white" stop-opacity="0"/>
<stop offset="0.555" stop-color="#A478C7" stop-opacity="0.935"/>
<stop offset="1" stop-color="#9E6FC3"/>
</linearGradient>
<linearGradient id="paint1_linear_351_54" x1="39.047" y1="8.31668" x2="39.047" y2="23.2806" gradientUnits="userSpaceOnUse">
<stop stop-color="white" stop-opacity="0"/>
<stop offset="0.555" stop-color="#A478C7" stop-opacity="0.935"/>
<stop offset="1" stop-color="#9E6FC3"/>
</linearGradient>
<linearGradient id="paint2_linear_351_54" x1="15.1108" y1="8.42316" x2="15.1107" y2="23.3871" gradientUnits="userSpaceOnUse">
<stop stop-color="white" stop-opacity="0"/>
<stop offset="0.555" stop-color="#A478C7" stop-opacity="0.935"/>
<stop offset="1" stop-color="#9E6FC3"/>
</linearGradient>
</defs>
</svg>
