<svg width="91" height="35" viewBox="0 0 91 35" fill="none" xmlns="http://www.w3.org/2000/svg">
<g filter="url(#filter0_d_350_1723)">
<path fill-rule="evenodd" clip-rule="evenodd" d="M0.798828 30.7902H30.7996L30.7996 30.7902L60.8003 30.7902L60.8004 30.7902H90.8011L90.8011 0.79023H60.8004L60.8003 0.790222H30.7996H0.798836L0.798828 30.7902Z" fill="#FF7D32"/>
</g>
<g filter="url(#filter1_d_350_1723)">
<ellipse cx="15.7991" cy="15.7902" rx="7.5" ry="7.49994" transform="rotate(-180 15.7991 15.7902)" fill="#FE8742"/>
<path d="M8.79907 15.7902C8.79907 11.9243 11.9331 8.79028 15.7991 8.79028C19.6651 8.79028 22.7991 11.9243 22.7991 15.7902C22.7991 19.6562 19.6651 22.7902 15.7991 22.7902C11.9331 22.7902 8.79907 19.6562 8.79907 15.7902Z" stroke="url(#paint0_linear_350_1723)"/>
</g>
<g filter="url(#filter2_d_350_1723)">
<ellipse cx="45.8" cy="15.7902" rx="7.5" ry="7.49994" transform="rotate(-180 45.8 15.7902)" fill="#FE8742"/>
<path d="M38.8 15.7902C38.8 11.9243 41.9341 8.79028 45.8001 8.79028C49.666 8.79028 52.8 11.9243 52.8 15.7902C52.8 19.6562 49.666 22.7902 45.8 22.7902C41.9341 22.7902 38.8 19.6562 38.8 15.7902Z" stroke="url(#paint1_linear_350_1723)"/>
</g>
<g filter="url(#filter3_d_350_1723)">
<ellipse cx="75.801" cy="15.7902" rx="7.5" ry="7.49994" transform="rotate(-180 75.801 15.7902)" fill="#FE8742"/>
<path d="M68.801 15.7902C68.801 11.9243 71.935 8.79028 75.801 8.79028C79.667 8.79028 82.801 11.9243 82.801 15.7902C82.801 19.6562 79.667 22.7902 75.801 22.7902C71.935 22.7902 68.801 19.6562 68.801 15.7902Z" stroke="url(#paint2_linear_350_1723)"/>
</g>
<defs>
<filter id="filter0_d_350_1723" x="0.798828" y="0.790222" width="90.0022" height="34" filterUnits="userSpaceOnUse" color-interpolation-filters="sRGB">
<feFlood flood-opacity="0" result="BackgroundImageFix"/>
<feColorMatrix in="SourceAlpha" type="matrix" values="0 0 0 0 0 0 0 0 0 0 0 0 0 0 0 0 0 0 127 0" result="hardAlpha"/>
<feOffset dy="4"/>
<feComposite in2="hardAlpha" operator="out"/>
<feColorMatrix type="matrix" values="0 0 0 0 0.808057 0 0 0 0 0.397724 0 0 0 0 0.160993 0 0 0 1 0"/>
<feBlend mode="normal" in2="BackgroundImageFix" result="effect1_dropShadow_350_1723"/>
<feBlend mode="normal" in="SourceGraphic" in2="effect1_dropShadow_350_1723" result="shape"/>
</filter>
<filter id="filter1_d_350_1723" x="8.29907" y="8.29028" width="16" height="16.9999" filterUnits="userSpaceOnUse" color-interpolation-filters="sRGB">
<feFlood flood-opacity="0" result="BackgroundImageFix"/>
<feColorMatrix in="SourceAlpha" type="matrix" values="0 0 0 0 0 0 0 0 0 0 0 0 0 0 0 0 0 0 127 0" result="hardAlpha"/>
<feOffset dx="1" dy="2"/>
<feComposite in2="hardAlpha" operator="out"/>
<feColorMatrix type="matrix" values="0 0 0 0 0 0 0 0 0 0 0 0 0 0 0 0 0 0 0.25 0"/>
<feBlend mode="normal" in2="BackgroundImageFix" result="effect1_dropShadow_350_1723"/>
<feBlend mode="normal" in="SourceGraphic" in2="effect1_dropShadow_350_1723" result="shape"/>
</filter>
<filter id="filter2_d_350_1723" x="38.3" y="8.29028" width="16" height="16.9999" filterUnits="userSpaceOnUse" color-interpolation-filters="sRGB">
<feFlood flood-opacity="0" result="BackgroundImageFix"/>
<feColorMatrix in="SourceAlpha" type="matrix" values="0 0 0 0 0 0 0 0 0 0 0 0 0 0 0 0 0 0 127 0" result="hardAlpha"/>
<feOffset dx="1" dy="2"/>
<feComposite in2="hardAlpha" operator="out"/>
<feColorMatrix type="matrix" values="0 0 0 0 0 0 0 0 0 0 0 0 0 0 0 0 0 0 0.25 0"/>
<feBlend mode="normal" in2="BackgroundImageFix" result="effect1_dropShadow_350_1723"/>
<feBlend mode="normal" in="SourceGraphic" in2="effect1_dropShadow_350_1723" result="shape"/>
</filter>
<filter id="filter3_d_350_1723" x="68.301" y="8.29028" width="16" height="16.9999" filterUnits="userSpaceOnUse" color-interpolation-filters="sRGB">
<feFlood flood-opacity="0" result="BackgroundImageFix"/>
<feColorMatrix in="SourceAlpha" type="matrix" values="0 0 0 0 0 0 0 0 0 0 0 0 0 0 0 0 0 0 127 0" result="hardAlpha"/>
<feOffset dx="1" dy="2"/>
<feComposite in2="hardAlpha" operator="out"/>
<feColorMatrix type="matrix" values="0 0 0 0 0 0 0 0 0 0 0 0 0 0 0 0 0 0 0.25 0"/>
<feBlend mode="normal" in2="BackgroundImageFix" result="effect1_dropShadow_350_1723"/>
<feBlend mode="normal" in="SourceGraphic" in2="effect1_dropShadow_350_1723" result="shape"/>
</filter>
<linearGradient id="paint0_linear_350_1723" x1="15.7991" y1="23.2902" x2="15.7991" y2="8.29028" gradientUnits="userSpaceOnUse">
<stop offset="0.15" stop-color="white" stop-opacity="0.14"/>
<stop offset="0.39" stop-color="#CE6529" stop-opacity="0"/>
<stop offset="1" stop-color="#FF7D32"/>
</linearGradient>
<linearGradient id="paint1_linear_350_1723" x1="45.8" y1="23.2902" x2="45.8001" y2="8.29028" gradientUnits="userSpaceOnUse">
<stop offset="0.15" stop-color="white" stop-opacity="0.14"/>
<stop offset="0.39" stop-color="#CE6529" stop-opacity="0"/>
<stop offset="1" stop-color="#FF7D32"/>
</linearGradient>
<linearGradient id="paint2_linear_350_1723" x1="75.801" y1="23.2902" x2="75.801" y2="8.29028" gradientUnits="userSpaceOnUse">
<stop offset="0.15" stop-color="white" stop-opacity="0.14"/>
<stop offset="0.39" stop-color="#CE6529" stop-opacity="0"/>
<stop offset="1" stop-color="#FF7D32"/>
</linearGradient>
</defs>
</svg>
