<svg width="120" height="35" viewBox="0 0 120 35" fill="none" xmlns="http://www.w3.org/2000/svg">
<g filter="url(#filter0_d_327_4537)">
<path d="M89.9985 30.2237L103.999 30.2237C112.836 30.2237 119.999 23.0603 119.999 14.2237L119.999 0.223761L89.9985 0.223759L89.9985 30.2237Z" fill="#C8E1FC"/>
<path d="M59.9988 30.2237L89.9995 30.2237L89.9995 0.223746L59.9988 0.223743L59.9988 30.2237Z" fill="#C8E1FC"/>
<path d="M29.999 30.2237L59.9998 30.2237L59.9998 0.223746L29.999 0.223743L29.999 30.2237Z" fill="#C8E1FC"/>
<path d="M-0.000732422 30.2237L30 30.2237L30 0.223777L-0.000729799 0.223774L-0.000732422 30.2237Z" fill="#C8E1FC"/>
<g filter="url(#filter1_d_327_4537)">
<ellipse cx="7.5" cy="7.4998" rx="7.5" ry="7.4998" transform="matrix(-1 -1.74846e-07 -1.74846e-07 1 82.6243 7.59883)" fill="#D6E9FF"/>
<path d="M68.1243 15.0986C68.1243 18.9645 71.2583 22.0984 75.1243 22.0984C78.9903 22.0984 82.1243 18.9645 82.1243 15.0986C82.1243 11.2328 78.9903 8.09883 75.1243 8.09883C71.2583 8.09883 68.1243 11.2328 68.1243 15.0986Z" stroke="url(#paint0_linear_327_4537)"/>
</g>
<g filter="url(#filter2_d_327_4537)">
<ellipse cx="7.5" cy="7.4998" rx="7.5" ry="7.4998" transform="matrix(-1 -1.74846e-07 -1.74846e-07 1 112.624 7.59885)" fill="#D6E9FF"/>
<path d="M98.124 15.0986C98.124 18.9645 101.258 22.0984 105.124 22.0984C108.99 22.0984 112.124 18.9645 112.124 15.0986C112.124 11.2328 108.99 8.09885 105.124 8.09885C101.258 8.09884 98.124 11.2328 98.124 15.0986Z" stroke="url(#paint1_linear_327_4537)"/>
</g>
<g filter="url(#filter3_d_327_4537)">
<ellipse cx="7.5" cy="7.4998" rx="7.5" ry="7.4998" transform="matrix(-1 -1.74846e-07 -1.74846e-07 1 52.6245 7.5988)" fill="#D6E9FF"/>
<path d="M38.1245 15.0986C38.1245 18.9645 41.2585 22.0984 45.1245 22.0984C48.9905 22.0984 52.1245 18.9645 52.1245 15.0986C52.1245 11.2327 48.9905 8.0988 45.1245 8.0988C41.2585 8.0988 38.1245 11.2327 38.1245 15.0986Z" stroke="url(#paint2_linear_327_4537)"/>
</g>
<g filter="url(#filter4_d_327_4537)">
<ellipse cx="7.5" cy="7.4998" rx="7.5" ry="7.4998" transform="matrix(-1 -1.74846e-07 -1.74846e-07 1 22.697 7.52664)" fill="#D6E9FF"/>
<path d="M8.19702 15.0264C8.19702 18.8923 11.331 22.0262 15.197 22.0262C19.063 22.0262 22.197 18.8923 22.197 15.0264C22.197 11.1606 19.063 8.02664 15.197 8.02664C11.331 8.02664 8.19702 11.1606 8.19702 15.0264Z" stroke="url(#paint3_linear_327_4537)"/>
</g>
</g>
<defs>
<filter id="filter0_d_327_4537" x="-0.000732422" y="0.22374" width="120" height="34" filterUnits="userSpaceOnUse" color-interpolation-filters="sRGB">
<feFlood flood-opacity="0" result="BackgroundImageFix"/>
<feColorMatrix in="SourceAlpha" type="matrix" values="0 0 0 0 0 0 0 0 0 0 0 0 0 0 0 0 0 0 127 0" result="hardAlpha"/>
<feOffset dy="4"/>
<feComposite in2="hardAlpha" operator="out"/>
<feColorMatrix type="matrix" values="0 0 0 0 0.635471 0 0 0 0 0.76142 0 0 0 0 0.897445 0 0 0 1 0"/>
<feBlend mode="normal" in2="BackgroundImageFix" result="effect1_dropShadow_327_4537"/>
<feBlend mode="normal" in="SourceGraphic" in2="effect1_dropShadow_327_4537" result="shape"/>
</filter>
<filter id="filter1_d_327_4537" x="67.6243" y="7.59883" width="16" height="16.9996" filterUnits="userSpaceOnUse" color-interpolation-filters="sRGB">
<feFlood flood-opacity="0" result="BackgroundImageFix"/>
<feColorMatrix in="SourceAlpha" type="matrix" values="0 0 0 0 0 0 0 0 0 0 0 0 0 0 0 0 0 0 127 0" result="hardAlpha"/>
<feOffset dx="1" dy="2"/>
<feComposite in2="hardAlpha" operator="out"/>
<feColorMatrix type="matrix" values="0 0 0 0 0 0 0 0 0 0 0 0 0 0 0 0 0 0 0.25 0"/>
<feBlend mode="normal" in2="BackgroundImageFix" result="effect1_dropShadow_327_4537"/>
<feBlend mode="normal" in="SourceGraphic" in2="effect1_dropShadow_327_4537" result="shape"/>
</filter>
<filter id="filter2_d_327_4537" x="97.624" y="7.59885" width="16" height="16.9996" filterUnits="userSpaceOnUse" color-interpolation-filters="sRGB">
<feFlood flood-opacity="0" result="BackgroundImageFix"/>
<feColorMatrix in="SourceAlpha" type="matrix" values="0 0 0 0 0 0 0 0 0 0 0 0 0 0 0 0 0 0 127 0" result="hardAlpha"/>
<feOffset dx="1" dy="2"/>
<feComposite in2="hardAlpha" operator="out"/>
<feColorMatrix type="matrix" values="0 0 0 0 0 0 0 0 0 0 0 0 0 0 0 0 0 0 0.25 0"/>
<feBlend mode="normal" in2="BackgroundImageFix" result="effect1_dropShadow_327_4537"/>
<feBlend mode="normal" in="SourceGraphic" in2="effect1_dropShadow_327_4537" result="shape"/>
</filter>
<filter id="filter3_d_327_4537" x="37.6245" y="7.5988" width="16" height="16.9996" filterUnits="userSpaceOnUse" color-interpolation-filters="sRGB">
<feFlood flood-opacity="0" result="BackgroundImageFix"/>
<feColorMatrix in="SourceAlpha" type="matrix" values="0 0 0 0 0 0 0 0 0 0 0 0 0 0 0 0 0 0 127 0" result="hardAlpha"/>
<feOffset dx="1" dy="2"/>
<feComposite in2="hardAlpha" operator="out"/>
<feColorMatrix type="matrix" values="0 0 0 0 0 0 0 0 0 0 0 0 0 0 0 0 0 0 0.25 0"/>
<feBlend mode="normal" in2="BackgroundImageFix" result="effect1_dropShadow_327_4537"/>
<feBlend mode="normal" in="SourceGraphic" in2="effect1_dropShadow_327_4537" result="shape"/>
</filter>
<filter id="filter4_d_327_4537" x="7.69702" y="7.52664" width="16" height="16.9996" filterUnits="userSpaceOnUse" color-interpolation-filters="sRGB">
<feFlood flood-opacity="0" result="BackgroundImageFix"/>
<feColorMatrix in="SourceAlpha" type="matrix" values="0 0 0 0 0 0 0 0 0 0 0 0 0 0 0 0 0 0 127 0" result="hardAlpha"/>
<feOffset dx="1" dy="2"/>
<feComposite in2="hardAlpha" operator="out"/>
<feColorMatrix type="matrix" values="0 0 0 0 0 0 0 0 0 0 0 0 0 0 0 0 0 0 0.25 0"/>
<feBlend mode="normal" in2="BackgroundImageFix" result="effect1_dropShadow_327_4537"/>
<feBlend mode="normal" in="SourceGraphic" in2="effect1_dropShadow_327_4537" result="shape"/>
</filter>
<linearGradient id="paint0_linear_327_4537" x1="75.1243" y1="7.59883" x2="75.1243" y2="22.5984" gradientUnits="userSpaceOnUse">
<stop stop-color="white" stop-opacity="0.18"/>
<stop offset="0.555" stop-color="#C9E3FF"/>
<stop offset="1" stop-color="#A2C2E5"/>
</linearGradient>
<linearGradient id="paint1_linear_327_4537" x1="105.124" y1="7.59885" x2="105.124" y2="22.5984" gradientUnits="userSpaceOnUse">
<stop stop-color="white" stop-opacity="0.18"/>
<stop offset="0.555" stop-color="#C9E3FF"/>
<stop offset="1" stop-color="#A2C2E5"/>
</linearGradient>
<linearGradient id="paint2_linear_327_4537" x1="45.1245" y1="7.5988" x2="45.1245" y2="22.5984" gradientUnits="userSpaceOnUse">
<stop stop-color="white" stop-opacity="0.18"/>
<stop offset="0.555" stop-color="#C9E3FF"/>
<stop offset="1" stop-color="#A2C2E5"/>
</linearGradient>
<linearGradient id="paint3_linear_327_4537" x1="15.197" y1="7.52664" x2="15.197" y2="22.5262" gradientUnits="userSpaceOnUse">
<stop stop-color="white" stop-opacity="0.18"/>
<stop offset="0.555" stop-color="#C9E3FF"/>
<stop offset="1" stop-color="#A2C2E5"/>
</linearGradient>
</defs>
</svg>
