<svg width="21" height="21" viewBox="0 0 21 21" fill="none" xmlns="http://www.w3.org/2000/svg">
<circle cx="10.5411" cy="10.5201" r="9.04727" stroke="#342D39" stroke-width="2.8"/>
<path d="M9.33236 12.2774C9.33236 11.8107 9.43503 11.4281 9.64036 11.1294C9.8457 10.8214 10.1444 10.4854 10.5364 10.1214C10.807 9.8694 11.0077 9.6594 11.1384 9.4914C11.269 9.31406 11.3344 9.1274 11.3344 8.9314C11.3344 8.66073 11.2177 8.44606 10.9844 8.2874C10.7604 8.1194 10.4664 8.0354 10.1024 8.0354C9.72903 8.0354 9.38836 8.12406 9.08036 8.3014C8.7817 8.47873 8.53903 8.72606 8.35236 9.0434L6.26636 7.9234C6.64903 7.27006 7.19036 6.7614 7.89036 6.3974C8.59036 6.0334 9.43503 5.8514 10.4244 5.8514C11.535 5.8514 12.4264 6.08473 13.0984 6.5514C13.7797 7.00873 14.1204 7.65273 14.1204 8.4834C14.1204 8.86606 14.055 9.20673 13.9244 9.5054C13.7937 9.79473 13.635 10.0421 13.4484 10.2474C13.271 10.4434 13.0377 10.6674 12.7484 10.9194C12.431 11.1901 12.1977 11.4234 12.0484 11.6194C11.899 11.8061 11.8244 12.0254 11.8244 12.2774H9.33236ZM10.5784 15.9734C10.121 15.9734 9.74303 15.8334 9.44436 15.5534C9.1457 15.2641 8.99636 14.9141 8.99636 14.5034C8.99636 14.0834 9.14103 13.7381 9.43036 13.4674C9.72903 13.1967 10.1117 13.0614 10.5784 13.0614C11.045 13.0614 11.4277 13.1967 11.7264 13.4674C12.025 13.7381 12.1744 14.0834 12.1744 14.5034C12.1744 14.9141 12.025 15.2641 11.7264 15.5534C11.4277 15.8334 11.045 15.9734 10.5784 15.9734Z" fill="#342D39"/>
</svg>
