<svg width="21" height="21" viewBox="0 0 21 21" fill="none" xmlns="http://www.w3.org/2000/svg">
<g clip-path="url(#clip0_351_134)">
<path fill-rule="evenodd" clip-rule="evenodd" d="M0.195843 3.06931L0.0271029 1.96249L2.33322 1.58456L2.53008 2.69137L2.86756 4.68904H4.80808H5.98926V6.92967H4.80808H2.22073C1.46139 6.92967 0.786433 6.38976 0.673939 5.66088L0.195843 3.06931Z" fill="#342D39"/>
<path fill-rule="evenodd" clip-rule="evenodd" d="M4.04875 16.1351C5.56741 17.6199 7.67667 18.5377 10.0109 18.5377C14.6513 18.5377 18.3917 14.9473 18.3917 10.4931C18.3917 6.03882 14.6513 2.44841 10.0109 2.44841C7.17044 2.44841 4.63934 3.82519 3.12068 5.90384L1.34891 4.20312C3.34566 1.69254 6.49548 0.0728073 10.0109 0.0728073C16.0293 0.0728073 20.8947 4.74303 20.8947 10.5201C20.8947 16.2971 16.0293 20.9673 10.0109 20.9673C6.97358 20.9673 4.24561 19.7795 2.27698 17.8629L4.04875 16.1351Z" fill="#342D39"/>
<path d="M10.0109 14.2455C7.86751 14.2455 6.12992 12.5775 6.12992 10.5201C6.12992 8.4626 7.86751 6.79469 10.0109 6.79469C12.1544 6.79469 13.892 8.4626 13.892 10.5201C13.892 12.5775 12.1544 14.2455 10.0109 14.2455Z" fill="#342D39"/>
</g>
<defs>
<clipPath id="clip0_351_134">
<rect width="20.8675" height="20.8675" fill="white" transform="matrix(-1 0 0 1 20.8947 0.0728073)"/>
</clipPath>
</defs>
</svg>
