<svg width="31" height="65" viewBox="0 0 31 65" fill="none" xmlns="http://www.w3.org/2000/svg">
<g filter="url(#filter0_d_350_2831)">
<rect x="30.9841" y="60.6035" width="30.0008" height="30.0419" transform="rotate(-180 30.9841 60.6035)" fill="#C1FF05"/>
<rect x="30.9841" y="30.6454" width="30.0008" height="30.0419" transform="rotate(-180 30.9841 30.6454)" fill="#C1FF05"/>
<g filter="url(#filter1_d_350_2831)">
<ellipse cx="16.0601" cy="16.4916" rx="7.5" ry="7.51048" fill="#D6FF5A"/>
<path d="M23.0601 16.4916C23.0601 20.364 19.9254 23.502 16.0601 23.502C12.1947 23.502 9.06006 20.364 9.06006 16.4916C9.06006 12.6191 12.1947 9.48108 16.0601 9.48108C19.9254 9.48108 23.0601 12.6191 23.0601 16.4916Z" stroke="url(#paint0_linear_350_2831)"/>
</g>
<g filter="url(#filter2_d_350_2831)">
<ellipse cx="16.0601" cy="45.5826" rx="7.5" ry="7.51048" fill="#D6FF5A"/>
<path d="M23.0601 45.5826C23.0601 49.455 19.9254 52.5931 16.0601 52.5931C12.1947 52.5931 9.06006 49.455 9.06006 45.5826C9.06006 41.7102 12.1947 38.5721 16.0601 38.5721C19.9254 38.5721 23.0601 41.7102 23.0601 45.5826Z" stroke="url(#paint1_linear_350_2831)"/>
</g>
</g>
<defs>
<filter id="filter0_d_350_2831" x="0.983398" y="0.603516" width="30.0007" height="64" filterUnits="userSpaceOnUse" color-interpolation-filters="sRGB">
<feFlood flood-opacity="0" result="BackgroundImageFix"/>
<feColorMatrix in="SourceAlpha" type="matrix" values="0 0 0 0 0 0 0 0 0 0 0 0 0 0 0 0 0 0 127 0" result="hardAlpha"/>
<feOffset dy="4"/>
<feComposite in2="hardAlpha" operator="out"/>
<feColorMatrix type="matrix" values="0 0 0 0 0.591155 0 0 0 0 0.737402 0 0 0 0 0.147697 0 0 0 1 0"/>
<feBlend mode="normal" in2="BackgroundImageFix" result="effect1_dropShadow_350_2831"/>
<feBlend mode="normal" in="SourceGraphic" in2="effect1_dropShadow_350_2831" result="shape"/>
</filter>
<filter id="filter1_d_350_2831" x="8.56006" y="8.98108" width="16" height="17.021" filterUnits="userSpaceOnUse" color-interpolation-filters="sRGB">
<feFlood flood-opacity="0" result="BackgroundImageFix"/>
<feColorMatrix in="SourceAlpha" type="matrix" values="0 0 0 0 0 0 0 0 0 0 0 0 0 0 0 0 0 0 127 0" result="hardAlpha"/>
<feOffset dx="1" dy="2"/>
<feComposite in2="hardAlpha" operator="out"/>
<feColorMatrix type="matrix" values="0 0 0 0 0 0 0 0 0 0 0 0 0 0 0 0 0 0 0.25 0"/>
<feBlend mode="normal" in2="BackgroundImageFix" result="effect1_dropShadow_350_2831"/>
<feBlend mode="normal" in="SourceGraphic" in2="effect1_dropShadow_350_2831" result="shape"/>
</filter>
<filter id="filter2_d_350_2831" x="8.56006" y="38.0721" width="16" height="17.021" filterUnits="userSpaceOnUse" color-interpolation-filters="sRGB">
<feFlood flood-opacity="0" result="BackgroundImageFix"/>
<feColorMatrix in="SourceAlpha" type="matrix" values="0 0 0 0 0 0 0 0 0 0 0 0 0 0 0 0 0 0 127 0" result="hardAlpha"/>
<feOffset dx="1" dy="2"/>
<feComposite in2="hardAlpha" operator="out"/>
<feColorMatrix type="matrix" values="0 0 0 0 0 0 0 0 0 0 0 0 0 0 0 0 0 0 0.25 0"/>
<feBlend mode="normal" in2="BackgroundImageFix" result="effect1_dropShadow_350_2831"/>
<feBlend mode="normal" in="SourceGraphic" in2="effect1_dropShadow_350_2831" result="shape"/>
</filter>
<linearGradient id="paint0_linear_350_2831" x1="16.0601" y1="8.98108" x2="16.0601" y2="24.002" gradientUnits="userSpaceOnUse">
<stop offset="0.07" stop-color="white" stop-opacity="0.46"/>
<stop offset="0.385" stop-color="#C1FF05"/>
<stop offset="1" stop-color="#B7E52E"/>
</linearGradient>
<linearGradient id="paint1_linear_350_2831" x1="16.0601" y1="38.0721" x2="16.0601" y2="53.0931" gradientUnits="userSpaceOnUse">
<stop offset="0.07" stop-color="white" stop-opacity="0.46"/>
<stop offset="0.385" stop-color="#C1FF05"/>
<stop offset="1" stop-color="#B7E52E"/>
</linearGradient>
</defs>
</svg>
