<svg width="61" height="65" viewBox="0 0 61 65" fill="none" xmlns="http://www.w3.org/2000/svg">
<g filter="url(#filter0_d_350_2841)">
<rect x="60.9866" y="30.6454" width="30.0008" height="30" transform="rotate(-180 60.9866 30.6454)" fill="#C8E1FC"/>
<rect x="60.9866" y="60.6454" width="30.0008" height="30" transform="rotate(-180 60.9866 60.6454)" fill="#C8E1FC"/>
<rect x="30.9856" y="30.6454" width="30.0008" height="30" transform="rotate(-180 30.9856 30.6454)" fill="#C8E1FC"/>
<rect x="30.9856" y="60.6454" width="30.0008" height="30" transform="rotate(-180 30.9856 60.6454)" fill="#C8E1FC"/>
<g filter="url(#filter1_d_350_2841)">
<ellipse cx="15.9852" cy="15.6036" rx="7.62504" ry="7.62505" fill="#D6E9FF"/>
<path d="M23.1102 15.6036C23.1102 19.5386 19.9202 22.7286 15.9852 22.7286C12.0501 22.7286 8.86011 19.5386 8.86011 15.6036C8.86011 11.6685 12.0501 8.47853 15.9852 8.47853C19.9202 8.47853 23.1102 11.6685 23.1102 15.6036Z" stroke="url(#paint0_linear_350_2841)"/>
</g>
<g filter="url(#filter2_d_350_2841)">
<ellipse cx="45.9859" cy="15.6036" rx="7.62504" ry="7.62505" fill="#D6E9FF"/>
<path d="M53.1109 15.6036C53.1109 19.5386 49.9209 22.7286 45.9859 22.7286C42.0508 22.7286 38.8608 19.5386 38.8608 15.6036C38.8608 11.6685 42.0508 8.47852 45.9859 8.47852C49.9209 8.47852 53.1109 11.6685 53.1109 15.6036Z" stroke="url(#paint1_linear_350_2841)"/>
</g>
<g filter="url(#filter3_d_350_2841)">
<ellipse cx="15.9854" cy="45.6454" rx="7.62504" ry="7.62505" fill="#D6E9FF"/>
<path d="M23.1104 45.6454C23.1104 49.5804 19.9204 52.7704 15.9854 52.7704C12.0503 52.7704 8.86035 49.5804 8.86035 45.6454C8.86035 41.7103 12.0503 38.5203 15.9854 38.5203C19.9204 38.5203 23.1104 41.7103 23.1104 45.6454Z" stroke="url(#paint2_linear_350_2841)"/>
</g>
<g filter="url(#filter4_d_350_2841)">
<ellipse cx="45.9861" cy="45.6454" rx="7.62504" ry="7.62505" fill="#D6E9FF"/>
<path d="M53.1112 45.6454C53.1112 49.5804 49.9212 52.7704 45.9861 52.7704C42.0511 52.7704 38.8611 49.5804 38.8611 45.6454C38.8611 41.7103 42.0511 38.5203 45.9861 38.5203C49.9212 38.5203 53.1112 41.7103 53.1112 45.6454Z" stroke="url(#paint3_linear_350_2841)"/>
</g>
</g>
<defs>
<filter id="filter0_d_350_2841" x="0.984863" y="0.645386" width="60.0017" height="64" filterUnits="userSpaceOnUse" color-interpolation-filters="sRGB">
<feFlood flood-opacity="0" result="BackgroundImageFix"/>
<feColorMatrix in="SourceAlpha" type="matrix" values="0 0 0 0 0 0 0 0 0 0 0 0 0 0 0 0 0 0 127 0" result="hardAlpha"/>
<feOffset dy="4"/>
<feComposite in2="hardAlpha" operator="out"/>
<feColorMatrix type="matrix" values="0 0 0 0 0.635471 0 0 0 0 0.76142 0 0 0 0 0.897445 0 0 0 1 0"/>
<feBlend mode="normal" in2="BackgroundImageFix" result="effect1_dropShadow_350_2841"/>
<feBlend mode="normal" in="SourceGraphic" in2="effect1_dropShadow_350_2841" result="shape"/>
</filter>
<filter id="filter1_d_350_2841" x="8.36011" y="7.97853" width="16.25" height="17.2501" filterUnits="userSpaceOnUse" color-interpolation-filters="sRGB">
<feFlood flood-opacity="0" result="BackgroundImageFix"/>
<feColorMatrix in="SourceAlpha" type="matrix" values="0 0 0 0 0 0 0 0 0 0 0 0 0 0 0 0 0 0 127 0" result="hardAlpha"/>
<feOffset dx="1" dy="2"/>
<feComposite in2="hardAlpha" operator="out"/>
<feColorMatrix type="matrix" values="0 0 0 0 0 0 0 0 0 0 0 0 0 0 0 0 0 0 0.25 0"/>
<feBlend mode="normal" in2="BackgroundImageFix" result="effect1_dropShadow_350_2841"/>
<feBlend mode="normal" in="SourceGraphic" in2="effect1_dropShadow_350_2841" result="shape"/>
</filter>
<filter id="filter2_d_350_2841" x="38.3608" y="7.97852" width="16.25" height="17.2501" filterUnits="userSpaceOnUse" color-interpolation-filters="sRGB">
<feFlood flood-opacity="0" result="BackgroundImageFix"/>
<feColorMatrix in="SourceAlpha" type="matrix" values="0 0 0 0 0 0 0 0 0 0 0 0 0 0 0 0 0 0 127 0" result="hardAlpha"/>
<feOffset dx="1" dy="2"/>
<feComposite in2="hardAlpha" operator="out"/>
<feColorMatrix type="matrix" values="0 0 0 0 0 0 0 0 0 0 0 0 0 0 0 0 0 0 0.25 0"/>
<feBlend mode="normal" in2="BackgroundImageFix" result="effect1_dropShadow_350_2841"/>
<feBlend mode="normal" in="SourceGraphic" in2="effect1_dropShadow_350_2841" result="shape"/>
</filter>
<filter id="filter3_d_350_2841" x="8.36035" y="38.0203" width="16.25" height="17.2501" filterUnits="userSpaceOnUse" color-interpolation-filters="sRGB">
<feFlood flood-opacity="0" result="BackgroundImageFix"/>
<feColorMatrix in="SourceAlpha" type="matrix" values="0 0 0 0 0 0 0 0 0 0 0 0 0 0 0 0 0 0 127 0" result="hardAlpha"/>
<feOffset dx="1" dy="2"/>
<feComposite in2="hardAlpha" operator="out"/>
<feColorMatrix type="matrix" values="0 0 0 0 0 0 0 0 0 0 0 0 0 0 0 0 0 0 0.25 0"/>
<feBlend mode="normal" in2="BackgroundImageFix" result="effect1_dropShadow_350_2841"/>
<feBlend mode="normal" in="SourceGraphic" in2="effect1_dropShadow_350_2841" result="shape"/>
</filter>
<filter id="filter4_d_350_2841" x="38.3611" y="38.0203" width="16.25" height="17.2501" filterUnits="userSpaceOnUse" color-interpolation-filters="sRGB">
<feFlood flood-opacity="0" result="BackgroundImageFix"/>
<feColorMatrix in="SourceAlpha" type="matrix" values="0 0 0 0 0 0 0 0 0 0 0 0 0 0 0 0 0 0 127 0" result="hardAlpha"/>
<feOffset dx="1" dy="2"/>
<feComposite in2="hardAlpha" operator="out"/>
<feColorMatrix type="matrix" values="0 0 0 0 0 0 0 0 0 0 0 0 0 0 0 0 0 0 0.25 0"/>
<feBlend mode="normal" in2="BackgroundImageFix" result="effect1_dropShadow_350_2841"/>
<feBlend mode="normal" in="SourceGraphic" in2="effect1_dropShadow_350_2841" result="shape"/>
</filter>
<linearGradient id="paint0_linear_350_2841" x1="15.9852" y1="7.97853" x2="15.9852" y2="23.2286" gradientUnits="userSpaceOnUse">
<stop stop-color="white" stop-opacity="0.08"/>
<stop offset="1" stop-color="#BADBFF"/>
</linearGradient>
<linearGradient id="paint1_linear_350_2841" x1="45.9859" y1="7.97852" x2="45.9859" y2="23.2286" gradientUnits="userSpaceOnUse">
<stop stop-color="white" stop-opacity="0.08"/>
<stop offset="1" stop-color="#BADBFF"/>
</linearGradient>
<linearGradient id="paint2_linear_350_2841" x1="15.9854" y1="38.0203" x2="15.9854" y2="53.2704" gradientUnits="userSpaceOnUse">
<stop stop-color="white" stop-opacity="0.08"/>
<stop offset="1" stop-color="#BADBFF"/>
</linearGradient>
<linearGradient id="paint3_linear_350_2841" x1="45.9861" y1="38.0203" x2="45.9861" y2="53.2704" gradientUnits="userSpaceOnUse">
<stop stop-color="white" stop-opacity="0.08"/>
<stop offset="1" stop-color="#BADBFF"/>
</linearGradient>
</defs>
</svg>
