<svg width="91" height="65" viewBox="0 0 91 65" fill="none" xmlns="http://www.w3.org/2000/svg">
<g filter="url(#filter0_d_350_2872)">
<rect x="60.5591" y="30.4255" width="30.0008" height="30.0419" transform="rotate(-180 60.5591 30.4255)" fill="#9E6FC3"/>
<rect x="30.5583" y="30.4255" width="30.0008" height="30.0419" transform="rotate(-180 30.5583 30.4255)" fill="#9E6FC3"/>
<rect x="30.5583" y="60.3836" width="30.0008" height="30.0419" transform="rotate(-180 30.5583 60.3836)" fill="#9E6FC3"/>
<rect x="60.5591" y="60.3836" width="30.0008" height="30.0419" transform="rotate(-180 60.5591 60.3836)" fill="#9E6FC3"/>
<rect x="90.5598" y="60.3836" width="30.0008" height="30.0419" transform="rotate(-180 90.5598 60.3836)" fill="#9E6FC3"/>
<g filter="url(#filter1_d_350_2872)">
<ellipse cx="15.4326" cy="45.3213" rx="7.5" ry="7.51028" fill="#AD79D6"/>
<path d="M22.4326 45.3213C22.4326 49.1936 19.298 52.3315 15.4326 52.3315C11.5673 52.3315 8.43262 49.1936 8.43262 45.3213C8.43262 41.4489 11.5673 38.311 15.4326 38.311C19.298 38.311 22.4326 41.4489 22.4326 45.3213Z" stroke="url(#paint0_linear_350_2872)"/>
</g>
<g filter="url(#filter2_d_350_2872)">
<ellipse cx="15.4324" cy="15.2793" rx="7.5" ry="7.51028" fill="#AD79D6"/>
<path d="M22.4324 15.2793C22.4324 19.1516 19.2977 22.2896 15.4324 22.2896C11.567 22.2896 8.43237 19.1516 8.43237 15.2793C8.43237 11.407 11.567 8.26903 15.4324 8.26903C19.2977 8.26903 22.4324 11.407 22.4324 15.2793Z" stroke="url(#paint1_linear_350_2872)"/>
</g>
<g filter="url(#filter3_d_350_2872)">
<ellipse cx="45.4331" cy="16.3141" rx="7.5" ry="7.51028" fill="#AD79D6"/>
<path d="M52.4331 16.3141C52.4331 20.1864 49.2984 23.3244 45.4331 23.3244C41.5678 23.3244 38.4331 20.1864 38.4331 16.3141C38.4331 12.4418 41.5678 9.30383 45.4331 9.30383C49.2985 9.30383 52.4331 12.4418 52.4331 16.3141Z" stroke="url(#paint2_linear_350_2872)"/>
</g>
<g filter="url(#filter4_d_350_2872)">
<ellipse cx="45.4331" cy="45.4881" rx="7.5" ry="7.51028" fill="#AD79D6"/>
<path d="M52.4331 45.4881C52.4331 49.3604 49.2984 52.4984 45.4331 52.4984C41.5678 52.4984 38.4331 49.3604 38.4331 45.4881C38.4331 41.6158 41.5678 38.4778 45.4331 38.4778C49.2985 38.4778 52.4331 41.6158 52.4331 45.4881Z" stroke="url(#paint3_linear_350_2872)"/>
</g>
<g filter="url(#filter5_d_350_2872)">
<ellipse cx="75.4338" cy="45.4881" rx="7.5" ry="7.51028" fill="#AD79D6"/>
<path d="M82.4338 45.4881C82.4338 49.3604 79.2992 52.4984 75.4338 52.4984C71.5685 52.4984 68.4338 49.3604 68.4338 45.4881C68.4338 41.6158 71.5685 38.4778 75.4338 38.4778C79.2992 38.4778 82.4338 41.6158 82.4338 45.4881Z" stroke="url(#paint4_linear_350_2872)"/>
</g>
</g>
<defs>
<filter id="filter0_d_350_2872" x="0.557617" y="0.383606" width="90.0022" height="64" filterUnits="userSpaceOnUse" color-interpolation-filters="sRGB">
<feFlood flood-opacity="0" result="BackgroundImageFix"/>
<feColorMatrix in="SourceAlpha" type="matrix" values="0 0 0 0 0 0 0 0 0 0 0 0 0 0 0 0 0 0 127 0" result="hardAlpha"/>
<feOffset dy="4"/>
<feComposite in2="hardAlpha" operator="out"/>
<feColorMatrix type="matrix" values="0 0 0 0 0.48499 0 0 0 0 0.312805 0 0 0 0 0.62054 0 0 0 1 0"/>
<feBlend mode="normal" in2="BackgroundImageFix" result="effect1_dropShadow_350_2872"/>
<feBlend mode="normal" in="SourceGraphic" in2="effect1_dropShadow_350_2872" result="shape"/>
</filter>
<filter id="filter1_d_350_2872" x="7.93262" y="37.811" width="16" height="17.0206" filterUnits="userSpaceOnUse" color-interpolation-filters="sRGB">
<feFlood flood-opacity="0" result="BackgroundImageFix"/>
<feColorMatrix in="SourceAlpha" type="matrix" values="0 0 0 0 0 0 0 0 0 0 0 0 0 0 0 0 0 0 127 0" result="hardAlpha"/>
<feOffset dx="1" dy="2"/>
<feComposite in2="hardAlpha" operator="out"/>
<feColorMatrix type="matrix" values="0 0 0 0 0 0 0 0 0 0 0 0 0 0 0 0 0 0 0.25 0"/>
<feBlend mode="normal" in2="BackgroundImageFix" result="effect1_dropShadow_350_2872"/>
<feBlend mode="normal" in="SourceGraphic" in2="effect1_dropShadow_350_2872" result="shape"/>
</filter>
<filter id="filter2_d_350_2872" x="7.93237" y="7.76903" width="16" height="17.0206" filterUnits="userSpaceOnUse" color-interpolation-filters="sRGB">
<feFlood flood-opacity="0" result="BackgroundImageFix"/>
<feColorMatrix in="SourceAlpha" type="matrix" values="0 0 0 0 0 0 0 0 0 0 0 0 0 0 0 0 0 0 127 0" result="hardAlpha"/>
<feOffset dx="1" dy="2"/>
<feComposite in2="hardAlpha" operator="out"/>
<feColorMatrix type="matrix" values="0 0 0 0 0 0 0 0 0 0 0 0 0 0 0 0 0 0 0.25 0"/>
<feBlend mode="normal" in2="BackgroundImageFix" result="effect1_dropShadow_350_2872"/>
<feBlend mode="normal" in="SourceGraphic" in2="effect1_dropShadow_350_2872" result="shape"/>
</filter>
<filter id="filter3_d_350_2872" x="37.9331" y="8.80383" width="16" height="17.0206" filterUnits="userSpaceOnUse" color-interpolation-filters="sRGB">
<feFlood flood-opacity="0" result="BackgroundImageFix"/>
<feColorMatrix in="SourceAlpha" type="matrix" values="0 0 0 0 0 0 0 0 0 0 0 0 0 0 0 0 0 0 127 0" result="hardAlpha"/>
<feOffset dx="1" dy="2"/>
<feComposite in2="hardAlpha" operator="out"/>
<feColorMatrix type="matrix" values="0 0 0 0 0 0 0 0 0 0 0 0 0 0 0 0 0 0 0.25 0"/>
<feBlend mode="normal" in2="BackgroundImageFix" result="effect1_dropShadow_350_2872"/>
<feBlend mode="normal" in="SourceGraphic" in2="effect1_dropShadow_350_2872" result="shape"/>
</filter>
<filter id="filter4_d_350_2872" x="37.9331" y="37.9778" width="16" height="17.0206" filterUnits="userSpaceOnUse" color-interpolation-filters="sRGB">
<feFlood flood-opacity="0" result="BackgroundImageFix"/>
<feColorMatrix in="SourceAlpha" type="matrix" values="0 0 0 0 0 0 0 0 0 0 0 0 0 0 0 0 0 0 127 0" result="hardAlpha"/>
<feOffset dx="1" dy="2"/>
<feComposite in2="hardAlpha" operator="out"/>
<feColorMatrix type="matrix" values="0 0 0 0 0 0 0 0 0 0 0 0 0 0 0 0 0 0 0.25 0"/>
<feBlend mode="normal" in2="BackgroundImageFix" result="effect1_dropShadow_350_2872"/>
<feBlend mode="normal" in="SourceGraphic" in2="effect1_dropShadow_350_2872" result="shape"/>
</filter>
<filter id="filter5_d_350_2872" x="67.9338" y="37.9778" width="16" height="17.0206" filterUnits="userSpaceOnUse" color-interpolation-filters="sRGB">
<feFlood flood-opacity="0" result="BackgroundImageFix"/>
<feColorMatrix in="SourceAlpha" type="matrix" values="0 0 0 0 0 0 0 0 0 0 0 0 0 0 0 0 0 0 127 0" result="hardAlpha"/>
<feOffset dx="1" dy="2"/>
<feComposite in2="hardAlpha" operator="out"/>
<feColorMatrix type="matrix" values="0 0 0 0 0 0 0 0 0 0 0 0 0 0 0 0 0 0 0.25 0"/>
<feBlend mode="normal" in2="BackgroundImageFix" result="effect1_dropShadow_350_2872"/>
<feBlend mode="normal" in="SourceGraphic" in2="effect1_dropShadow_350_2872" result="shape"/>
</filter>
<linearGradient id="paint0_linear_350_2872" x1="15.4326" y1="37.811" x2="15.4326" y2="52.8315" gradientUnits="userSpaceOnUse">
<stop stop-color="white" stop-opacity="0"/>
<stop offset="0.555" stop-color="#A478C7" stop-opacity="0.935"/>
<stop offset="1" stop-color="#9E6FC3"/>
</linearGradient>
<linearGradient id="paint1_linear_350_2872" x1="15.4324" y1="7.76903" x2="15.4324" y2="22.7896" gradientUnits="userSpaceOnUse">
<stop stop-color="white" stop-opacity="0"/>
<stop offset="0.555" stop-color="#A478C7" stop-opacity="0.935"/>
<stop offset="1" stop-color="#9E6FC3"/>
</linearGradient>
<linearGradient id="paint2_linear_350_2872" x1="45.4331" y1="8.80383" x2="45.4331" y2="23.8244" gradientUnits="userSpaceOnUse">
<stop stop-color="white" stop-opacity="0"/>
<stop offset="0.555" stop-color="#A478C7" stop-opacity="0.935"/>
<stop offset="1" stop-color="#9E6FC3"/>
</linearGradient>
<linearGradient id="paint3_linear_350_2872" x1="45.4331" y1="37.9778" x2="45.4331" y2="52.9984" gradientUnits="userSpaceOnUse">
<stop stop-color="white" stop-opacity="0"/>
<stop offset="0.555" stop-color="#A478C7" stop-opacity="0.935"/>
<stop offset="1" stop-color="#9E6FC3"/>
</linearGradient>
<linearGradient id="paint4_linear_350_2872" x1="75.4338" y1="37.9778" x2="75.4338" y2="52.9984" gradientUnits="userSpaceOnUse">
<stop stop-color="white" stop-opacity="0"/>
<stop offset="0.555" stop-color="#A478C7" stop-opacity="0.935"/>
<stop offset="1" stop-color="#9E6FC3"/>
</linearGradient>
</defs>
</svg>
