<svg width="31" height="65" viewBox="0 0 31 65" fill="none" xmlns="http://www.w3.org/2000/svg">
<g filter="url(#filter0_d_350_2826)">
<rect x="30.9832" y="60.5616" width="30.0008" height="30" transform="rotate(-180 30.9832 60.5616)" fill="#FF7D32"/>
<g filter="url(#filter1_d_350_2826)">
<ellipse cx="16.1082" cy="45.5618" rx="7.5" ry="7.49994" transform="rotate(-180 16.1082 45.5618)" fill="#FE8742"/>
<path d="M9.10815 45.5618C9.10815 41.6958 12.2422 38.5618 16.1082 38.5618C19.9742 38.5618 23.1082 41.6958 23.1082 45.5618C23.1082 49.4277 19.9742 52.5617 16.1082 52.5617C12.2422 52.5617 9.10815 49.4277 9.10815 45.5618Z" stroke="url(#paint0_linear_350_2826)"/>
</g>
<path d="M30.9832 30.5616L0.982393 30.5616L0.982399 8.5616C0.9824 4.14332 4.56412 0.561595 8.9824 0.561596L22.9832 0.5616C27.4014 0.561601 30.9832 4.14332 30.9832 8.5616L30.9832 30.5616Z" fill="#FF7D32"/>
<g filter="url(#filter2_d_350_2826)">
<ellipse cx="15.9829" cy="15.5616" rx="7.5" ry="7.49994" transform="rotate(-180 15.9829 15.5616)" fill="#FE8742"/>
<path d="M8.98291 15.5616C8.98291 11.6956 12.1169 8.56165 15.9829 8.56165C19.8489 8.56165 22.9829 11.6956 22.9829 15.5616C22.9829 19.4275 19.8489 22.5615 15.9829 22.5615C12.1169 22.5615 8.98291 19.4275 8.98291 15.5616Z" stroke="url(#paint1_linear_350_2826)"/>
</g>
</g>
<defs>
<filter id="filter0_d_350_2826" x="0.982422" y="0.5616" width="30.0007" height="64" filterUnits="userSpaceOnUse" color-interpolation-filters="sRGB">
<feFlood flood-opacity="0" result="BackgroundImageFix"/>
<feColorMatrix in="SourceAlpha" type="matrix" values="0 0 0 0 0 0 0 0 0 0 0 0 0 0 0 0 0 0 127 0" result="hardAlpha"/>
<feOffset dy="4"/>
<feComposite in2="hardAlpha" operator="out"/>
<feColorMatrix type="matrix" values="0 0 0 0 0.808057 0 0 0 0 0.397724 0 0 0 0 0.160993 0 0 0 1 0"/>
<feBlend mode="normal" in2="BackgroundImageFix" result="effect1_dropShadow_350_2826"/>
<feBlend mode="normal" in="SourceGraphic" in2="effect1_dropShadow_350_2826" result="shape"/>
</filter>
<filter id="filter1_d_350_2826" x="8.60815" y="38.0618" width="16" height="16.9999" filterUnits="userSpaceOnUse" color-interpolation-filters="sRGB">
<feFlood flood-opacity="0" result="BackgroundImageFix"/>
<feColorMatrix in="SourceAlpha" type="matrix" values="0 0 0 0 0 0 0 0 0 0 0 0 0 0 0 0 0 0 127 0" result="hardAlpha"/>
<feOffset dx="1" dy="2"/>
<feComposite in2="hardAlpha" operator="out"/>
<feColorMatrix type="matrix" values="0 0 0 0 0 0 0 0 0 0 0 0 0 0 0 0 0 0 0.25 0"/>
<feBlend mode="normal" in2="BackgroundImageFix" result="effect1_dropShadow_350_2826"/>
<feBlend mode="normal" in="SourceGraphic" in2="effect1_dropShadow_350_2826" result="shape"/>
</filter>
<filter id="filter2_d_350_2826" x="8.48291" y="8.06165" width="16" height="16.9999" filterUnits="userSpaceOnUse" color-interpolation-filters="sRGB">
<feFlood flood-opacity="0" result="BackgroundImageFix"/>
<feColorMatrix in="SourceAlpha" type="matrix" values="0 0 0 0 0 0 0 0 0 0 0 0 0 0 0 0 0 0 127 0" result="hardAlpha"/>
<feOffset dx="1" dy="2"/>
<feComposite in2="hardAlpha" operator="out"/>
<feColorMatrix type="matrix" values="0 0 0 0 0 0 0 0 0 0 0 0 0 0 0 0 0 0 0.25 0"/>
<feBlend mode="normal" in2="BackgroundImageFix" result="effect1_dropShadow_350_2826"/>
<feBlend mode="normal" in="SourceGraphic" in2="effect1_dropShadow_350_2826" result="shape"/>
</filter>
<linearGradient id="paint0_linear_350_2826" x1="16.1082" y1="53.0617" x2="16.1082" y2="38.0618" gradientUnits="userSpaceOnUse">
<stop offset="0.15" stop-color="white" stop-opacity="0.14"/>
<stop offset="0.39" stop-color="#CE6529" stop-opacity="0"/>
<stop offset="1" stop-color="#FF7D32"/>
</linearGradient>
<linearGradient id="paint1_linear_350_2826" x1="15.9829" y1="23.0615" x2="15.9829" y2="8.06165" gradientUnits="userSpaceOnUse">
<stop offset="0.15" stop-color="white" stop-opacity="0.14"/>
<stop offset="0.39" stop-color="#CE6529" stop-opacity="0"/>
<stop offset="1" stop-color="#FF7D32"/>
</linearGradient>
</defs>
</svg>
