<svg width="61" height="35" viewBox="0 0 61 35" fill="none" xmlns="http://www.w3.org/2000/svg">
<g filter="url(#filter0_d_350_2905)">
<path d="M30.1731 30.3664L12.1723 30.3664C5.54489 30.3664 0.172311 24.9938 0.172313 18.3664L0.172318 0.366396L30.1731 0.366404L30.1731 30.3664Z" fill="#C8E1FC"/>
<rect x="60.1738" y="30.3664" width="30.0008" height="30" transform="rotate(-180 60.1738 30.3664)" fill="#C8E1FC"/>
<g filter="url(#filter1_d_350_2905)">
<ellipse cx="45.1734" cy="15.3664" rx="7.62505" ry="7.62505" fill="#D6E9FF"/>
<path d="M52.2984 15.3664C52.2984 19.3014 49.1084 22.4914 45.1734 22.4914C41.2383 22.4914 38.0483 19.3014 38.0483 15.3664C38.0483 11.4313 41.2383 8.24133 45.1734 8.24133C49.1084 8.24133 52.2984 11.4313 52.2984 15.3664Z" stroke="url(#paint0_linear_350_2905)"/>
</g>
<g filter="url(#filter2_d_350_2905)">
<ellipse cx="15.2488" cy="15.3664" rx="7.62505" ry="7.62505" fill="#D6E9FF"/>
<path d="M22.3739 15.3664C22.3739 19.3014 19.1839 22.4914 15.2488 22.4914C11.3138 22.4914 8.12378 19.3014 8.12378 15.3664C8.12378 11.4313 11.3138 8.24133 15.2488 8.24133C19.1839 8.24133 22.3739 11.4313 22.3739 15.3664Z" stroke="url(#paint1_linear_350_2905)"/>
</g>
</g>
<defs>
<filter id="filter0_d_350_2905" x="0.172363" y="0.366394" width="60.0015" height="34" filterUnits="userSpaceOnUse" color-interpolation-filters="sRGB">
<feFlood flood-opacity="0" result="BackgroundImageFix"/>
<feColorMatrix in="SourceAlpha" type="matrix" values="0 0 0 0 0 0 0 0 0 0 0 0 0 0 0 0 0 0 127 0" result="hardAlpha"/>
<feOffset dy="4"/>
<feComposite in2="hardAlpha" operator="out"/>
<feColorMatrix type="matrix" values="0 0 0 0 0.635471 0 0 0 0 0.76142 0 0 0 0 0.897445 0 0 0 1 0"/>
<feBlend mode="normal" in2="BackgroundImageFix" result="effect1_dropShadow_350_2905"/>
<feBlend mode="normal" in="SourceGraphic" in2="effect1_dropShadow_350_2905" result="shape"/>
</filter>
<filter id="filter1_d_350_2905" x="37.5483" y="7.74133" width="16.25" height="17.2501" filterUnits="userSpaceOnUse" color-interpolation-filters="sRGB">
<feFlood flood-opacity="0" result="BackgroundImageFix"/>
<feColorMatrix in="SourceAlpha" type="matrix" values="0 0 0 0 0 0 0 0 0 0 0 0 0 0 0 0 0 0 127 0" result="hardAlpha"/>
<feOffset dx="1" dy="2"/>
<feComposite in2="hardAlpha" operator="out"/>
<feColorMatrix type="matrix" values="0 0 0 0 0 0 0 0 0 0 0 0 0 0 0 0 0 0 0.25 0"/>
<feBlend mode="normal" in2="BackgroundImageFix" result="effect1_dropShadow_350_2905"/>
<feBlend mode="normal" in="SourceGraphic" in2="effect1_dropShadow_350_2905" result="shape"/>
</filter>
<filter id="filter2_d_350_2905" x="7.62378" y="7.74133" width="16.25" height="17.2501" filterUnits="userSpaceOnUse" color-interpolation-filters="sRGB">
<feFlood flood-opacity="0" result="BackgroundImageFix"/>
<feColorMatrix in="SourceAlpha" type="matrix" values="0 0 0 0 0 0 0 0 0 0 0 0 0 0 0 0 0 0 127 0" result="hardAlpha"/>
<feOffset dx="1" dy="2"/>
<feComposite in2="hardAlpha" operator="out"/>
<feColorMatrix type="matrix" values="0 0 0 0 0 0 0 0 0 0 0 0 0 0 0 0 0 0 0.25 0"/>
<feBlend mode="normal" in2="BackgroundImageFix" result="effect1_dropShadow_350_2905"/>
<feBlend mode="normal" in="SourceGraphic" in2="effect1_dropShadow_350_2905" result="shape"/>
</filter>
<linearGradient id="paint0_linear_350_2905" x1="45.1734" y1="7.74133" x2="45.1734" y2="22.9914" gradientUnits="userSpaceOnUse">
<stop stop-color="white" stop-opacity="0.08"/>
<stop offset="1" stop-color="#BADBFF"/>
</linearGradient>
<linearGradient id="paint1_linear_350_2905" x1="15.2488" y1="7.74133" x2="15.2488" y2="22.9914" gradientUnits="userSpaceOnUse">
<stop stop-color="white" stop-opacity="0.08"/>
<stop offset="1" stop-color="#BADBFF"/>
</linearGradient>
</defs>
</svg>
