<svg width="31" height="35" viewBox="0 0 31 35" fill="none" xmlns="http://www.w3.org/2000/svg">
<g filter="url(#filter0_d_350_1708)">
<path fill-rule="evenodd" clip-rule="evenodd" d="M7.55561 30.7903L30.7988 30.7903L30.7988 0.71167C30.6224 0.762684 30.4345 0.790258 30.238 0.790258H8.79883C4.38055 0.790258 0.798828 4.37198 0.798828 8.79026V22.8863C0.798828 26.8817 3.72775 30.193 7.55561 30.7903Z" fill="#C8E1FC"/>
</g>
<g filter="url(#filter1_d_350_1708)">
<ellipse cx="15.7988" cy="15.7903" rx="7.5" ry="7.5" fill="#D6E9FF"/>
<path d="M22.7988 15.7903C22.7988 19.6562 19.6648 22.7903 15.7988 22.7903C11.9328 22.7903 8.79883 19.6562 8.79883 15.7903C8.79883 11.9243 11.9328 8.79025 15.7988 8.79025C19.6648 8.79025 22.7988 11.9243 22.7988 15.7903Z" stroke="url(#paint0_linear_350_1708)"/>
</g>
<defs>
<filter id="filter0_d_350_1708" x="0.798828" y="0.71167" width="30" height="34.0786" filterUnits="userSpaceOnUse" color-interpolation-filters="sRGB">
<feFlood flood-opacity="0" result="BackgroundImageFix"/>
<feColorMatrix in="SourceAlpha" type="matrix" values="0 0 0 0 0 0 0 0 0 0 0 0 0 0 0 0 0 0 127 0" result="hardAlpha"/>
<feOffset dy="4"/>
<feComposite in2="hardAlpha" operator="out"/>
<feColorMatrix type="matrix" values="0 0 0 0 0.635471 0 0 0 0 0.76142 0 0 0 0 0.897445 0 0 0 1 0"/>
<feBlend mode="normal" in2="BackgroundImageFix" result="effect1_dropShadow_350_1708"/>
<feBlend mode="normal" in="SourceGraphic" in2="effect1_dropShadow_350_1708" result="shape"/>
</filter>
<filter id="filter1_d_350_1708" x="8.29883" y="8.29025" width="16" height="17" filterUnits="userSpaceOnUse" color-interpolation-filters="sRGB">
<feFlood flood-opacity="0" result="BackgroundImageFix"/>
<feColorMatrix in="SourceAlpha" type="matrix" values="0 0 0 0 0 0 0 0 0 0 0 0 0 0 0 0 0 0 127 0" result="hardAlpha"/>
<feOffset dx="1" dy="2"/>
<feComposite in2="hardAlpha" operator="out"/>
<feColorMatrix type="matrix" values="0 0 0 0 0 0 0 0 0 0 0 0 0 0 0 0 0 0 0.25 0"/>
<feBlend mode="normal" in2="BackgroundImageFix" result="effect1_dropShadow_350_1708"/>
<feBlend mode="normal" in="SourceGraphic" in2="effect1_dropShadow_350_1708" result="shape"/>
</filter>
<linearGradient id="paint0_linear_350_1708" x1="15.7988" y1="8.29025" x2="15.7988" y2="23.2903" gradientUnits="userSpaceOnUse">
<stop stop-color="white" stop-opacity="0.08"/>
<stop offset="1" stop-color="#BADBFF"/>
</linearGradient>
</defs>
</svg>
