<svg width="68" height="65" viewBox="0 0 68 65" fill="none" xmlns="http://www.w3.org/2000/svg">
<g filter="url(#filter0_d_351_64)">
<path fill-rule="evenodd" clip-rule="evenodd" d="M5.31353 30.9408H5.37308L5.37308 60.9408H33.383L33.3831 60.9408H41.6962L54.4533 30.9408L33.3831 30.9408V30.9407L54.4533 30.9407L67.2034 0.957558V0.940774L33.383 0.940765V0.94082L0.168701 0.940811L0.168701 1.02528H5.31353V30.9408Z" fill="#9E6FC3"/>
<g filter="url(#filter1_d_351_64)">
<ellipse cx="19.378" cy="16.0361" rx="7.50102" ry="7.4998" fill="#AD79D6"/>
<path d="M26.379 16.0361C26.379 19.9019 23.2446 23.0359 19.378 23.0359C15.5113 23.0359 12.377 19.9019 12.377 16.0361C12.377 12.1703 15.5113 9.0363 19.378 9.0363C23.2446 9.0363 26.379 12.1703 26.379 16.0361Z" stroke="url(#paint0_linear_351_64)"/>
</g>
<g filter="url(#filter2_d_351_64)">
<ellipse cx="19.378" cy="46.0361" rx="7.50102" ry="7.4998" fill="#AD79D6"/>
<path d="M26.379 46.0361C26.379 49.9019 23.2446 53.0359 19.378 53.0359C15.5113 53.0359 12.377 49.9019 12.377 46.0361C12.377 42.1703 15.5113 39.0363 19.378 39.0363C23.2446 39.0363 26.379 42.1703 26.379 46.0361Z" stroke="url(#paint1_linear_351_64)"/>
</g>
<g filter="url(#filter3_d_351_64)">
<ellipse cx="44.9056" cy="16.0361" rx="7.50102" ry="7.4998" fill="#AD79D6"/>
<path d="M51.9066 16.0361C51.9066 19.9019 48.7722 23.0359 44.9056 23.0359C41.0389 23.0359 37.9045 19.9019 37.9045 16.0361C37.9045 12.1703 41.0389 9.0363 44.9056 9.0363C48.7722 9.0363 51.9066 12.1703 51.9066 16.0361Z" stroke="url(#paint2_linear_351_64)"/>
</g>
</g>
<defs>
<filter id="filter0_d_351_64" x="0.168701" y="0.940765" width="67.0347" height="64" filterUnits="userSpaceOnUse" color-interpolation-filters="sRGB">
<feFlood flood-opacity="0" result="BackgroundImageFix"/>
<feColorMatrix in="SourceAlpha" type="matrix" values="0 0 0 0 0 0 0 0 0 0 0 0 0 0 0 0 0 0 127 0" result="hardAlpha"/>
<feOffset dy="4"/>
<feComposite in2="hardAlpha" operator="out"/>
<feColorMatrix type="matrix" values="0 0 0 0 0.48499 0 0 0 0 0.312805 0 0 0 0 0.62054 0 0 0 1 0"/>
<feBlend mode="normal" in2="BackgroundImageFix" result="effect1_dropShadow_351_64"/>
<feBlend mode="normal" in="SourceGraphic" in2="effect1_dropShadow_351_64" result="shape"/>
</filter>
<filter id="filter1_d_351_64" x="11.877" y="8.5363" width="16.002" height="16.9996" filterUnits="userSpaceOnUse" color-interpolation-filters="sRGB">
<feFlood flood-opacity="0" result="BackgroundImageFix"/>
<feColorMatrix in="SourceAlpha" type="matrix" values="0 0 0 0 0 0 0 0 0 0 0 0 0 0 0 0 0 0 127 0" result="hardAlpha"/>
<feOffset dx="1" dy="2"/>
<feComposite in2="hardAlpha" operator="out"/>
<feColorMatrix type="matrix" values="0 0 0 0 0 0 0 0 0 0 0 0 0 0 0 0 0 0 0.25 0"/>
<feBlend mode="normal" in2="BackgroundImageFix" result="effect1_dropShadow_351_64"/>
<feBlend mode="normal" in="SourceGraphic" in2="effect1_dropShadow_351_64" result="shape"/>
</filter>
<filter id="filter2_d_351_64" x="11.877" y="38.5363" width="16.002" height="16.9996" filterUnits="userSpaceOnUse" color-interpolation-filters="sRGB">
<feFlood flood-opacity="0" result="BackgroundImageFix"/>
<feColorMatrix in="SourceAlpha" type="matrix" values="0 0 0 0 0 0 0 0 0 0 0 0 0 0 0 0 0 0 127 0" result="hardAlpha"/>
<feOffset dx="1" dy="2"/>
<feComposite in2="hardAlpha" operator="out"/>
<feColorMatrix type="matrix" values="0 0 0 0 0 0 0 0 0 0 0 0 0 0 0 0 0 0 0.25 0"/>
<feBlend mode="normal" in2="BackgroundImageFix" result="effect1_dropShadow_351_64"/>
<feBlend mode="normal" in="SourceGraphic" in2="effect1_dropShadow_351_64" result="shape"/>
</filter>
<filter id="filter3_d_351_64" x="37.4045" y="8.5363" width="16.002" height="16.9996" filterUnits="userSpaceOnUse" color-interpolation-filters="sRGB">
<feFlood flood-opacity="0" result="BackgroundImageFix"/>
<feColorMatrix in="SourceAlpha" type="matrix" values="0 0 0 0 0 0 0 0 0 0 0 0 0 0 0 0 0 0 127 0" result="hardAlpha"/>
<feOffset dx="1" dy="2"/>
<feComposite in2="hardAlpha" operator="out"/>
<feColorMatrix type="matrix" values="0 0 0 0 0 0 0 0 0 0 0 0 0 0 0 0 0 0 0.25 0"/>
<feBlend mode="normal" in2="BackgroundImageFix" result="effect1_dropShadow_351_64"/>
<feBlend mode="normal" in="SourceGraphic" in2="effect1_dropShadow_351_64" result="shape"/>
</filter>
<linearGradient id="paint0_linear_351_64" x1="19.378" y1="8.5363" x2="19.378" y2="23.5359" gradientUnits="userSpaceOnUse">
<stop stop-color="white" stop-opacity="0"/>
<stop offset="0.555" stop-color="#A478C7" stop-opacity="0.935"/>
<stop offset="1" stop-color="#9E6FC3"/>
</linearGradient>
<linearGradient id="paint1_linear_351_64" x1="19.378" y1="38.5363" x2="19.378" y2="53.5359" gradientUnits="userSpaceOnUse">
<stop stop-color="white" stop-opacity="0"/>
<stop offset="0.555" stop-color="#A478C7" stop-opacity="0.935"/>
<stop offset="1" stop-color="#9E6FC3"/>
</linearGradient>
<linearGradient id="paint2_linear_351_64" x1="44.9056" y1="8.5363" x2="44.9056" y2="23.5359" gradientUnits="userSpaceOnUse">
<stop stop-color="white" stop-opacity="0"/>
<stop offset="0.555" stop-color="#A478C7" stop-opacity="0.935"/>
<stop offset="1" stop-color="#9E6FC3"/>
</linearGradient>
</defs>
</svg>
