<svg width="61" height="35" viewBox="0 0 61 35" fill="none" xmlns="http://www.w3.org/2000/svg">
<g filter="url(#filter0_d_350_1676)">
<path fill-rule="evenodd" clip-rule="evenodd" d="M4.8601 0.750917L0.801033 0.750916L0.801025 30.7509L30.8018 30.7509L30.8018 0.750938H4.87128C4.86755 0.750938 4.86383 0.750931 4.8601 0.750917ZM30.802 0.750938L30.802 30.7509L46.2231 30.7509C54.3182 29.9255 60.6705 23.1541 60.8019 14.8446C60.6615 7.02033 54.2786 0.750938 46.4531 0.750938H30.802Z" fill="#C1FF05"/>
</g>
<g filter="url(#filter1_d_350_1676)">
<ellipse cx="46.12" cy="15.6446" rx="6.86783" ry="6.89815" fill="#D6FF5A"/>
<path d="M52.4879 15.6446C52.4879 19.1803 49.6348 22.0428 46.12 22.0428C42.6052 22.0428 39.7522 19.1803 39.7522 15.6446C39.7522 12.1089 42.6052 9.24646 46.12 9.24646C49.6348 9.24646 52.4879 12.1089 52.4879 15.6446Z" stroke="url(#paint0_linear_350_1676)"/>
</g>
<g filter="url(#filter2_d_350_1676)">
<ellipse cx="15.8012" cy="15.7509" rx="6.86783" ry="6.89815" fill="#D6FF5A"/>
<path d="M22.169 15.7509C22.169 19.2866 19.316 22.1491 15.8012 22.1491C12.2864 22.1491 9.43335 19.2866 9.43335 15.7509C9.43335 12.2153 12.2864 9.35278 15.8012 9.35278C19.316 9.35278 22.169 12.2153 22.169 15.7509Z" stroke="url(#paint1_linear_350_1676)"/>
</g>
<defs>
<filter id="filter0_d_350_1676" x="0.801025" y="0.750916" width="60.001" height="34" filterUnits="userSpaceOnUse" color-interpolation-filters="sRGB">
<feFlood flood-opacity="0" result="BackgroundImageFix"/>
<feColorMatrix in="SourceAlpha" type="matrix" values="0 0 0 0 0 0 0 0 0 0 0 0 0 0 0 0 0 0 127 0" result="hardAlpha"/>
<feOffset dy="4"/>
<feComposite in2="hardAlpha" operator="out"/>
<feColorMatrix type="matrix" values="0 0 0 0 0.591155 0 0 0 0 0.737402 0 0 0 0 0.147697 0 0 0 1 0"/>
<feBlend mode="normal" in2="BackgroundImageFix" result="effect1_dropShadow_350_1676"/>
<feBlend mode="normal" in="SourceGraphic" in2="effect1_dropShadow_350_1676" result="shape"/>
</filter>
<filter id="filter1_d_350_1676" x="39.2522" y="8.74646" width="14.7356" height="15.7963" filterUnits="userSpaceOnUse" color-interpolation-filters="sRGB">
<feFlood flood-opacity="0" result="BackgroundImageFix"/>
<feColorMatrix in="SourceAlpha" type="matrix" values="0 0 0 0 0 0 0 0 0 0 0 0 0 0 0 0 0 0 127 0" result="hardAlpha"/>
<feOffset dx="1" dy="2"/>
<feComposite in2="hardAlpha" operator="out"/>
<feColorMatrix type="matrix" values="0 0 0 0 0 0 0 0 0 0 0 0 0 0 0 0 0 0 0.25 0"/>
<feBlend mode="normal" in2="BackgroundImageFix" result="effect1_dropShadow_350_1676"/>
<feBlend mode="normal" in="SourceGraphic" in2="effect1_dropShadow_350_1676" result="shape"/>
</filter>
<filter id="filter2_d_350_1676" x="8.93335" y="8.85278" width="14.7356" height="15.7963" filterUnits="userSpaceOnUse" color-interpolation-filters="sRGB">
<feFlood flood-opacity="0" result="BackgroundImageFix"/>
<feColorMatrix in="SourceAlpha" type="matrix" values="0 0 0 0 0 0 0 0 0 0 0 0 0 0 0 0 0 0 127 0" result="hardAlpha"/>
<feOffset dx="1" dy="2"/>
<feComposite in2="hardAlpha" operator="out"/>
<feColorMatrix type="matrix" values="0 0 0 0 0 0 0 0 0 0 0 0 0 0 0 0 0 0 0.25 0"/>
<feBlend mode="normal" in2="BackgroundImageFix" result="effect1_dropShadow_350_1676"/>
<feBlend mode="normal" in="SourceGraphic" in2="effect1_dropShadow_350_1676" result="shape"/>
</filter>
<linearGradient id="paint0_linear_350_1676" x1="46.12" y1="8.74646" x2="46.12" y2="22.5428" gradientUnits="userSpaceOnUse">
<stop offset="0.07" stop-color="white" stop-opacity="0.46"/>
<stop offset="0.385" stop-color="#C1FF05"/>
<stop offset="1" stop-color="#B7E52E"/>
</linearGradient>
<linearGradient id="paint1_linear_350_1676" x1="15.8012" y1="8.85278" x2="15.8012" y2="22.6491" gradientUnits="userSpaceOnUse">
<stop offset="0.07" stop-color="white" stop-opacity="0.46"/>
<stop offset="0.385" stop-color="#C1FF05"/>
<stop offset="1" stop-color="#B7E52E"/>
</linearGradient>
</defs>
</svg>
